<svg width="720" height="720" xmlns="http://www.w3.org/2000/svg" xmlns:xlink="http://www.w3.org/1999/xlink" overflow="hidden"><g><rect x="0" y="0" width="720" height="720" fill="#FFFFFF" fill-opacity="0"/><path d="M83.3677 83.7318 635.678 83.7318 635.678 636.268 83.3677 636.268ZM41.2732 41.7502 41.2732 636.268 41.2732 636.268 41.2732 678.25 41.2732 678.25 41.2732 678.25 83.3677 678.25 83.3677 678.25 635.678 678.25 635.678 678.25 677.773 678.25 677.773 41.7502 635.678 41.7502 635.678 41.7504 83.3677 41.7504 83.3677 41.7502ZM0 0 720 0 720 720 0 720Z" fill="#FFFFFF" fill-rule="evenodd"/><path d="M288 126 350.995 126C361.673 126 371.115 127.257 379.321 129.771 387.527 132.286 393.959 136.518 398.617 142.467 403.276 148.417 405.605 156.562 405.605 166.903 405.605 175.898 403.025 183.529 397.865 189.798 392.705 196.066 385.503 200.793 376.258 203.981 383.424 205.043 388.907 206.973 392.705 209.771 396.503 212.569 399.442 216.305 401.52 220.979 403.598 225.654 405.605 231.285 407.54 237.872L417 269 373.893 269 368.195 247.008C366.332 240.067 364.522 234.684 362.766 230.86 361.01 227.035 358.646 224.379 355.671 222.892 352.697 221.404 348.487 220.66 343.04 220.66L330.247 220.66 330.247 269 288 269 288 126ZM330.247 158.935 330.247 187.832 344.33 187.832C348.2 187.832 351.425 187.212 354.005 185.973 356.585 184.733 358.52 182.98 359.81 180.714 361.1 178.447 361.745 175.756 361.745 172.64 361.745 167.611 360.312 164.069 357.445 162.016 354.578 159.962 351.461 158.935 348.092 158.935L330.247 158.935Z" fill="#C00000" fill-rule="evenodd"/><path d="M462 126 502.574 126 554.496 204.193 554.496 126 594 126 594 269 553.64 269 501.29 189.851 501.29 269 462 269 462 126Z" fill="#C00000" fill-rule="evenodd"/><path d="M531.59 286C542.438 286 552.286 287.501 561.136 290.504 569.985 293.507 577.032 298.226 582.278 304.661 587.524 311.096 590.146 319.461 590.146 329.757L546.684 329.757C546.684 325.967 545.328 323.072 542.616 321.07 539.904 319.068 536.229 318.067 531.59 318.067 527.451 318.067 524.008 318.71 521.26 319.997 518.512 321.284 517.138 323.072 517.138 325.359 517.138 326.861 517.781 328.273 519.065 329.596 520.35 330.918 523.098 332.438 527.308 334.154 531.519 335.87 537.977 338.122 546.684 340.91 557.389 344.271 566.239 347.828 573.232 351.581 580.226 355.335 585.436 360.125 588.862 365.952 592.287 371.779 594 379.555 594 389.278 594 400.289 591.217 409.065 585.65 415.607 580.084 422.149 572.644 426.85 563.33 429.71 554.017 432.57 543.722 434 532.446 434 520.885 434 510.501 432.409 501.295 429.227 492.089 426.046 484.792 420.97 479.403 413.999 474.015 407.028 471.214 397.822 471 386.383L514.462 386.383C514.748 389.886 515.604 392.674 517.031 394.748 518.459 396.821 520.493 398.323 523.133 399.252 525.774 400.182 529.021 400.646 532.875 400.646 536.871 400.646 540.136 400.307 542.67 399.628 545.203 398.948 547.094 397.93 548.343 396.571 549.592 395.213 550.217 393.568 550.217 391.638 550.217 389.636 549.574 387.884 548.29 386.383 547.005 384.881 544.454 383.29 540.636 381.61 536.818 379.93 531.019 377.875 523.24 375.444 514.319 372.584 506.077 369.402 498.512 365.899 490.947 362.395 484.881 357.712 480.313 351.849 475.746 345.987 473.462 338.158 473.462 328.362 473.462 317.709 476.103 309.308 481.384 303.16 486.665 297.011 493.712 292.614 502.526 289.968 511.34 287.323 521.028 286 531.59 286Z" fill="#FFC000" fill-rule="evenodd"/><path d="M125 288 174.652 288 204.734 341.589 233.956 288 282 288 282 432 240.712 432 240.712 339.807 215.94 387.281 190.953 387.281 165.43 338.965 165.43 432 125 432 125 288Z" fill="#FFC000" fill-rule="evenodd"/><path d="M307 288 353.902 288 376.393 342.776 399.098 288 446 288 398.245 382.039 398.245 432 354.968 432 354.968 382.039 307 288Z" fill="#FFC000" fill-rule="evenodd"/><path d="M180.5 450C188.49 450 195.851 451.29 202.581 453.87 209.312 456.449 215.178 460.57 220.181 466.231 225.184 471.891 229.072 479.344 231.843 488.588 234.614 497.832 236 509.118 236 522.446 236 535.775 234.614 547.079 231.843 556.358 229.072 565.638 225.184 573.109 220.181 578.769 215.178 584.431 209.312 588.551 202.581 591.13 195.851 593.71 188.49 595 180.5 595 172.51 595 165.131 593.71 158.365 591.13 151.598 588.551 145.714 584.431 140.711 578.769 135.708 573.109 131.839 565.638 129.103 556.358 126.368 547.079 125 535.775 125 522.446 125 509.118 126.368 497.832 129.103 488.588 131.839 479.344 135.708 471.891 140.711 466.231 145.714 460.57 151.598 456.449 158.365 453.87 165.131 451.29 172.51 450 180.5 450ZM180.5 484.718C178.125 484.718 176.037 485.507 174.237 487.083 172.438 488.659 170.944 491.042 169.756 494.231 168.569 497.42 167.669 501.361 167.057 506.054 166.445 510.748 166.139 516.212 166.139 522.446 166.139 528.609 166.445 534.037 167.057 538.73 167.669 543.424 168.569 547.365 169.756 550.554 170.944 553.743 172.438 556.161 174.237 557.809 176.037 559.458 178.125 560.282 180.5 560.282 182.875 560.282 184.963 559.458 186.763 557.809 188.562 556.161 190.056 553.743 191.244 550.554 192.431 547.365 193.331 543.424 193.943 538.73 194.555 534.037 194.861 528.609 194.861 522.446 194.861 516.212 194.555 510.748 193.943 506.054 193.331 501.361 192.431 497.42 191.244 494.231 190.056 491.042 188.562 488.659 186.763 487.083 184.963 485.507 182.875 484.718 180.5 484.718Z" fill="#002060" fill-rule="evenodd"/><path d="M359.251 451C369.7 451 379.004 452.62 387.162 455.862 395.321 459.102 401.762 463.982 406.485 470.5 411.209 477.017 413.57 485.155 413.57 494.914 413.57 503.248 411.924 510.3 408.632 516.07 405.34 521.84 401.154 526.933 396.072 531.349 390.991 535.766 385.767 540.111 380.399 544.385L360.969 559.771 414 559.771 414 593 303 593 303 567.143 362.364 516.604C366.157 513.328 369.002 510.193 370.899 507.201 372.795 504.21 373.743 500.648 373.743 496.517 373.743 492.243 372.491 489.055 369.986 486.954 367.482 484.853 363.903 483.802 359.251 483.802 353.097 483.802 348.552 485.565 345.618 489.091 342.684 492.617 341.216 497.478 341.216 503.676L304.503 503.676C304.503 491.78 306.829 481.95 311.481 474.186 316.132 466.422 322.574 460.616 330.804 456.77 339.034 452.923 348.516 451 359.251 451Z" fill="#002060" fill-rule="evenodd"/><path d="M537.823 451C546.863 451 555.383 452.293 563.382 454.88 571.382 457.468 577.893 461.543 582.915 467.107 587.937 472.671 590.449 479.919 590.449 488.85 590.449 496.93 588.332 503.504 584.099 508.572 579.866 513.64 573.983 517.095 566.45 518.938 574.342 520.568 580.906 524.024 586.144 529.304 591.381 534.585 594 542.01 594 551.578 594 560.438 591.74 568.04 587.22 574.384 582.7 580.728 576.225 585.583 567.795 588.95 559.365 592.316 549.302 594 537.608 594 518.81 594 504.676 589.96 495.206 581.879 485.735 573.799 481 562.033 481 546.581L517.806 546.581C517.806 551.685 519.707 555.565 523.509 558.223 527.312 560.881 532.011 562.21 537.608 562.21 542.773 562.21 546.827 561.005 549.769 558.595 552.71 556.185 554.181 552.535 554.181 547.645 554.181 543.25 552.549 539.901 549.284 537.597 546.02 535.294 541.302 534.142 535.132 534.142L524.37 534.142 524.37 504.798 536.531 504.798C542.702 504.798 547.06 503.699 549.607 501.502 552.154 499.305 553.427 496.469 553.427 492.996 553.427 489.878 552.172 487.361 549.661 485.447 547.15 483.534 543.204 482.577 537.823 482.577 532.657 482.577 528.675 483.622 525.877 485.713 523.079 487.804 521.608 490.976 521.465 495.229L484.659 495.229C484.659 484.881 487.098 476.463 491.977 469.978 496.856 463.493 503.331 458.708 511.402 455.625 519.474 452.542 528.281 451 537.823 451Z" fill="#002060" fill-rule="evenodd"/><path d="M125 126 186.677 126C196.742 126 206.058 127.629 214.624 130.887 223.19 134.145 230.061 139.333 235.237 146.451 240.412 153.569 243 162.936 243 174.552 243 186.38 240.412 195.942 235.237 203.237 230.061 210.532 223.19 215.844 214.624 219.173 206.058 222.502 196.742 224.166 186.677 224.166L167.082 224.166 167.082 269 125 269 125 126ZM167.082 159.36 167.082 191.338 182.715 191.338C187.783 191.338 191.888 189.886 195.029 186.982 198.17 184.078 199.741 179.935 199.741 174.552 199.741 169.452 198.081 165.645 194.761 163.131 191.442 160.617 187.427 159.36 182.715 159.36L167.082 159.36Z" fill="#C00000" fill-rule="evenodd"/></g></svg>