<svg width="720" height="720" xmlns="http://www.w3.org/2000/svg" xmlns:xlink="http://www.w3.org/1999/xlink" overflow="hidden"><defs><clipPath id="clip0"><rect x="0" y="0" width="720" height="720"/></clipPath></defs><g clip-path="url(#clip0)"><rect x="0" y="0" width="720" height="720" fill="#000000" fill-opacity="0"/><path d="M327.269 506.277C327.269 520.922 327.269 535.566 327.269 550.211 337.738 550.211 348.207 550.211 358.675 550.211 367.649 550.211 374.421 548.402 378.993 544.786 383.566 541.169 385.852 535.831 385.852 528.774 385.852 521.099 383.566 515.43 378.993 511.769 374.421 508.108 367.478 506.277 358.163 506.277 347.865 506.277 337.567 506.277 327.269 506.277ZM31.9193 506.277C31.9193 520.922 31.9193 535.566 31.9193 550.211 42.3881 550.211 52.857 550.211 63.3259 550.211 72.2991 550.211 79.0718 548.402 83.644 544.786 88.216 541.169 90.5022 535.831 90.5022 528.774 90.5022 521.099 88.216 515.43 83.644 511.769 79.0718 508.108 72.1282 506.277 62.8131 506.277 52.5152 506.277 42.2172 506.277 31.9193 506.277ZM509.769 442.891C501.778 466.182 493.788 489.471 485.797 512.762 502.12 512.762 518.443 512.762 534.766 512.762 526.903 489.471 519.041 466.182 511.179 442.891 510.709 442.891 510.239 442.891 509.769 442.891ZM327.269 439.715C327.269 453.434 327.269 467.151 327.269 480.87 336.199 480.87 345.13 480.87 354.061 480.87 363.29 480.87 370.084 479.04 374.443 475.379 378.801 471.717 380.98 466.535 380.98 459.829 380.98 453.037 378.801 447.986 374.443 444.678 370.084 441.37 363.461 439.715 354.573 439.715 345.472 439.715 336.37 439.715 327.269 439.715ZM31.9193 439.715C31.9193 453.434 31.9193 467.151 31.9193 480.87 40.8499 480.87 49.7804 480.87 58.711 480.87 67.9407 480.87 74.7347 479.04 79.0931 475.379 83.4517 471.717 85.6309 466.535 85.6309 459.829 85.6309 453.037 83.4517 447.986 79.0931 444.678 74.7347 441.37 68.1116 439.715 59.2236 439.715 50.1223 439.715 41.0208 439.715 31.9193 439.715ZM295.35 413.911C316.287 413.911 337.225 413.911 358.163 413.911 369.358 413.911 379.058 415.653 387.262 419.138 395.466 422.623 401.79 427.629 406.234 434.158 410.678 440.686 412.9 448.361 412.9 457.183 412.9 465.476 410.485 472.776 405.657 479.084 400.828 485.391 393.97 489.692 385.082 491.986 385.082 492.119 385.082 492.251 385.082 492.383 395.509 494.147 403.734 498.426 409.759 505.219 415.784 512.012 418.796 520.569 418.796 530.891 418.796 545.536 413.797 556.717 403.798 564.436 393.799 572.155 379.314 576.016 360.342 576.016 338.678 576.016 317.014 576.016 295.35 576.016 295.35 521.98 295.35 467.945 295.35 413.911ZM153.144 413.911C187.585 413.911 222.025 413.911 256.465 413.911 256.465 422.953 256.465 431.996 256.465 441.039 232.836 441.039 209.206 441.039 185.576 441.039 185.576 454.581 185.576 468.122 185.576 481.664 204.377 481.664 223.179 481.664 241.98 481.664 241.98 490.398 241.98 499.132 241.98 507.866 223.179 507.866 204.377 507.866 185.576 507.866 185.576 521.539 185.576 535.213 185.576 548.888 209.462 548.888 233.348 548.888 257.234 548.888 257.234 557.93 257.234 566.973 257.234 576.016 222.538 576.016 187.841 576.016 153.144 576.016 153.144 521.98 153.144 467.945 153.144 413.911ZM0 413.911C20.9376 413.911 41.8754 413.911 62.8131 413.911 74.0083 413.911 83.7079 415.653 91.9121 419.138 100.116 422.623 106.44 427.629 110.884 434.158 115.328 440.686 117.55 448.361 117.55 457.183 117.55 465.476 115.136 472.776 110.307 479.084 105.479 485.391 98.6208 489.692 89.733 491.986 89.733 492.119 89.733 492.251 89.733 492.383 100.159 494.147 108.385 498.426 114.41 505.219 120.434 512.012 123.447 520.569 123.447 530.891 123.447 545.536 118.448 556.717 108.449 564.436 98.4498 572.155 83.9644 576.016 64.9922 576.016 43.3282 576.016 21.664 576.016 0 576.016 0 521.98 0 467.945 0 413.911ZM659.11 411.397C670.903 411.397 682.056 413.712 692.567 418.344 703.079 422.975 711.668 429.129 718.333 436.804 711.625 443.641 704.916 450.479 698.208 457.315 693.593 451.757 687.888 447.479 681.094 444.479 674.3 441.48 667.228 439.98 659.879 439.98 652.7 439.98 647.167 441.679 643.278 445.075 639.39 448.471 637.446 452.684 637.446 457.712 637.446 462.212 638.856 465.829 641.676 468.563 644.496 471.299 649.538 473.813 656.802 476.106 662.998 478.091 669.194 480.076 675.39 482.061 685.901 485.413 694.405 489.273 700.9 493.64 707.395 498.007 712.202 503.234 715.321 509.321 718.44 515.408 720 522.686 720 531.155 720 539.889 717.906 547.785 713.719 554.843 709.531 561.9 703.186 567.524 694.682 571.714 686.179 575.906 675.732 578 663.34 578 650.692 578 638.877 575.949 627.896 571.847 616.914 567.745 607.15 561.856 598.604 554.181 604.501 545.668 610.398 537.155 616.294 528.641 623.217 535.699 630.63 540.926 638.535 544.322 646.44 547.719 654.495 549.417 662.699 549.417 679.535 549.417 687.953 543.506 687.953 531.685 687.953 526.744 686.35 522.708 683.145 519.577 679.941 516.445 674.193 513.467 665.904 510.644 658.597 508.219 651.29 505.792 643.983 503.366 631.164 499.132 621.593 493.375 615.269 486.097 608.945 478.819 605.783 469.446 605.783 457.977 605.783 449.773 607.898 442.12 612.128 435.017 616.358 427.916 622.512 422.203 630.588 417.881 638.664 413.558 648.171 411.397 659.11 411.397ZM492.078 411C504.085 411 516.093 411 528.1 411 548.824 466.005 569.548 521.011 590.272 576.016 578.906 576.016 567.539 576.016 556.173 576.016 551.986 563.664 547.798 551.313 543.611 538.963 521.348 538.963 499.086 538.963 476.824 538.963 472.593 551.313 468.363 563.664 464.133 576.016 452.639 576.016 441.144 576.016 429.65 576.016 450.459 521.011 471.269 466.005 492.078 411Z" fill="#FFFFFF" fill-rule="evenodd"/><path d="M669.922 278.156C668.875 278.013 667.911 278.915 665.985 280.719 664.558 282.056 662.535 283.848 661.489 284.702 660.443 285.555 659.709 286.449 659.857 286.688 660.005 286.927 661.023 287.224 662.12 287.348 663.217 287.471 664.312 287.77 664.553 288.011 665.418 288.876 666.785 296.765 667.49 304.961 667.946 310.272 668.322 312.939 668.574 312.664 668.644 312.589 669.04 311.553 669.454 310.365 669.993 308.813 670.297 305.99 670.531 300.356 670.908 291.269 671.107 290.746 674.636 289.572 677.31 288.683 677.73 288.359 677.992 286.991 678.164 286.091 677.542 285.214 674.355 281.859 672.099 279.486 670.969 278.299 669.922 278.156ZM656.808 214.5C658.377 214.428 659.818 214.547 660.174 214.903 660.549 215.278 659.814 216.371 657.192 219.34 654.491 222.398 653.537 223.834 652.928 225.756 652.005 228.671 651.311 228.921 647.738 227.62 644.395 226.403 641.176 224.54 639.997 223.14 638.688 221.586 638.692 221.51 640.151 220.113 640.961 219.338 642.954 218.472 646.286 217.45 649.001 216.617 651.874 215.626 652.672 215.248 653.541 214.836 655.238 214.572 656.808 214.5ZM711.086 203.525C712.607 203.143 714.779 204.406 717.034 206.983 719.463 209.757 720.059 211.948 719.996 217.858 719.937 223.296 719.468 225.429 717.784 227.902 716.635 229.591 709.903 235.892 701.867 242.802 695.08 248.639 694.077 249.308 691.822 249.503 689.929 249.668 689.62 249.546 687.709 247.882 686.572 246.893 684.772 245.016 683.708 243.71 682.027 241.648 681.773 241.071 681.773 239.3 681.773 236.582 682.442 235.534 689.776 226.758 690.841 225.484 693.681 222.222 697.177 218.26 708.08 205.9 710.085 203.776 711.086 203.525ZM689.089 181.33C690.239 181.33 691.938 181.987 694.793 183.535 702.32 187.616 707.068 191.644 708.125 194.847 708.569 196.191 708.518 196.667 707.75 198.353 707.261 199.426 706.861 200.468 706.861 200.669 706.861 201.399 702.311 208.448 699.115 212.671 694.874 218.272 681.368 232.042 679.003 233.175 676.193 234.521 673.378 234.611 669.878 233.467 665.638 232.081 664.123 231.24 661.786 228.976 659.172 226.445 658.899 225.234 660.335 222.54 660.945 221.395 661.444 220.293 661.444 220.089 661.444 219.886 661.805 219.204 662.246 218.573 662.687 217.942 663.184 216.863 663.35 216.176 663.64 214.983 667.58 209.128 671.82 203.593 673.622 201.239 674.925 199.436 680.84 191.108 681.873 189.653 683.783 186.858 685.085 184.897 687.356 181.474 687.517 181.33 689.089 181.33ZM612.829 172.78C613.513 172.659 614.388 172.686 615.915 172.781 618.721 172.954 619.979 173.311 623.596 174.958 625.975 176.042 628.213 177.054 628.57 177.206 628.927 177.359 631.36 178.642 633.977 180.058 636.594 181.474 643.114 184.795 648.466 187.438 658.52 192.402 659.996 193.286 660.888 194.875 661.486 195.941 661.575 202.048 661.04 205.306 660.772 206.936 660.367 207.714 659.353 208.548 656.838 210.614 645.177 214.183 640.941 214.183 637.627 214.183 636.219 213.451 631.702 209.376 628.461 206.452 627.708 205.97 626.37 205.97 624.361 205.97 623.859 206.559 621.452 211.741 618.121 218.915 618.561 219.745 627.921 223.924 628.635 224.243 630.54 225.092 632.155 225.812 637.198 228.061 640.142 231.349 650.193 245.956 652.647 249.522 655.696 253.937 656.968 255.767 658.24 257.597 659.281 259.29 659.281 259.528 659.281 259.766 659.547 260.117 659.871 260.307 660.196 260.498 660.791 261.298 661.194 262.086 661.597 262.873 662.159 263.442 662.442 263.349 663.399 263.034 663.22 261.476 661.948 259.061 660.035 255.426 657.054 250.386 656.242 249.414 655.845 248.939 654.488 246.702 653.226 244.443 651.964 242.184 650.474 239.717 649.916 238.96 649.357 238.203 648.9 237.463 648.9 237.316 648.9 237.169 648.413 236.332 647.819 235.458 647.224 234.583 646.737 233.404 646.737 232.837 646.737 231.835 646.814 231.813 649.441 232.041 652.89 232.342 662.693 234.557 668.542 236.357 671.879 237.383 674.551 239.355 682.954 246.987 685.626 249.414 688.61 251.853 689.586 252.407L691.36 253.414 693.75 252.494C695.695 251.747 697.373 250.399 702.76 245.258 709.868 238.474 711.931 236.909 713.148 237.376 713.851 237.645 713.89 238.279 713.648 245.486 713.248 257.386 712.313 263.094 709.449 271.13 707.356 277.001 705.255 280.669 700.222 287.238 699.038 288.784 697.514 291.267 696.835 292.756 694.268 298.388 694.236 298.701 693.94 320.832 693.71 338.153 693.57 341.34 693.019 341.881 692.464 342.426 687.23 342.561 656.433 342.826 622.562 343.117 620.478 343.09 620.207 342.384 619.65 340.932 619.928 334.805 620.743 330.604 621.196 328.27 621.701 325.095 621.866 323.55 622.031 322.004 622.438 319.418 622.771 317.803 623.104 316.186 623.674 312.296 624.038 309.156 624.402 306.017 624.798 303.129 624.919 302.74 625.039 302.35 625.305 298.946 625.51 295.175 625.953 287.031 626.272 287.884 620.002 280.429 612.848 271.922 609.773 267.608 596.051 246.82 584.131 228.762 581.017 223.66 581 222.158 580.98 220.372 586.19 210.636 592.963 199.802 595.67 195.472 601.934 185.823 607.716 177.077 608.554 175.808 609.988 174.275 610.901 173.671 611.656 173.172 612.146 172.902 612.829 172.78ZM667.034 158.502C669.591 158.656 670.359 158.95 674.636 161.412 681.652 165.451 682.916 166.483 684.431 169.413 686.969 174.32 686.029 178.351 680.401 186.689 675.949 193.283 670.054 200.646 667.519 202.778 666.279 203.82 666.241 203.825 665.794 202.99 665.542 202.521 665.337 200.658 665.337 198.852 665.337 192.898 663.633 190.632 656.514 187.117 650.826 184.308 650.63 184.156 650.63 182.546 650.63 181.059 650.889 180.533 653.888 175.927 655.127 174.025 657.416 169.924 658.975 166.814 660.533 163.704 662.345 160.523 663 159.745 664.159 158.369 664.267 158.335 667.034 158.502ZM640.704 142C641.87 141.989 651.034 147.302 653.858 149.626 657.41 152.55 658.589 154.472 658.546 157.267 658.519 159.066 657.962 160.508 655.195 165.946 648.262 179.574 645.818 181.594 639.167 179.188 637.978 178.758 634.572 177.113 631.598 175.532 628.624 173.951 625.548 172.324 624.761 171.915 623.975 171.506 622.959 170.777 622.504 170.294 621.727 169.47 621.719 169.335 622.37 168.132 622.753 167.426 623.361 166.266 623.723 165.552 624.085 164.839 626.432 161.241 628.939 157.555 631.446 153.87 634.744 149.007 636.268 146.748 639.148 142.479 639.586 142.011 640.704 142Z" fill="#FFFFFF" fill-rule="evenodd"/><path d="M373.539 298.993C373.007 298.993 372.939 299.006 372.595 299.173 372.124 299.401 371.465 299.866 371.221 300.143L371.06 300.423 371.002 300.476 370.985 300.552 370.836 300.808C370.752 301.072 370.704 301.402 370.669 301.871L370.737 302.644 370.745 302.863 370.758 302.878 370.762 302.92 370.89 303.04 371.129 303.332 371.176 303.307 371.232 303.358C371.419 303.395 371.529 303.395 371.637 303.264L371.762 302.99 371.83 302.953 372.255 302.053 372.521 301.642 373.075 301.387 373.409 301.269C374.028 301.228 374.398 301.414 374.647 301.893 374.742 302.075 374.767 302.216 374.767 302.578L374.73 302.994 374.588 303.363 374.452 303.667C374.282 304.012 374.187 304.244 374.156 304.411L374.177 304.495 374.162 304.536 374.199 304.583 374.249 304.778 374.392 304.824 374.449 304.895 374.557 304.877 374.593 304.889C374.741 304.894 374.908 304.866 375.054 304.804L375.067 304.793 375.095 304.788C375.349 304.668 375.629 304.462 375.904 304.16L375.996 304.004 376.078 303.935 376.135 303.77 376.435 303.262 376.51 302.684 376.567 302.521 376.545 302.424 376.569 302.237C376.548 301.884 376.462 301.527 376.312 301.181L376.221 301.041 376.2 300.949 375.92 300.577 375.669 300.192 375.549 300.084 375.468 299.975 375.092 299.673 374.75 299.366 374.666 299.331 374.522 299.216C374.321 299.106 374.216 299.051 374.091 299.023L373.905 299.013 373.861 298.994 373.816 299.008ZM346.774 298.309C346.151 298.276 345.813 298.345 345.286 298.611 344.894 298.811 344.558 299.06 344.296 299.342L344.076 299.715 343.977 299.804 343.951 299.926 343.748 300.27C343.623 300.688 343.567 301.168 343.576 301.614L343.731 302.409 343.787 302.718 343.793 302.726 343.798 302.753 344.183 303.191 344.463 303.525 344.49 303.54 344.491 303.541C344.8 303.809 345.145 304.046 345.395 304.136L345.395 304.137C345.666 304.235 345.665 304.235 345.767 304.131 345.829 304.068 345.856 304.007 345.838 303.853L345.743 303.474 345.746 303.465 345.708 303.33 345.63 303.017 345.358 301.849 345.349 301.761 345.363 301.302 345.997 300.693 346.083 300.66 347.135 300.681 347.464 300.802 348.028 301.815 348.453 302.705 348.65 302.73 348.725 302.84 348.913 302.764 348.986 302.774 349.038 302.713 349.154 302.666 349.317 302.391 349.427 302.264 349.457 302.155 349.531 302.031 349.552 301.809 349.662 301.407 349.626 301.014 349.651 300.758 349.592 300.622 349.574 300.437 349.41 300.205 349.159 299.627 348.703 299.211 348.524 298.958 348.36 298.897 348.226 298.774C347.86 298.551 347.449 298.397 347.022 298.335L346.901 298.356ZM337.245 265.437 337.119 265.512 337.079 265.474 336.853 265.668 336.639 265.794 336.623 265.865 336.613 265.874 336.533 266.284 336.379 267.005C336.342 267.498 336.372 267.877 336.514 268.274L336.541 268.318 336.543 268.339 336.716 268.614 337.332 269.657C337.741 270.215 338.124 270.9 338.439 271.617L339.129 273.744 339.139 273.787 339.224 274.441 339.185 274.933 339.156 275.133C339.082 275.353 339.072 275.537 339.099 276.135 339.14 277.06 339.311 278.352 339.523 279.515L339.743 280.556 339.751 280.603 339.756 280.621 339.857 281.097C339.971 281.551 340.083 281.909 340.182 282.109 340.284 282.316 340.496 282.65 340.738 282.998L340.835 283.124 340.847 283.145 340.896 283.205 341.474 283.966 341.586 284.064 341.716 284.227 342.137 284.545 342.878 285.19 342.878 285.19 343.067 285.247 343.142 285.304 343.212 285.292 343.313 285.321 343.361 285.265 343.483 285.243 343.468 285.136 343.496 285.103 343.432 284.893 343.41 284.733 342.902 283.209 341.933 280.193 341.932 280.185 341.416 276.104 341.375 275.609C341.274 273.67 341.153 272.487 340.822 271.48L340.805 271.445 340.802 271.43 340.711 271.242 340.144 270.028 340.063 269.913 340.062 269.91 340.043 269.883 339.009 268.406C338.138 267.264 337.667 266.396 337.663 265.935 337.66 265.646 337.486 265.437 337.245 265.437ZM352.918 260.129 352.849 260.223 352.819 260.21 352.715 260.407 352.493 260.712 352.359 261.084 352.35 261.103 352.347 261.12 352.039 261.973C351.928 262.401 351.897 262.681 351.874 263.425L351.882 263.653 351.867 263.734 351.898 264.132 351.925 264.981C351.978 265.523 352.071 266.13 352.216 266.918L352.459 268.331 352.62 269.679 352.682 270.806C352.696 271.253 352.7 271.757 352.7 272.367 352.7 274.812 352.544 276.705 352.21 278.319L352.193 278.433 352.114 278.912C352.042 279.193 351.981 279.563 351.928 280.002L351.88 280.565 351.798 281.122C351.722 282.103 351.697 283.25 351.697 284.913 351.697 286.245 351.721 287.345 351.771 288.273L351.871 289.291 351.959 290.203 351.967 290.244 352.003 290.604 352.078 290.841 352.15 291.23 352.418 291.914 352.749 292.952C352.922 293.363 353.108 293.755 353.289 294.088L353.625 294.596 353.722 294.759 353.745 294.778 353.803 294.866 353.884 294.897 354.135 295.111 354.152 295.002 354.186 295.015 354.201 294.689 354.22 294.559C354.265 293.847 354.282 292.501 354.27 290.827L354.249 289.418 354.249 289.398C354.245 288.494 354.237 287.598 354.224 286.814 354.201 285.307 354.196 283.371 354.215 282.51 354.226 281.977 354.24 281.532 354.261 281.11L354.297 280.64 354.379 279.657 354.535 278.374C354.613 277.798 354.712 277.121 354.837 276.279 355.3 273.184 355.319 272.987 355.324 271.557L355.32 271.434 355.341 270.9 355.303 270.618 355.298 270.381C355.277 270.028 355.238 269.693 355.174 269.315L355.048 268.734 355.044 268.71 355.032 268.665 354.888 267.997C354.759 267.475 354.592 266.85 354.377 266.062 354.165 265.284 353.907 264.253 353.802 263.771 353.622 262.942 353.581 262.673 353.444 261.427L353.421 261.325 353.389 261.018 353.281 260.692 353.235 260.486 353.199 260.445 353.169 260.354 353.089 260.321ZM381.216 256.973 381.174 257.032 381.023 257.036 380.943 257.353 380.891 257.426C380.751 258.515 380.698 262.465 380.805 263.984L380.864 264.442 380.87 264.524 380.883 264.59 380.921 264.879 380.955 264.931 380.966 264.989 381.007 265.014 381.171 265.273 381.455 265.287 381.567 265.355 381.606 265.294 381.638 265.296C381.794 265.162 381.963 264.876 382.188 264.402 382.388 263.981 382.591 263.586 382.853 263.123L383.686 261.73 384.038 261.147 384.403 260.523 384.843 259.78 384.877 259.71 385.035 259.44 385.129 259.188 385.315 258.808 385.322 258.684 385.382 258.523 385.333 258.482 385.336 258.428 385.062 258.247 385.017 258.209 384.987 258.196 384.915 258.149C384.705 258.054 384.42 257.956 384.043 257.846 383.619 257.722 382.968 257.509 382.596 257.373 381.854 257.101 381.447 256.966 381.216 256.973ZM340.994 256.051 340.86 256.123 340.619 256.183 340.152 256.507 339.956 256.613C339.377 257.069 338.821 257.358 338.131 257.562 337.485 257.752 337.302 257.846 337.25 258.014 337.219 258.113 337.228 258.221 337.312 258.42L337.361 258.509 337.368 258.545 337.546 258.851 337.833 259.384C338.134 259.903 338.824 261.241 339.365 262.358 339.769 263.192 340.027 263.713 340.21 264.053L340.31 264.205 340.41 264.403 340.478 264.465 340.607 264.664C340.748 264.814 340.913 264.937 340.973 264.937L341.025 264.866 341.375 264.515 341.412 264.332 341.444 264.286 341.493 263.929 341.643 263.19 341.665 262.662 341.709 262.334 341.723 261.278 341.728 261.159 341.726 261.095 341.731 260.694C341.705 259.497 341.603 258.18 341.465 257.257L341.419 257.05 341.405 256.927 341.37 256.831 341.237 256.233 341.128 256.151 341.096 256.065 341.033 256.081ZM389.739 245.329C389.686 245.326 389.613 245.35 389.467 245.396L389.382 245.447 389.372 245.448C389.15 245.543 388.87 245.705 388.555 245.915L388.437 246.008 388.111 246.202C386.998 247.019 385.59 248.28 384.627 249.325L384.435 249.573 384.394 249.614C384.124 249.923 383.901 250.207 383.746 250.449L383.729 250.488 383.61 250.644 383.598 250.802 383.503 251.027 383.574 251.113 383.561 251.287 383.824 251.413 383.865 251.464 383.96 251.479 383.98 251.489 384.129 251.504 384.42 251.549 384.839 251.56 385.28 251.584C386.076 251.615 386.524 251.645 386.816 251.722L387.293 252.06 387.448 252.183 387.799 252.598 387.899 252.645 388.004 252.759 388.149 252.766 388.242 252.811 388.322 252.775 388.47 252.783 388.604 252.649 388.686 252.612 388.754 252.499 388.918 252.336 389.111 251.909 389.181 251.792 389.219 251.67 389.328 251.428 389.453 250.907 389.588 250.464 389.626 250.18 389.725 249.768C389.836 249.138 389.922 248.464 389.977 247.837L389.99 247.468 390.008 247.337 390.014 246.817 390.036 246.189 390.022 246.124 390.022 246.07C390.001 245.733 389.956 245.501 389.881 245.424L389.86 245.41 389.854 245.383 389.825 245.387ZM332.879 245.235 332.724 245.277 332.463 245.301 332.451 245.355 332.394 245.37 332.327 245.906 332.267 246.175 332.273 246.337 332.267 246.385 332.28 246.497 332.329 247.761C332.387 248.351 332.481 248.976 332.6 249.551L332.631 249.657 332.646 249.797 332.919 250.659 333.029 251.043 333.06 251.108 333.11 251.265 333.291 251.585 333.509 252.032 333.613 252.15 333.687 252.28 333.766 252.324 333.918 252.496 334.056 252.481 334.148 252.531 334.213 252.464 334.297 252.455 334.524 252.142 334.629 252.033 334.802 251.829 335.273 251.452 335.622 251.316 336.94 251.052 337.8 250.905 338.395 250.804C338.754 250.717 338.976 250.627 338.976 250.558L338.971 250.551 338.973 250.55 338.952 250.519 338.786 250.249 338.728 250.185 338.711 250.157 338.507 249.936 338.276 249.678 338.204 249.607 338.009 249.394 337.272 248.69 336.663 248.092 336.384 247.842 335.804 247.288 335.275 246.848 334.864 246.479 334.48 246.189 333.958 245.756 333.822 245.691 333.606 245.526 333.056 245.321ZM319.562 230.985 319.531 230.995 319.48 230.991C318.945 230.991 318.439 231.125 317.903 231.429L317.753 231.552 317.712 231.565 317.219 231.991 316.137 232.88 316.038 233.011 315.807 233.211 314.434 235.136 313.943 235.787 312.796 238.187 312.323 239.15 312.284 239.257 312.067 239.709 311.612 241.046 311.568 241.164 311.559 241.203 311.369 241.765 311.356 242.079 311.29 242.359 311.339 242.468 311.331 242.659 311.465 242.748 311.487 242.794 311.518 242.782 311.588 242.828C311.683 242.827 311.802 242.77 311.99 242.657L312.093 242.558 312.154 242.535 312.274 242.387 312.295 242.367 312.319 242.331 312.42 242.207 312.588 241.936 312.721 241.741C313.062 241.183 313.536 240.319 314.241 238.984 316.154 235.358 316.922 234.396 318.808 233.246 319.205 233.004 319.535 232.781 319.799 232.576L319.868 232.511 320.036 232.398 320.144 232.25 320.394 232.014 320.512 231.743 320.544 231.701 320.539 231.683 320.596 231.555C320.598 231.419 320.535 231.299 320.408 231.193L320.4 231.19 320.399 231.186 320.382 231.182 320.065 231.037 319.638 231.004ZM302.236 215.16 302.469 215.591 300.096 218.968C295.237 225.881 291.325 235.336 289.418 244.974 288.774 248.227 288.681 249.731 288.688 256.801 288.696 265.51 288.996 268.13 290.715 274.52 294.972 290.348 305.475 304.901 319.663 314.633 326.257 319.154 336.057 323.257 344.326 324.958 350.292 326.185 353.348 326.496 359.441 326.496 372.183 326.496 383.005 323.354 394.89 316.204 409.352 307.503 421.779 290.95 425.747 275.099 427.326 268.797 428.601 257.938 428.213 254.101 428.119 253.172 427.958 251.501 427.857 250.388 426.93 240.322 423.883 230.905 418.76 222.277 418.23 221.384 417.542 220.496 417.231 219.971L417.201 219.899 417.196 219.952C417.652 220.784 412.865 225.549 408.818 228.294 407.049 229.493 405.602 230.616 405.602 230.79 405.602 230.964 406.085 231.573 406.676 232.143 408.989 234.374 410.826 237.624 411.659 240.966 412.337 243.679 412.725 249.384 412.252 249.683 411.244 250.321 402.775 246.327 399.672 243.751 398.286 242.601 397.812 242.551 397.82 243.558 397.833 245.014 397.292 249.055 396.849 250.813 395.862 254.733 393.677 259.508 390.95 263.703 386.568 270.445 386.042 271.852 385.659 277.898 385.311 283.369 384.592 286.36 382.579 290.724 381.275 293.551 381.172 297.489 382.314 300.824 383.34 303.816 383.386 305.044 382.528 306.484 381.328 308.498 378.808 309.591 374.567 309.94 372.231 310.133 371.219 310.417 368.796 311.564 365.559 313.095 363.664 313.418 360.58 312.962 358.368 312.634 357.438 312.314 354.808 310.974 352.975 310.039 349.68 309.287 347.424 309.287 345.28 309.287 343.313 308.579 341.911 307.305 340.221 305.77 339.915 304.004 340.811 300.983 342.011 296.944 341.494 291.096 339.702 288.423 338.576 286.747 337.988 284.478 337.8 281.094 337.574 277.036 337.164 274.38 336.33 271.58 335.638 269.255 335.36 268.756 332.683 265.031 330.662 262.219 328.166 257.291 327.15 254.105 326.371 251.663 325.124 245.717 325.124 244.444 325.124 243.941 325.052 243.388 324.94 243.088 324.752 242.588 324.646 242.482 323.915 242.972 321.16 244.82 314.895 248.044 312.493 248.852 310.276 249.597 310.154 249.378 310.381 245.045 310.68 239.326 312.252 235.484 315.715 232.006 316.536 231.182 317.208 230.406 317.208 230.282 317.208 230.157 315.76 228.946 313.992 227.588 312.223 226.232 309.757 224.087 308.511 222.822 307.264 221.557 306.114 220.523 305.889 220.206 305.663 219.891 305.157 219.17 304.539 218.512 304.18 218.13 303.796 217.634 303.396 217.047ZM420.801 212.857 420.195 213.93 420.328 213.737C420.461 213.589 420.6 213.314 420.73 213.02ZM346.161 212.155 344.417 212.298 344.273 212.304 344.117 212.323 342.68 212.44C340.992 212.648 339.494 212.94 338.691 213.255L338.422 213.411 338.369 213.432 338.345 213.455 338.138 213.574 338.058 213.731 338.053 213.735 338.055 213.737 338.001 213.843 338.184 213.912 338.213 213.953 338.329 213.967 338.373 213.984 338.496 213.989 339.035 214.057C339.652 214.082 340.608 214.068 342.04 214.021L342.894 213.989 344.8 213.966C345.843 213.957 346.806 213.951 347.437 213.952 349.774 213.955 350.038 213.989 352.57 214.609 352.691 214.638 353.083 214.644 353.442 214.622 353.696 214.606 353.87 214.581 353.999 214.539L354.043 214.507 354.053 214.506 354.076 214.485 354.287 214.338 354.292 214.286 354.397 214.188 354.317 213.996 354.329 213.849 354.227 213.782 354.216 213.757C354.057 213.604 353.805 213.445 353.475 213.288L353.471 213.287 353.471 213.286 353.464 213.284 352.267 212.827 351.943 212.743 351.568 212.61 351.135 212.534 350.685 212.417 349.862 212.312 349.257 212.205 347.7 212.181 347.349 212.169 347.268 212.173ZM299.705 210.049 300.181 211.126C300.363 211.547 300.599 211.964 300.791 212.393 300.985 212.821 301.183 213.24 301.424 213.665L302.077 214.868ZM422.746 208.464 421.71 211.013 421.723 210.987C421.96 210.421 422.239 209.78 422.526 209.069ZM297.779 205.011 298.281 206.471C298.54 207.15 298.823 207.925 299.135 208.711 299.291 209.104 299.445 209.455 299.624 209.862L299.663 209.95ZM405.853 191.707 405.863 192.041 405.869 191.954ZM358.134 188.365C356.571 188.365 355.078 188.406 353.757 188.49 344.905 189.057 337.762 190.8 329.576 194.394 326.902 195.568 319.621 199.523 318.623 200.344 318.451 200.485 318.296 200.618 318.149 200.691L317.935 200.689 318.05 200.832C318.312 200.936 318.527 201.194 318.528 201.406 318.53 201.857 320.636 205.102 321.825 206.48 323.343 208.241 327.564 210.812 330.566 211.805 332.303 212.38 335.499 212.412 337.364 211.873 340.969 210.833 343.525 210.404 347.406 210.186 351.66 209.948 353.628 210.242 359.187 211.944 361.63 212.692 361.865 212.709 363.16 212.223 366.4 211.009 369.154 210.586 373.773 210.592 378.329 210.598 379.118 210.717 384.657 212.241 387.665 213.07 391.51 213.014 393.808 212.108 395.616 211.397 398.632 209.307 400.261 207.636 400.845 207.037 401.389 206.365 401.892 205.632L403.065 203.622 402.902 203.849C402.791 203.839 401.084 202.583 399.392 201.325 396.103 198.878 389 194.817 385.482 193.372 382.655 192.212 374.836 189.977 371.242 189.305 368.124 188.721 362.819 188.364 358.134 188.365ZM316.255 187.242 316.254 187.252 316.254 187.271ZM410.94 150.782 410.893 150.828 410.827 150.834C410.657 150.947 410.42 151.164 410.116 151.489 408.939 152.749 407.665 154.48 406.498 156.354L405.632 157.872 405.542 158.017 405.487 158.127 404.857 159.231C404.354 160.198 403.904 161.16 403.531 162.075L403.02 163.662 402.666 164.617 402.569 165.067 402.321 165.836 402.25 166.53 402.122 167.114 402.025 168.712 401.959 169.356 401.973 169.558 401.969 169.625 402.008 170.026 402.151 171.968C402.292 172.78 402.522 173.605 402.876 174.65 404.937 180.729 405.832 183.882 406.198 186.357 406.472 188.2 406.542 193.498 406.321 195.457L405.487 199.415 405.461 199.503 403.785 203.615C402.476 206.252 401.12 208.231 399.037 210.543 398.319 211.339 397.883 211.841 397.626 212.185L397.582 212.278 397.575 212.286 397.567 212.308 397.293 212.88 397.35 212.94 397.328 213.004 397.402 212.994 397.506 213.103 398.037 212.912 398.063 212.908 398.093 212.892 398.276 212.826C398.694 212.627 399.163 212.347 399.656 212.008L399.713 211.964 399.74 211.948 399.852 211.857 401.173 210.841 401.782 210.28 402.285 209.869 402.5 209.617 402.662 209.468C403.136 208.991 403.575 208.504 403.955 208.029L404.346 207.461 404.542 207.233 404.841 206.743 405.477 205.821 405.954 204.926 406.417 204.169 406.636 203.643 406.815 203.307C407.217 202.444 407.57 201.57 407.856 200.724L407.964 200.311 408.303 199.17 408.38 198.728 408.491 198.305 408.534 197.85 408.57 197.64 408.597 197.179 408.641 196.716 408.677 195.781 408.686 195.619 408.687 195.522 408.69 195.446C408.705 194.96 408.717 194.407 408.727 193.778 408.763 191.68 408.747 190.026 408.673 188.664L408.635 188.354 408.576 187.29C408.514 186.68 408.427 186.133 408.302 185.546L408.284 185.475 408.263 185.305C408.169 184.871 408.023 184.315 407.842 183.686L407.825 183.636 407.808 183.566 407.635 183.023 407.208 181.644 407.066 181.235 406.78 180.334C406.579 179.767 406.372 179.207 406.17 178.691L406.016 178.321 405.72 177.549 405.451 176.847 404.19 172.79 403.769 169.332C403.7 167.189 403.771 166.618 404.306 164.941 404.979 162.835 406.181 160.376 408.71 155.933 409.058 155.322 409.435 154.64 409.763 154.034L410.191 153.215 410.343 152.939 410.382 152.85 410.517 152.591C410.757 152.094 410.929 151.695 411.031 151.397L411.047 151.31 411.097 151.192 411.076 151.137 411.133 150.806 410.955 150.823ZM303.443 142.018C303.855 142.127 305.027 142.751 307.909 144.407 309.935 145.571 313.346 148.473 314.822 150.288 318.943 155.355 320.836 160.08 320.836 165.304 320.836 169.014 319.862 175.14 318.686 178.824 318.228 180.26 317.811 181.721 317.759 182.07 317.706 182.419 317.562 182.81 317.436 182.938 317.31 183.067 317.208 183.532 317.208 183.971 317.208 184.192 317.147 184.486 317.049 184.785L316.677 185.593 321.339 183.231C323.887 181.941 326.894 180.532 328.029 180.119 330.418 179.251 330.123 179.078 332.461 182.726 333.234 183.932 334.089 184.901 334.36 184.88 334.632 184.858 336.412 184.496 338.317 184.077 340.221 183.657 342.744 183.127 343.924 182.899 345.102 182.67 346.995 182.28 348.129 182.03L350.19 181.578 350.19 178.121 350.19 174.665 360.828 174.835C366.678 174.927 371.815 175.078 372.243 175.169 373.001 175.327 373.015 175.392 372.761 177.594 372.617 178.839 372.489 180.311 372.477 180.866L372.454 181.875 381.853 185.148C387.023 186.949 391.374 188.431 391.523 188.442 391.805 188.465 394.387 183.054 394.387 182.443 394.387 182.249 394.54 181.994 394.725 181.876 395.121 181.627 403.872 186.01 404.838 186.975L405.344 187.385 405.141 186.386C404.857 185.392 404.246 183.06 403.783 181.203 403.321 179.347 402.502 176.085 401.963 173.954 401.232 171.062 400.984 169.314 400.984 167.057 400.984 164.172 401.718 159.965 402.341 159.282 402.502 159.106 402.633 158.762 402.633 158.518 402.633 157.822 405.542 153.044 407.161 151.081 408.442 149.525 411.023 147.302 413.029 146.024 417.524 143.161 419.124 142.398 419.124 143.119 419.124 143.242 418.258 144.722 417.2 146.41 415.525 149.079 414.748 150.574 413.503 153.528 412.807 155.177 412.532 157.15 412.534 160.446 412.536 163.232 412.705 164.532 413.32 166.522 414.329 169.79 415.226 171.763 416.466 173.441 417.015 174.183 417.639 175.133 417.852 175.55 418.066 175.968 418.365 176.31 418.58 176.621 418.795 176.932 419.408 178.153 420.158 179.424 421.554 181.786 424.402 188.541 424.65 189.682 424.899 190.823 425.012 191.772 425.255 192.932 425.499 194.092 425.703 196.82 425.709 198.995 425.717 201.645 425.943 202.754 425.822 203.271L425.624 203.544 425.876 203.664C427.001 204.66 430.762 209.904 432.869 213.094 434.474 215.524 438.255 222.646 438.255 223.239 438.255 223.596 437.305 224.203 435.47 225.019 433.938 225.699 432.51 226.257 432.298 226.257 432.062 226.257 431.983 226.554 432.095 227.016 432.453 228.497 436.774 241.394 436.984 241.608 437.101 241.728 438.771 241.563 440.696 241.241 442.619 240.92 444.262 240.73 444.346 240.816 444.947 241.43 446.408 261.249 445.891 261.777 445.666 262.007 444.469 261.963 442.22 261.639 439.923 261.309 438.802 261.269 438.628 261.512 438.435 261.777 435.691 275.927 435.487 277.703 435.468 277.876 437.158 278.651 439.244 279.424 442.425 280.603 443.055 280.953 443.148 281.593 443.277 282.489 441.868 287.32 440.634 290.214 439.524 292.814 436.004 299.419 435.587 299.683 435.41 299.794 433.75 298.965 431.896 297.841L428.524 295.798 427.642 296.887C425.664 299.326 417.145 310.726 417.145 310.932 417.145 311.055 418.331 312.361 419.779 313.834L422.413 316.513 421.511 317.486C418.779 320.432 407.637 329.538 406.774 329.53 406.583 329.528 405.316 327.933 403.96 325.986 402.602 324.039 401.361 322.445 401.2 322.445 401.04 322.445 399.896 323.134 398.66 323.974 396.051 325.75 391.525 327.976 387.296 329.566 385.664 330.179 384.296 330.695 384.257 330.714 384.219 330.732 384.622 332.634 385.154 334.943 385.686 337.25 386.015 339.245 385.885 339.375 385.511 339.747 378.375 341.598 375.092 342.175 371.697 342.772 363.992 343.239 363.649 342.868 363.523 342.732 363.508 340.815 363.617 338.609 363.73 336.299 363.687 334.594 363.517 334.592 363.152 334.585 353.333 333.71 349.695 333.359 348.244 333.219 346.839 333.098 346.571 333.091 346.195 333.08 345.959 334.059 345.531 337.404 345.225 339.784 344.894 341.816 344.792 341.92 344.115 342.612 325.437 336.889 325.459 335.996 325.461 335.875 326.13 333.893 326.947 331.591 327.763 329.288 328.391 327.382 328.343 327.355 326.39 326.225 314.082 319.32 313.323 318.927 312.728 318.619 312.093 318.461 311.912 318.576 311.732 318.689 310.694 320.139 309.605 321.796 308.516 323.452 307.412 324.809 307.15 324.809 306.458 324.809 301.587 320.415 296.021 314.772 292.093 310.787 291.236 309.754 291.545 309.372 291.756 309.112 293.24 307.98 294.843 306.858 296.446 305.734 297.837 304.682 297.935 304.521 298.115 304.223 288.14 288.579 287.521 288.187 287.336 288.07 285.633 288.804 283.737 289.818 281.256 291.144 280.202 291.552 279.98 291.275 279.483 290.654 277.375 284.925 276.458 281.705 275.491 278.309 274.744 274.855 274.461 272.484L274.266 270.845 276.029 270.342C276.999 270.065 278.684 269.652 279.772 269.424 280.861 269.195 281.901 268.893 282.085 268.751 282.31 268.579 282.294 266.807 282.034 263.323 281.822 260.478 281.545 256.366 281.416 254.185L281.183 250.219 277.592 250.219 274 250.219 274 248.744C274 246.118 275.607 237.423 276.892 233.092L277.419 231.319 278.925 231.344C279.753 231.358 281.247 231.493 282.246 231.644 284.397 231.971 284.444 231.934 285.691 228.957 286.195 227.75 287.639 224.523 288.9 221.785 290.16 219.048 291.114 216.68 291.019 216.523 290.924 216.367 289.796 215.517 288.51 214.635 286.469 213.232 286.226 212.96 286.592 212.472 289.317 208.823 296.474 201.396 296.824 201.802L296.844 201.845 296.465 199.935C295.869 195.446 297.26 188.641 299.739 183.903 300.042 183.325 300.263 182.934 300.402 182.74L300.516 182.754 300.015 184.146C299.343 186.125 298.734 188.194 298.452 189.866L298.355 190.799 298.337 190.874 298.28 191.519 297.969 194.492 297.975 194.966 297.916 195.635 298.011 197.827 298.031 199.497 298.106 200.045 298.127 200.515 298.302 201.475 298.718 204.514C299.059 206.147 299.518 207.722 300.107 209.177 300.907 211.149 301.995 213.072 303.196 214.831L303.833 215.624 304.255 216.197C304.599 216.634 304.995 217.11 305.421 217.606L305.469 217.657 306.956 219.506C308.416 221.051 311.228 223.639 311.869 224.038 312.345 224.336 312.368 224.34 312.541 224.126L312.534 224.1 312.585 224.069C312.602 223.957 312.548 223.788 312.419 223.557L312.359 223.472 312.334 223.381C312.078 222.982 311.62 222.405 310.908 221.571L309.969 220.416 308.185 218.095 307.246 216.776C306.229 215.23 305.367 213.662 304.516 211.851L302.418 206.331 302.309 205.873 301.291 200.876C301.134 199.316 301.134 193.857 301.291 191.877 301.438 190.02 301.692 188.715 302.335 186.507 303.617 182.115 305.055 178.715 307.165 175.092 308.017 173.63 308.738 172.283 309.34 171.014L309.7 170.128 309.871 169.796 310.017 169.342 310.803 167.404 311.312 165.328 311.465 164.853 311.487 164.612 311.627 164.037C311.804 162.93 311.887 161.828 311.887 160.691L311.875 160.375 311.902 160.08 311.846 159.662 311.786 158.161C311.715 157.383 311.602 156.652 311.435 155.918L311.277 155.384 311.248 155.164 310.951 154.279 310.765 153.657 310.624 153.311 310.585 153.196 310.412 152.794 309.709 151.076C309.362 150.302 309.023 149.595 308.702 148.974L308.34 148.329 308.279 148.206 308.191 148.064 307.804 147.375 307.54 147.015 307.311 146.645 307.173 146.513 307.073 146.377 306.96 146.308 306.75 146.107 306.626 146.108 306.571 146.075 306.566 146.108 306.442 146.108C306.383 146.196 306.37 146.367 306.404 146.621L306.465 146.868 306.454 146.954 306.599 147.406 306.653 147.622 306.689 147.685 306.792 148.006 307.169 148.928 307.147 148.884C306.85 148.451 306.217 147.786 305.911 147.391 305.502 146.866 304.981 146.133 304.751 145.762 304.522 145.393 304.041 144.634 303.682 144.078 303.323 143.521 303.237 142.296 303.249 142.061 303.252 142.002 303.305 141.982 303.443 142.018Z" fill="#FFFFFF" fill-rule="evenodd"/><path d="M76.7388 231.972 77.6136 233.67C86.081 251.231 86.8565 272.445 82.0342 288.048 80.0738 294.372 74.1083 305.306 68.8985 312.126 65.7877 316.198 61.1897 323.089 58.0199 328.429 57.0601 330.046 54.3415 336.269 54.0707 337.469 53.766 338.818 52.8162 339.066 52.3975 337.905 52.2458 337.485 52.0188 335.571 51.8932 333.651 51.5304 328.109 53.7184 313.919 55.7218 308.822 57.1603 305.162 62.5883 294.533 64.7219 291.197 66.5635 287.895 68.4953 284.169 69.8772 281.284 72.3593 276.091 75.0815 269.433 75.9959 264.711 76.3113 263.083 76.5371 260.326 76.8107 259.247 77.3832 256.986 77.5773 237.631 77.0621 234.154ZM61.5746 208.678C62.1359 209.305 65.3444 218.958 66.3893 223.635 68.1206 233.761 68.0779 241.948 65.7042 252.264 63.9336 259.931 61.6471 265.962 56.8529 275.611 52.1931 284.99 48.1567 293.83 46.8909 297.43 46.3845 298.87 45.6002 301.07 45.148 302.317 43.3987 307.146 42.6945 314.945 43.6013 319.447 44.1602 322.221 43.978 322.897 42.9618 321.817 41.9038 320.694 38.709 313.336 37.7736 309.869 37.1523 307.567 34.8905 301.853 36.1392 295.538L37.1544 291.13 38.6914 287.085C39.55 284.824 40.7042 282.244 41.1083 281.284 41.5123 280.324 41.9806 279.047 42.1491 278.448 42.4624 277.332 44.4691 272.735 49.1991 262.301 55.022 249.456 58.6425 240.045 60.0218 234.168 61.7093 228.804 61.7297 222.766 61.7608 218.138 61.787 213.17 61.4244 208.51 61.5746 208.678ZM32.9388 142.006C33.8133 142.312 38.461 151.701 42.501 161.059 47.7094 173.123 49.863 179.265 53.0587 191.17 54.7285 199.198 55.2669 206.493 53.4512 214.08 51.7985 220.888 49.0503 228.295 44.4402 238.365 38.57 251.188 33.9413 261.74 32.4105 265.792 29.2854 274.062 26.6098 283.707 25.4693 290.814 22.9829 306.306 26.6601 322.781 36.0322 338.138 37.2455 340.127 38.2382 342.041 38.2382 342.393 38.2382 343.524 36.4987 343.078 32.9114 341.028 23.8955 335.875 14.7913 326.901 9.91507 318.36 7.48628 314.106 5.10899 308.821 3.48066 304.058L1.96078 299.612 0.618245 293.207 0 286.802C0.00183942 280.261 0.658472 276.449 1.32518 273.668 1.99185 270.886 2.37853 269.289 2.71035 268.41 3.11834 267.33 3.61502 265.759 3.81432 264.919 4.54041 261.858 11.1634 244.182 15.3418 234.154 16.0421 232.474 17.054 229.86 17.5906 228.346 18.1275 226.831 18.8566 224.995 19.211 224.266 20.2628 222.101 27.8838 201.934 30.2339 195.097 32.3328 188.991 34.6348 181.159 35.9502 175.649 37.0087 171.215 37.4707 163.396 37.0069 157.765 36.2732 151.707 31.8742 141.711 32.9388 142.006Z" fill="#FFFFFF" fill-rule="evenodd"/></g></svg>