<svg width="720" height="720" xmlns="http://www.w3.org/2000/svg" xmlns:xlink="http://www.w3.org/1999/xlink" overflow="hidden"><defs><clipPath id="clip0"><rect x="0" y="0" width="720" height="720"/></clipPath></defs><g clip-path="url(#clip0)"><rect x="0" y="0" width="720" height="720" fill="#000000" fill-opacity="0"/><path d="M338.873 477.052C338.836 465.146 348.112 455.395 359.807 455.128 371.639 454.851 381.675 464.995 381.6 477.09 381.512 488.845 371.804 498.57 360.16 498.595 348.454 498.621 338.924 488.958 338.873 477.052M360.503 382.486C366.691 375.652 372.247 370.047 377.145 363.911 381.005 359.104 384.321 359.803 388.713 362.959 405.254 374.941 412.416 391.057 410.607 411.283 410.43 412.866 409.797 414.986 408.633 415.822 405.355 418.243 388.636 415.847 385.586 412.804L359.882 387.076C352.795 394.304 345.556 400.238 340.151 407.53 332.09 418.37 321.725 416.874 310.979 415.847 306.614 393.911 315.054 373.801 332.798 362.363 336.696 359.84 339.278 359.815 342.455 363.455 347.644 369.388 353.314 374.941 360.503 382.486M709.602 75.1661 562.971 333.187 562.971 75.1661 709.602 75.1661ZM157.59 75.0652 157.59 333.605 10.7061 75.0652 157.59 75.0652ZM318.232 75.0384 168.247 333.314 168.247 75.0384 318.232 75.0384ZM552.72 331.665C552.265 331.805 551.822 331.957 551.365 332.097L402.394 75.4946 552.72 75.4946 552.72 331.665ZM160.805 403.395 160.805 416.176 135.645 416.176 135.645 437.656 160.982 437.656 160.982 466.617 181.877 466.617 181.877 437.91 190.585 437.91 342.911 437.758C349.074 437.732 353.099 439.443 355.617 445.745 345.126 448.561 335.861 453.721 332.217 464.271 330.09 470.497 329.191 477.927 330.368 484.343 332.95 498.507 347.176 508.663 361.135 507.967 376.259 507.192 388.89 495.755 390.965 480.957 393.155 465.12 383.624 452.2 364.552 445.607 366.817 441.092 369.235 437.783 375.196 437.796L532.876 437.922C534.128 437.922 535.394 438.113 537.925 438.289 537.925 445.354 538.292 452.427 537.824 459.427 537.418 465.501 539.482 467.784 545.57 467.149 549.809 466.719 554.112 467.06 559.199 467.06L559.199 438.012 585.131 438.012 585.131 416.684 560.061 416.684 560.061 403.649C573.792 402.864 583.018 395.661 584.828 381.713 586.777 366.573 579.145 355.897 565.287 348.746 566.654 346.083 567.805 343.635 569.135 341.314L714.057 86.8313C720.814 75.0896 721.461 64.1714 717.753 51.9362 708.109 20.1234 681.722 0.366756 645.727 0.0621199L466.634 0.0621199C429.527 0.417943 402.242 21.3772 393.192 54.4464 390.193 65.453 390.839 75.0652 397.039 85.6008 446.866 170.442 496.046 255.649 545.418 340.744 546.822 343.166 548.126 345.626 549.771 348.567 534.862 352.956 526.067 362.846 522.447 379.494 525.814 375.943 527.813 373.166 530.42 371.151 534.988 367.625 539.57 363.72 544.797 361.487 552.909 357.988 561.579 361.552 565.034 368.588 568.452 375.538 566.148 386.481 559.453 390.487 556.377 392.288 551.822 392.44 548.1 391.983 545.051 391.616 542.24 389.258 538.266 387.203L538.266 415.872 419.909 415.872C422.326 393.315 416.276 374.093 399.128 359.244 387.648 349.303 374.044 344.599 359.034 344.891 325.977 345.5 295.261 374.397 300.362 415.708L182.155 415.708 182.155 387.343C179.638 388.611 178.131 389.258 176.738 390.094 170.791 393.734 164.943 394.9 159.324 389.434 153.706 383.996 152.073 373.826 155.819 367.536 159.337 361.667 167.222 357.811 173.626 360.993 182.029 365.14 189.471 371.201 196.899 376.146 194.317 362.617 185.231 353.335 170.448 348.415L210.138 280.033C247.902 214.987 285.415 149.837 323.611 85.069 329.343 75.3048 330.09 66.2909 327.483 56.0446 318.8 21.7703 291.034 0.291218 253.054 0.012424L75.479 0C37.1321 0.227607 9.54196 21.7961 1.25295 56.97-0.962777 66.3406-0.494037 74.862 4.73303 83.9658 53.7875 169.515 102.348 255.383 151.022 341.15 152.275 343.369 153.515 345.613 155.021 348.314 140.504 356.657 131.634 368.297 136.455 385.783 139.607 397.296 148.036 403.32 160.805 403.395" fill="#FFFFFF" fill-rule="evenodd" transform="matrix(1 0 0 -1 0 614)"/></g></svg>