<svg width="720" height="720" xmlns="http://www.w3.org/2000/svg" xmlns:xlink="http://www.w3.org/1999/xlink" overflow="hidden"><defs><clipPath id="clip0"><rect x="0" y="0" width="720" height="720"/></clipPath></defs><g clip-path="url(#clip0)"><rect x="0" y="0" width="720" height="720" fill="#000000" fill-opacity="0"/><path d="M189.675 266.704C189.654 260.048 194.846 254.597 201.392 254.448 208.014 254.293 213.632 259.964 213.59 266.725 213.541 273.297 208.107 278.734 201.589 278.748 195.037 278.762 189.703 273.36 189.675 266.704M201.781 213.837C205.245 210.016 208.355 206.883 211.096 203.452 213.257 200.765 215.113 201.156 217.571 202.92 226.829 209.619 230.838 218.628 229.826 229.936 229.727 230.821 229.372 232.006 228.721 232.473 226.886 233.827 217.528 232.487 215.821 230.786L201.434 216.403C197.467 220.444 193.415 223.761 190.39 227.838 185.878 233.898 180.076 233.061 174.062 232.487 171.618 220.224 176.343 208.981 186.274 202.587 188.456 201.176 189.901 201.162 191.679 203.197 194.584 206.514 197.757 209.619 201.781 213.837M397.18 42.0282 315.107 186.276 315.107 42.0282 397.18 42.0282ZM88.2064 41.9718 88.2064 186.51 5.99223 41.9718 88.2064 41.9718ZM178.121 41.9568 94.1714 186.347 94.1714 41.9568 178.121 41.9568ZM309.369 185.425C309.115 185.503 308.867 185.588 308.611 185.667L225.229 42.2118 309.369 42.2118 309.369 185.425ZM90.0059 225.526 90.0059 232.671 75.9233 232.671 75.9233 244.68 90.105 244.68 90.105 260.871 101.8 260.871 101.8 244.822 106.674 244.822 191.935 244.737C195.384 244.722 197.637 245.679 199.047 249.202 193.175 250.776 187.989 253.661 185.949 259.559 184.759 263.04 184.255 267.193 184.914 270.78 186.359 278.699 194.322 284.376 202.135 283.987 210.6 283.554 217.67 277.16 218.832 268.887 220.057 260.034 214.723 252.811 204.048 249.125 205.315 246.601 206.669 244.751 210.005 244.758L298.262 244.828C298.963 244.828 299.672 244.935 301.088 245.034 301.088 248.983 301.294 252.938 301.032 256.851 300.805 260.247 301.96 261.523 305.367 261.168 307.74 260.928 310.149 261.118 312.996 261.118L312.996 244.879 327.511 244.879 327.511 232.955 313.478 232.955 313.478 225.668C321.164 225.229 326.328 221.202 327.341 213.405 328.432 204.94 324.16 198.972 316.404 194.974 317.169 193.485 317.813 192.117 318.557 190.819L399.673 48.5496C403.455 41.9854 403.818 35.8815 401.742 29.0414 396.344 11.2563 381.575 0.211237 361.428 0.040968L261.185 0.040968C240.416 0.23988 225.144 11.9572 220.078 30.4447 218.4 36.598 218.761 41.9718 222.231 47.8617 250.121 95.2926 277.648 142.928 305.282 190.501 306.068 191.855 306.798 193.23 307.719 194.874 299.374 197.328 294.451 202.857 292.425 212.164 294.31 210.179 295.428 208.626 296.888 207.5 299.444 205.529 302.009 203.345 304.935 202.097 309.475 200.141 314.328 202.133 316.262 206.067 318.175 209.952 316.885 216.07 313.138 218.31 311.416 219.317 308.867 219.402 306.784 219.146 305.077 218.941 303.504 217.623 301.279 216.474L301.279 232.501 235.032 232.501C236.385 219.891 232.999 209.145 223.401 200.843 216.975 195.286 209.361 192.656 200.959 192.819 182.456 193.16 165.264 209.315 168.119 232.41L101.956 232.41 101.956 216.552C100.547 217.261 99.7037 217.623 98.924 218.09 95.5953 220.125 92.322 220.777 89.177 217.721 86.0325 214.681 85.1184 208.995 87.2151 205.479 89.1842 202.198 93.5977 200.042 97.1821 201.821 101.885 204.139 106.051 207.528 110.209 210.292 108.763 202.729 103.678 197.54 95.4033 194.789L117.619 156.56C138.756 120.196 159.753 83.7733 181.132 47.5644 184.34 42.1057 184.759 37.0665 183.299 31.3382 178.439 12.177 162.898 0.169037 141.64 0.0131473L42.2471 0.0062215C20.7834 0.133469 5.3406 12.1914 0.701107 31.8555-0.539096 37.0942-0.276776 41.8582 2.64894 46.9477 30.1058 94.7743 57.2862 142.779 84.5302 190.728 85.2315 191.968 85.9256 193.223 86.7685 194.733 78.643 199.397 73.6783 205.904 76.3767 215.68 78.1409 222.116 82.8588 225.484 90.0059 225.526" fill="#FFFFFF" fill-rule="evenodd" transform="matrix(1 0 0 -1 0 502)"/><path d="M0.0101559 0.273294C42.1083 94.8516 84.2063 189.43 126.305 284.008 126.442 284.004 126.579 283.999 126.716 283.992 168.815 189.415 210.913 94.8361 253.01 0.257735 252.93 0.174536 252.846 0.0913366 252.762 0.00839802 252.375 0.243803 251.973 0.463909 251.596 0.716957 242.581 6.75514 233.575 12.8067 224.554 18.8357 212.352 26.9909 200.132 35.1189 187.932 43.2771 174.049 52.5624 160.176 61.8642 146.304 71.1662 140.021 75.3784 133.729 79.5752 127.5 83.8655 126.434 84.6003 125.856 84.036 125.138 83.5542 116.054 77.4594 106.983 71.3441 97.8918 65.2567 85.1364 56.7151 72.3661 48.1948 59.6051 39.66 42.8022 28.4219 26.0026 17.1799 9.20214 5.93786 6.25795 3.96758 3.31859 1.99027 0.376747 0.0162752 0.25442 0.101883 0.132288 0.187686 0.0101559 0.273294" fill="#FFFFFF" fill-rule="evenodd" transform="matrix(1 0 0 -1 467 502)"/></g></svg>