<svg width="720" height="720" xmlns="http://www.w3.org/2000/svg" xmlns:xlink="http://www.w3.org/1999/xlink" overflow="hidden"><defs><clipPath id="clip0"><rect x="0" y="0" width="720" height="720"/></clipPath></defs><g clip-path="url(#clip0)"><rect x="0" y="0" width="720" height="720" fill="#000000" fill-opacity="0"/><path d="M252.046 349.734 252.046 282.723C252.046 266.124 265.468 252.662 282.033 252.662L312.604 252.662 312.604 349.734ZM156.294 443.204 145.371 439.962C116.536 428.587 96.1114 400.492 96.1114 367.638L96.1114 327.867 96.1114 197.207C97.1437 166.725 126.861 124.252 203.983 95.6167 271.468 120.681 302.653 156.324 310.09 185.26L311.212 192.944 206.123 192.944C178.605 192.944 156.294 215.306 156.294 242.891L156.294 327.867ZM0 445.35 156.294 445.35 173.892 445.35 251.657 445.35 338.879 445.35 407.966 445.35 407.966 194.805C406.02 136.349 349.833 54.9148 203.983 0 58.1334 54.9148 1.94544 136.349 0 194.805ZM0 580 95.0322 580 95.0322 484.774 0 484.774ZM156.484 580 251.516 580 251.516 484.774 156.484 484.774ZM312.968 580 408 580 408 484.774 312.968 484.774Z" fill="#FFFFFF" fill-rule="evenodd" transform="matrix(1 0 0 -1 156 650)"/></g></svg>