<svg width="720" height="720" xmlns="http://www.w3.org/2000/svg" xmlns:xlink="http://www.w3.org/1999/xlink" overflow="hidden"><g><rect x="0" y="0" width="720" height="720" fill="#000000" fill-opacity="0"/><path d="M630.308 311.288C622.383 333.18 614.459 355.071 606.534 376.962 622.544 376.962 638.553 376.962 654.562 376.962 646.478 355.071 638.393 333.18 630.308 311.288ZM418.661 299.94C418.661 339.014 418.661 378.089 418.661 417.165 427.506 417.165 436.351 417.165 445.196 417.165 455.121 417.165 462.285 416.6 466.688 415.474 472.452 414.024 477.234 411.57 481.036 408.109 484.838 404.649 487.942 398.954 490.342 391.027 492.744 383.099 493.944 372.294 493.944 358.612 493.944 344.93 492.744 334.427 490.342 327.103 487.942 319.779 484.579 314.065 480.257 309.96 475.933 305.856 470.451 303.079 463.807 301.63 458.844 300.503 449.118 299.94 434.63 299.94 429.307 299.94 423.985 299.94 418.661 299.94ZM611.937 270C624.465 270 636.992 270 649.519 270 673.013 328.994 696.507 387.989 720 446.983 707.112 446.983 694.225 446.983 681.338 446.983 676.215 433.582 671.091 420.181 665.968 406.782 642.515 406.782 619.062 406.782 595.607 406.782 590.766 420.181 585.923 433.582 581.08 446.983 568.513 446.983 555.945 446.983 543.378 446.983 566.231 387.989 589.085 328.994 611.937 270ZM383.121 270C404.773 270 426.426 270 448.078 270 462.725 270 473.892 271.127 481.577 273.381 491.903 276.439 500.748 281.871 508.112 289.679 515.476 297.486 521.079 307.042 524.922 318.351 528.765 329.659 530.685 343.602 530.685 360.181 530.685 374.749 528.884 387.304 525.282 397.848 520.879 410.726 514.596 421.148 506.431 429.116 500.267 435.151 491.944 439.86 481.457 443.241 473.613 445.734 463.127 446.983 449.999 446.983 427.705 446.983 405.413 446.983 383.121 446.983 383.121 387.989 383.121 328.994 383.121 270ZM204.972 270C216.818 270 228.665 270 240.512 270 240.512 301.952 240.512 333.904 240.512 365.856 240.512 381.067 240.953 390.927 241.834 395.433 243.354 402.677 246.975 408.492 252.7 412.878 258.423 417.265 266.247 419.458 276.174 419.458 286.26 419.458 293.864 417.386 298.987 413.241 304.11 409.096 307.191 404.004 308.232 397.969 309.273 391.932 309.793 381.912 309.793 367.908 309.793 335.272 309.793 302.637 309.793 270 321.639 270 333.486 270 345.333 270 345.333 300.987 345.333 331.972 345.333 362.959 345.333 384.206 344.372 399.216 342.451 407.989 340.531 416.761 336.989 424.166 331.826 430.202 326.663 436.239 319.759 441.048 311.113 444.629 302.469 448.21 291.182 450 277.254 450 260.444 450 247.697 448.049 239.012 444.146 230.327 440.242 223.464 435.171 218.42 428.935 213.378 422.697 210.056 416.158 208.454 409.316 206.133 399.176 204.972 384.206 204.972 364.407 204.972 332.938 204.972 301.469 204.972 270ZM0 270C17.7304 270 35.4603 270 53.1908 270 63.8367 310.242 74.4833 350.483 85.1294 390.724 95.6546 350.483 106.181 310.242 116.708 270 134.477 270 152.248 270 170.017 270 170.017 328.994 170.017 387.989 170.017 446.983 159.011 446.983 148.005 446.983 136.999 446.983 136.999 400.545 136.999 354.106 136.999 307.667 125.352 354.106 113.706 400.545 102.058 446.983 90.6524 446.983 79.2453 446.983 67.8389 446.983 56.2324 400.545 44.6258 354.106 33.019 307.667 33.019 354.106 33.019 400.545 33.019 446.983 22.0128 446.983 11.0063 446.983 0 446.983 0 387.989 0 328.994 0 270Z" fill="#FFFFFF" fill-rule="evenodd"/></g></svg>