<svg width="720" height="720" xmlns="http://www.w3.org/2000/svg" xmlns:xlink="http://www.w3.org/1999/xlink" overflow="hidden"><g><rect x="0" y="0" width="720" height="720" fill="#000000" fill-opacity="0"/><path d="M0 273 0 350 23.4557 350 23.4557 329.24 35.8616 329.24C56.2738 329.24 68.0001 318.695 68.0001 300.352 68.0001 282.885 56.2708 273 35.8616 273ZM23.4557 294.521 34.4196 294.521C39.1008 294.521 42.9004 298.258 42.9004 302.871 42.9004 307.484 39.1039 311.221 34.4196 311.221 34.4196 311.221 34.4196 311.221 34.4196 311.221L23.4557 311.221Z" fill="#FFFFFF" fill-rule="evenodd"/><path d="M84 273 84 350 148 350 148 330.076 108.22 330.076 108.22 320.276 145.326 320.276 145.326 302.726 108.22 302.726 108.22 292.92 148 292.92 148 273Z" fill="#FFFFFF" fill-rule="evenodd"/><path d="M166 273 166 350 191.327 350 191.327 329.24 196.839 329.24 208.689 350 240 350 223.76 324.846C232.452 320.122 237.255 311.776 237.255 300.352 237.255 282.885 224.901 273 203.399 273ZM191.327 294.521 203.066 294.521C208.082 294.521 212.15 298.258 212.15 302.871 212.15 302.871 212.15 302.871 212.15 302.871 212.15 307.484 208.085 311.221 203.069 311.221 203.066 311.221 203.066 311.221 203.066 311.221L191.327 311.221Z" fill="#FFFFFF" fill-rule="evenodd"/><path d="M279 350 279 273 254 273 254 350Z" fill="#FFFFFF" fill-rule="evenodd"/><path d="M343.538 350 376 350 348.705 306.24 375.707 273 345.81 273 321.629 302.657 321.629 273 297 273 297 350 321.629 350 321.629 333.221 328.254 325.491Z" fill="#FFFFFF" fill-rule="evenodd"/><path d="M541 294.657 541 273 469 273 469 294.657 492.728 294.657 492.728 350 517.156 350 517.156 294.657Z" fill="#FFFFFF" fill-rule="evenodd"/><path d="M695.158 273 695.158 308.707 666.747 273 643 273 643 350 667.76 350 667.76 314.2 696.244 349.999 720 349.999 719.926 273Z" fill="#FFFFFF" fill-rule="evenodd"/><path d="M249.526 369.001C228.855 369.001 213.839 378.972 213.839 393.859 213.839 400.271 216.084 404.754 219.557 408 232.5 419.378 259.572 417.857 255.261 425.386 252.137 430.835 224.08 418.75 224.08 418.75L211 435.455C219.981 440.858 234.68 447 247.313 447 267.983 447 283 437.03 283 422.142 283 415.729 280.755 411.245 277.281 408 264.339 396.621 237.267 398.144 241.586 390.616 244.71 385.166 269.203 396.036 269.203 396.036L282.772 378.701C273.8 373.297 262.159 369 249.526 369Z" fill="#FFFFFF" fill-rule="evenodd"/><path d="M383.5 369C359.598 369 342 385.341 342 407.782 342 430.332 359.598 447 383.5 447 407.403 447 425 430.224 425 407.782 425 385.45 407.403 369 383.5 369ZM383.5 390.827C392.477 390.827 399.754 398.516 399.754 408.001 399.754 417.485 392.477 425.175 383.5 425.175 374.524 425.175 367.247 417.485 367.247 408.001 367.247 398.516 374.524 390.827 383.5 390.827Z" fill="#FFFFFF" fill-rule="evenodd"/><path d="M660.274 425.151 660.274 369 635 369 635 446 696 446 696 425.154Z" fill="#FFFFFF" fill-rule="evenodd"/><path d="M410.735 273 379 350 406.911 350 410.922 340.306 438.079 340.306 442.098 350 470 350 438.265 273 424.5 273 424.5 306.455 430.512 321.948 418.489 321.948 424.5 306.455 424.5 273Z" fill="#FFFFFF" fill-rule="evenodd"/><path d="M571.082 273 539 350 567.212 350 571.274 340.306 598.727 340.306 602.789 350 631 350 598.919 273 585 273 585 306.453 591.08 321.946 578.926 321.946 585 306.453 585 273Z" fill="#FFFFFF" fill-rule="evenodd"/><path d="M78.2106 369 78.2106 404.756 49.776 369.092 26 369.092 26 446 50.7924 446 50.7924 410.243 79.227 445.907 103 445.907 103 369Z" fill="#FFFFFF" fill-rule="evenodd"/><path d="M146.733 369 115 446 142.905 446 146.922 436.306 174.077 436.306 178.095 446 206 446 174.267 369 160.5 369 160.5 402.452 166.514 417.946 154.492 417.946 160.5 402.452 160.5 369Z" fill="#FFFFFF" fill-rule="evenodd"/><path d="M325 446 325 369 300 369 300 446Z" fill="#FFFFFF" fill-rule="evenodd"/><path d="M494.16 369 494.16 404.706 465.753 369 442 369 442 446 466.768 446 466.768 410.201 495.247 446 519 446 518.926 369Z" fill="#FFFFFF" fill-rule="evenodd"/><path d="M562.733 369 531 446 558.905 446 562.922 436.306 590.074 436.306 594.095 446 622 446 590.267 369 576.5 369 576.5 402.452 582.514 417.946 570.492 417.946 576.5 402.452 576.5 369Z" fill="#FFFFFF" fill-rule="evenodd"/></g></svg>