<svg width="720" height="720" xmlns="http://www.w3.org/2000/svg" xmlns:xlink="http://www.w3.org/1999/xlink" overflow="hidden"><defs><clipPath id="clip0"><rect x="0" y="0" width="720" height="720"/></clipPath></defs><g clip-path="url(#clip0)"><rect x="0" y="0" width="720" height="720" fill="#000000" fill-opacity="0"/><path d="M0 426.169C86.0092 403.449 144.918 312.815 166.306 273.88 178.165 252.29 265.807 279.383 282.539 259.237 289.769 250.533 284.734 235.129 377.332 262.75 393.448 248.165 397.759 225.789 414.233 223.218 438.153 219.486 455.61 265.042 481.773 249.409 525.485 223.29 600.472 385.801 646.95 371.473 665.739 365.681 676.887 409.826 720 442 691.096 433.036 676.586 400.155 651.633 378.81 604.215 401.803 510.315 249.932 489.059 262.082 449.717 284.573 432.685 238.141 414.128 241.019 404.532 255.767 388.726 281.769 377.719 279.352 358.586 275.152 332.186 263.387 298.805 263.698 277.913 301.427 184.491 269.656 177.429 281.217 156.103 314.434 102.111 404.699 0 426.169Z" fill="#FFFFFF" fill-rule="evenodd"/><path d="M371.619 368.135C371.619 378.672 371.619 389.209 371.619 399.745 374.607 399.745 377.596 399.745 380.585 399.745 389.685 399.745 395.95 398.52 399.38 396.069 402.81 393.619 404.525 389.559 404.525 383.888 404.525 380.528 403.676 377.605 401.978 375.12 400.28 372.634 398.005 370.849 395.153 369.763 392.3 368.678 387.071 368.135 379.464 368.135 376.849 368.135 374.234 368.135 371.619 368.135ZM343.005 339.561C353.11 339.561 363.216 339.561 373.321 339.561 389.925 339.561 401.749 341.079 408.792 344.114 415.836 347.149 421.501 352.191 425.788 359.239 430.076 366.286 432.219 374.625 432.219 384.254 432.219 394.372 429.852 402.833 425.118 409.636 420.383 416.44 413.248 421.586 403.711 425.075 415.581 447.892 427.451 470.71 439.322 493.528 428.895 493.528 418.468 493.528 408.041 493.528 396.773 471.792 385.505 450.055 374.238 428.319 373.365 428.319 372.492 428.319 371.619 428.319 371.619 450.055 371.619 471.792 371.619 493.528 362.081 493.528 352.543 493.528 343.005 493.528 343.005 442.205 343.005 390.883 343.005 339.561ZM498.216 335.688C505.72 335.688 512.865 337.468 519.652 341.026 526.439 344.585 533.788 351.074 541.701 360.495 534.637 366.879 527.573 373.264 520.508 379.649 513.069 369.042 505.493 363.739 497.78 363.739 494.027 363.739 490.956 364.769 488.567 366.827 486.178 368.885 484.984 371.206 484.984 373.787 484.984 376.369 485.837 378.811 487.543 381.114 489.864 384.184 496.859 390.779 508.528 400.896 519.448 410.247 526.068 416.143 528.389 418.585 534.189 424.586 538.301 430.326 540.724 435.803 543.146 441.281 544.358 447.264 544.358 453.754 544.358 466.384 540.095 476.816 531.57 485.049 523.045 493.283 511.928 497.4 498.219 497.4 487.511 497.4 478.185 494.714 470.239 489.341 462.294 483.968 455.49 475.525 449.829 464.011 457.847 459.057 465.864 454.103 473.881 449.148 481.115 462.755 489.439 469.559 498.855 469.559 503.767 469.559 507.896 468.093 511.239 465.163 514.583 462.232 516.255 458.848 516.255 455.01 516.255 451.521 514.992 448.032 512.467 444.543 509.942 441.054 504.38 435.716 495.781 428.529 479.401 414.852 468.823 404.298 464.046 396.867 459.269 389.435 456.881 382.021 456.881 374.625 456.881 363.949 460.854 354.79 468.8 347.149 476.747 339.509 486.552 335.688 498.216 335.688ZM238.487 335.688C251.568 335.688 263.797 338.165 275.175 343.12 284.781 347.306 294.183 354.494 303.38 364.681 296.663 371.485 289.947 378.288 283.23 385.092 270.48 371.275 255.615 364.367 238.636 364.367 223.838 364.367 211.445 369.391 201.455 379.44 191.466 389.488 186.471 401.699 186.471 416.073 186.471 430.936 191.655 443.531 202.021 453.858 212.388 464.186 225.176 469.349 240.384 469.349 250.274 469.349 258.611 467.221 265.398 462.965 272.184 458.708 277.657 452.044 281.817 442.973 267.306 442.973 252.794 442.973 238.283 442.973 238.283 433.797 238.283 424.621 238.283 415.445 263.491 415.445 288.698 415.445 313.906 415.445 313.974 417.608 314.042 419.772 314.11 421.935 314.11 435.402 310.704 448.171 303.891 460.243 297.078 472.315 288.255 481.526 277.423 487.876 266.591 494.225 253.884 497.4 239.305 497.4 223.704 497.4 209.788 493.929 197.559 486.986 185.33 480.043 175.656 470.152 168.536 457.312 163.197 447.683 159.859 437.484 158.525 426.717 158.302 423.064 158.08 419.412 157.857 415.759 157.857 415.759 157.857 415.759 157.857 415.759 158.268 410.831 158.679 405.903 159.09 400.975 161.555 386.688 167.719 373.892 177.58 362.588 193.182 344.655 213.484 335.688 238.487 335.688Z" fill="#FFFFFF" fill-rule="evenodd"/><text fill="#000000" fill-opacity="0" font-family="Arial,Arial_MSFontService,sans-serif" font-size="161.712" x="157.857" y="477.186">GRS</text></g></svg>