<svg width="720" height="720" xmlns="http://www.w3.org/2000/svg" xmlns:xlink="http://www.w3.org/1999/xlink" overflow="hidden"><g><rect x="0" y="0" width="720" height="720" fill="#000000" fill-opacity="0"/><path d="M0 437 0 514 23.4557 514 23.4557 493.24 35.8616 493.24C56.2738 493.24 68.0001 482.695 68.0001 464.352 68.0001 446.885 56.2708 437 35.8616 437ZM23.4557 458.521 34.4196 458.521C39.1008 458.521 42.9004 462.258 42.9004 466.871 42.9004 471.484 39.1039 475.221 34.4196 475.221 34.4196 475.221 34.4196 475.221 34.4196 475.221L23.4557 475.221Z" fill="#FFFFFF" fill-rule="evenodd"/><path d="M84 437 84 514 148 514 148 494.076 108.22 494.076 108.22 484.276 145.326 484.276 145.326 466.726 108.22 466.726 108.22 456.92 148 456.92 148 437Z" fill="#FFFFFF" fill-rule="evenodd"/><path d="M166 437 166 514 191.327 514 191.327 493.24 196.839 493.24 208.689 514 240 514 223.76 488.846C232.452 484.122 237.255 475.776 237.255 464.352 237.255 446.885 224.901 437 203.399 437ZM191.327 458.521 203.066 458.521C208.082 458.521 212.15 462.258 212.15 466.871 212.15 466.871 212.15 466.871 212.15 466.871 212.15 471.484 208.085 475.221 203.069 475.221 203.066 475.221 203.066 475.221 203.066 475.221L191.327 475.221Z" fill="#FFFFFF" fill-rule="evenodd"/><path d="M279 514 279 437 254 437 254 514Z" fill="#FFFFFF" fill-rule="evenodd"/><path d="M343.538 514 376 514 348.705 470.24 375.707 437 345.81 437 321.629 466.657 321.629 437 297 437 297 514 321.629 514 321.629 497.221 328.254 489.491Z" fill="#FFFFFF" fill-rule="evenodd"/><path d="M541 458.657 541 437 469 437 469 458.657 492.728 458.657 492.728 514 517.156 514 517.156 458.657Z" fill="#FFFFFF" fill-rule="evenodd"/><path d="M695.158 437 695.158 472.707 666.747 437 643 437 643 514 667.76 514 667.76 478.2 696.244 513.999 720 513.999 719.926 437Z" fill="#FFFFFF" fill-rule="evenodd"/><path d="M249.526 533.001C228.855 533.001 213.839 542.972 213.839 557.859 213.839 564.271 216.084 568.754 219.557 572 232.5 583.378 259.572 581.857 255.261 589.386 252.137 594.835 224.08 582.75 224.08 582.75L211 599.455C219.981 604.858 234.68 611 247.313 611 267.983 611 283 601.03 283 586.142 283 579.729 280.755 575.245 277.281 572 264.339 560.621 237.267 562.144 241.586 554.616 244.71 549.166 269.203 560.036 269.203 560.036L282.772 542.701C273.8 537.297 262.159 533 249.526 533Z" fill="#FFFFFF" fill-rule="evenodd"/><path d="M383.5 533C359.598 533 342 549.341 342 571.782 342 594.332 359.598 611 383.5 611 407.403 611 425 594.224 425 571.782 425 549.45 407.403 533 383.5 533ZM383.5 554.827C392.477 554.827 399.754 562.516 399.754 572.001 399.754 581.485 392.477 589.175 383.5 589.175 374.524 589.175 367.247 581.485 367.247 572.001 367.247 562.516 374.524 554.827 383.5 554.827Z" fill="#FFFFFF" fill-rule="evenodd"/><path d="M660.274 589.151 660.274 533 635 533 635 610 696 610 696 589.154Z" fill="#FFFFFF" fill-rule="evenodd"/><path d="M410.735 437 379 514 406.911 514 410.922 504.306 438.079 504.306 442.098 514 470 514 438.265 437 424.5 437 424.5 470.455 430.512 485.948 418.489 485.948 424.5 470.455 424.5 437Z" fill="#FFFFFF" fill-rule="evenodd"/><path d="M571.082 437 539 514 567.212 514 571.274 504.306 598.727 504.306 602.789 514 631 514 598.919 437 585 437 585 470.453 591.08 485.946 578.926 485.946 585 470.453 585 437Z" fill="#FFFFFF" fill-rule="evenodd"/><path d="M78.2106 533 78.2106 568.756 49.776 533.092 26 533.092 26 610 50.7924 610 50.7924 574.243 79.227 609.907 103 609.907 103 533Z" fill="#FFFFFF" fill-rule="evenodd"/><path d="M146.733 533 115 610 142.905 610 146.922 600.306 174.077 600.306 178.095 610 206 610 174.267 533 160.5 533 160.5 566.452 166.514 581.946 154.492 581.946 160.5 566.452 160.5 533Z" fill="#FFFFFF" fill-rule="evenodd"/><path d="M325 610 325 533 300 533 300 610Z" fill="#FFFFFF" fill-rule="evenodd"/><path d="M494.16 533 494.16 568.706 465.753 533 442 533 442 610 466.768 610 466.768 574.201 495.247 610 519 610 518.926 533Z" fill="#FFFFFF" fill-rule="evenodd"/><path d="M562.733 533 531 610 558.905 610 562.922 600.306 590.074 600.306 594.095 610 622 610 590.267 533 576.5 533 576.5 566.452 582.514 581.946 570.492 581.946 576.5 566.452 576.5 533Z" fill="#FFFFFF" fill-rule="evenodd"/><path d="M224 245C224 169.889 284.889 109 360 109 435.111 109 496 169.889 496 245 496 320.111 435.111 381 360 381 284.889 381 224 320.111 224 245Z" fill="#FFFFFF" fill-rule="evenodd"/></g></svg>