<svg width="720" height="720" xmlns="http://www.w3.org/2000/svg" xmlns:xlink="http://www.w3.org/1999/xlink" overflow="hidden"><defs><clipPath id="clip0"><rect x="0" y="0" width="720" height="720"/></clipPath></defs><g clip-path="url(#clip0)"><rect x="0" y="0" width="720" height="720" fill="#000000" fill-opacity="0"/><path d="M182.471 421.235C184.575 421.235 209.531 440.414 209.106 441.697 208.26 444.217 200.594 447.039 193.635 447.393 189.734 447.59 185.834 447.493 184.954 447.174 174.595 443.372 159.481 434.607 159.481 432.407 159.481 431.662 160.079 430.586 160.815 430 162.552 428.618 180.784 421.235 182.471 421.235ZM158.661 403.254 167.038 409.635C171.637 413.143 175.39 416.358 175.377 416.761 175.352 417.177 170.904 419.548 165.485 422.03 154.663 426.98 148.574 427.763 143.033 424.878 137.421 421.969 127.662 415.417 127.65 414.561 127.638 413.644 127.858 413.571 135.892 411.701 138.973 410.979 145.356 408.791 150.077 406.823ZM140.491 388.378 146.824 393.304C150.384 396.079 152.757 398.633 152.243 399.159 151.739 399.66 147.548 401.531 142.936 403.303 134.694 406.481 123.444 407.972 117.024 406.75 109.87 405.381 81.451 394.868 82.3804 393.927 82.6738 393.634 91.9066 392.962 102.888 392.424 113.869 391.898 126.831 390.761 131.674 389.918ZM299.808 366.805C343.011 365.065 373.437 391.312 379.815 445.841L381.012 464.712C380.931 467.702 380.851 470.692 380.77 473.682 380.755 474.173 380.74 474.664 380.725 475.156L380.413 475.903C379.973 476.768 379.351 477.883 378.544 479.261 374.568 486.046 361.739 498.281 354.123 502.546 341.538 509.6 331.511 512.56 318.366 513.098 311.836 513.364 305.537 513.343 304.376 513.061 294.715 510.714 291.917 509.809 286.316 507.24 282.807 505.629 279.063 503.354 278.011 502.18 276.155 500.127 276.155 500.043 278.024 499.492 279.088 499.185 283.308 498.613 287.39 498.234 315.32 495.606 337.346 478.088 344.744 452.625 347.543 442.993 346.566 430.77 342.299 422.103 332.883 402.948 312.972 393.683 294.581 399.88 288.016 402.105 259.059 416.003 242.806 424.755L226.959 433.263 219.609 437.201 216.882 434.694C215.379 433.312 210.095 429.144 205.13 425.44 196.521 419.01 194.565 417.238 194.527 415.82 194.514 415.478 202.037 410.124 211.231 403.926L235.383 387.546C238.447 385.438 242.115 383.082 244.697 381.545L244.71 381.538 252.765 377.863C269.587 371.075 285.408 367.385 299.808 366.805ZM0.0580577 340.729C0.645039 340.534 3.92231 341.096 7.33386 341.976 18.315 344.824 57.5564 350.863 77.2201 352.721 93.117 354.224 96.6511 354.872 98.2409 356.547 99.2801 357.659 106.923 363.673 115.214 369.932 132.811 383.219 133.288 382.217 108.855 383.39 100.796 383.781 90.6225 384.27 86.2447 384.503 81.8666 384.723 76.8533 384.71 75.1045 384.478 50.4026 381.165 41.2438 377.67 26.5939 365.898 16.1385 357.5-1.12819 341.12 0.0580577 340.729ZM304.772 320.827C307.285 320.818 310.112 320.827 313.389 320.829 333.872 320.829 337.137 321.086 345.232 323.273 402.658 338.835 422.674 392.485 393.473 452.578 391.789 456.046 390.274 459.06 388.907 461.653L385.407 467.893 387.28 452.829C390.613 379.052 314.973 322.17 227.654 387.769L227.596 387.815 219.709 392.608C216.831 394.34 213.754 396.173 210.621 398.022L187.827 411.468 180.821 406.065C176.968 403.095 173.164 400.088 172.357 399.367 171.17 398.303 173.631 396.665 185.627 390.553 201.89 382.266 217.445 372.646 216.368 371.57 215.977 371.178 208.395 374.528 199.517 379.002 190.639 383.476 179.388 388.805 174.535 390.834L165.692 394.538 159.994 390.125C156.851 387.693 154.381 385.615 154.503 385.517 154.613 385.407 161.387 383.402 169.571 381.043 187.777 375.799 193.074 373.672 191.581 372.181 190.823 371.423 184.121 372.45 170.206 375.445 159.052 377.828 149.172 379.796 148.268 379.796 147.35 379.796 142.852 376.801 138.278 373.159 133.691 369.504 127.283 364.456 124.019 361.937 120.754 359.419 118.088 356.901 118.088 356.351 118.088 355.801 122.074 355.361 126.941 355.361 137.775 355.361 165.804 352.794 180.183 350.496 196.007 347.954 220.403 341.67 251.305 332.172 284.967 321.819 287.18 320.89 304.772 320.827ZM457.502 253.611C457.896 253.516 458.318 253.567 458.725 253.818 460.475 254.906 460.106 258.659 458.249 258.659 457.354 258.659 456.34 257.913 455.986 256.996 455.409 255.502 456.323 253.897 457.502 253.611ZM457.753 251.269C456.148 251.269 454.543 251.679 453.723 252.498 450.827 255.395 453.419 261.849 457.476 261.849 458.406 261.849 460.046 261.054 461.123 260.089 463.337 258.084 463.665 254.38 461.784 252.498 460.964 251.679 459.358 251.269 457.753 251.269ZM444.54 228.96C445.795 228.967 447.289 229.056 449.212 229.187 464.62 230.238 474.744 237.707 482.007 253.353 488.916 268.23 497.133 291.382 497.221 296.198 497.259 298.63 499.128 306.136 501.378 312.859 507.689 331.794 509.129 342.416 509.192 370.225 509.255 402.887 506.368 422.58 497.587 449.374 483.744 491.644 460.034 521.238 423.276 542.104 412.942 547.984 394.121 555.769 385.575 557.7 376.121 559.853 358.928 560.673 350.012 559.387 335.243 557.287 311.861 549.671 314.112 547.715 314.588 547.286 321.021 545.418 328.381 543.559 343.629 539.697 355.099 535.492 365.9 529.818 404.652 509.453 438.793 461.184 446.742 415.539 449.014 402.484 448.21 378.525 445.079 366.619 440.102 347.623 430.513 329.08 418.749 315.67 409.054 304.62 405.801 296.601 405.788 283.632 405.776 275.747 408.953 262.79 412.867 254.723 416.905 246.41 426.49 236.399 434.514 232.121 439.153 229.646 440.775 228.937 444.54 228.96ZM557.573 160.141C559.075 159.689 559.646 160.331 559.646 161.957 559.646 165.061 553.667 183.47 549.35 193.641 547.297 198.493 545.841 202.698 546.123 202.979 546.417 203.261 549.926 202.955 553.949 202.283 564.809 200.486 595.318 200.791 608.438 202.821 637.909 207.392 664.518 217.954 686.751 233.93 698.844 242.609 714.938 256.055 717.677 259.771L720 262.913 717.568 262.913C716.234 262.913 710.84 261.226 705.594 259.16 686.272 251.545 665.814 248.037 640.858 248.037 609.662 248.037 581.219 254.185 549.312 267.827 534.575 274.125 515.606 283.909 505.578 290.1L504.049 291.103 503.3 287.658C500.445 277.785 494.122 260.891 488.586 248.97 480.826 232.253 470.009 224.273 453.547 223.15 449.438 222.87 447.164 222.772 445.092 223.185L442.849 223.925 443.771 220.936C446.106 211.353 464.263 178.019 468.593 175.366 469.998 174.498 471.933 175.024 477.154 177.713 480.87 179.62 487.792 181.979 492.538 182.957 500.962 184.705 501.403 184.693 511.565 182.382 523.78 179.62 539.934 172.249 549.914 164.89 553.637 162.14 556.071 160.593 557.573 160.141Z" fill="#FFFFFF" fill-rule="evenodd"/></g></svg>