<svg width="720" height="720" xmlns="http://www.w3.org/2000/svg" xmlns:xlink="http://www.w3.org/1999/xlink" overflow="hidden"><defs><clipPath id="clip0"><rect x="0" y="0" width="720" height="720"/></clipPath></defs><g clip-path="url(#clip0)"><rect x="0" y="0" width="720" height="720" fill="#000000" fill-opacity="0"/><path d="M128.68 313.24C128.68 322.243 128.68 331.245 128.68 340.248 135.532 340.248 142.383 340.248 149.234 340.248 155.107 340.248 159.539 339.136 162.531 336.913 165.523 334.689 167.019 331.408 167.019 327.069 167.019 322.351 165.523 318.866 162.531 316.616 159.539 314.365 154.995 313.24 148.898 313.24 142.159 313.24 135.42 313.24 128.68 313.24ZM128.68 272.32C128.68 280.754 128.68 289.187 128.68 297.62 134.525 297.62 140.369 297.62 146.214 297.62 152.254 297.62 156.701 296.495 159.553 294.244 162.405 291.994 163.831 288.807 163.831 284.686 163.831 280.51 162.405 277.405 159.553 275.371 156.701 273.337 152.366 272.32 146.549 272.32 140.593 272.32 134.637 272.32 128.68 272.32ZM492.222 256.457C502.513 256.457 512.804 256.457 523.095 256.457 532.686 281.811 542.278 307.166 551.87 332.52 552.038 332.52 552.206 332.52 552.373 332.52 561.629 307.166 570.886 281.811 580.142 256.457 590.545 256.457 600.947 256.457 611.35 256.457 611.35 289.675 611.35 322.893 611.35 356.111 604.75 356.111 598.151 356.111 591.551 356.111 591.551 340.357 591.551 324.602 591.551 308.847 591.915 298.054 592.278 287.262 592.642 276.469 592.474 276.469 592.306 276.469 592.139 276.469 581.792 303.017 571.445 329.564 561.098 356.111 554.946 356.111 548.794 356.111 542.642 356.111 532.127 329.51 521.613 302.908 511.098 276.307 510.93 276.307 510.762 276.307 510.595 276.307 511.07 287.153 511.545 298 512.021 308.847 512.021 324.602 512.021 340.357 512.021 356.111 505.421 356.111 498.822 356.111 492.222 356.111 492.222 322.893 492.222 289.675 492.222 256.457ZM379.118 256.457C386.248 256.457 393.379 256.457 400.51 256.457 400.51 276.117 400.51 295.777 400.51 315.436 400.51 323.897 402.272 330.134 405.796 334.147 409.319 338.16 414.912 340.167 422.574 340.167 430.124 340.167 435.675 338.106 439.227 333.984 442.778 329.862 444.554 323.598 444.554 315.192 444.554 295.614 444.554 276.035 444.554 256.457 451.629 256.457 458.704 256.457 465.779 256.457 465.779 275.737 465.779 295.017 465.779 314.297 465.779 323.192 464.171 330.852 460.955 337.279 457.739 343.706 452.915 348.654 446.484 352.125 440.052 355.596 432.082 357.332 422.574 357.332 413.01 357.332 404.999 355.61 398.539 352.166 392.079 348.722 387.227 343.8 383.983 337.401 380.739 331.001 379.118 323.354 379.118 314.46 379.118 295.126 379.118 275.791 379.118 256.457ZM296.785 256.457C303.916 256.457 311.047 256.457 318.178 256.457 318.178 284.035 318.178 311.613 318.178 339.191 332.971 339.191 347.764 339.191 362.557 339.191 362.557 344.831 362.557 350.471 362.557 356.111 340.633 356.111 318.709 356.111 296.785 356.111 296.785 322.893 296.785 289.675 296.785 256.457ZM208.731 256.457C231.27 256.457 253.809 256.457 276.349 256.457 276.349 262.016 276.349 267.575 276.349 273.134 260.884 273.134 245.42 273.134 229.956 273.134 229.956 281.459 229.956 289.784 229.956 298.109 242.26 298.109 254.564 298.109 266.869 298.109 266.869 303.478 266.869 308.847 266.869 314.216 254.564 314.216 242.26 314.216 229.956 314.216 229.956 322.622 229.956 331.028 229.956 339.435 245.588 339.435 261.22 339.435 276.852 339.435 276.852 344.994 276.852 350.552 276.852 356.111 254.145 356.111 231.438 356.111 208.731 356.111 208.731 322.893 208.731 289.675 208.731 256.457ZM107.791 256.457C121.493 256.457 135.196 256.457 148.898 256.457 156.225 256.457 162.573 257.528 167.942 259.67 173.311 261.813 177.45 264.89 180.358 268.904 183.267 272.917 184.721 277.635 184.721 283.059 184.721 288.157 183.141 292.645 179.981 296.522 176.821 300.4 172.333 303.044 166.516 304.454 166.516 304.535 166.516 304.617 166.516 304.698 173.339 305.783 178.722 308.413 182.665 312.589 186.608 316.765 188.58 322.026 188.58 328.371 188.58 337.374 185.308 344.248 178.764 348.993 172.221 353.739 162.741 356.111 150.325 356.111 136.147 356.111 121.969 356.111 107.791 356.111 107.791 322.893 107.791 289.675 107.791 256.457Z" fill="#FFFFFF" fill-rule="evenodd"/><text fill="#000000" fill-opacity="0" font-family="Arial,Arial_MSFontService,sans-serif" font-size="100.875" x="107.791" y="344.722">BELUM</text><path d="M56.4249 379.589C56.4249 401.527 56.4249 423.464 56.4249 445.402 59.4451 445.402 62.4652 445.402 65.4854 445.402 79.0201 445.402 88.9055 442.69 95.1415 437.267 101.378 431.843 104.496 423.573 104.496 412.455 104.496 401.5 101.266 393.283 94.806 387.806 88.3462 382.328 78.8523 379.589 66.3243 379.589 63.0245 379.589 59.7247 379.589 56.4249 379.589ZM565.672 362.668C575.963 362.668 586.254 362.668 596.545 362.668 606.136 388.023 615.728 413.377 625.32 438.731 625.488 438.731 625.655 438.731 625.823 438.731 635.079 413.377 644.336 388.023 653.592 362.668 663.995 362.668 674.397 362.668 684.8 362.668 684.8 395.886 684.8 429.105 684.8 462.323 678.2 462.323 671.601 462.323 665.001 462.323 665.001 446.568 665.001 430.813 665.001 415.058 665.365 404.266 665.728 393.473 666.092 382.681 665.924 382.681 665.756 382.681 665.588 382.681 655.242 409.228 644.895 435.775 634.548 462.323 628.396 462.323 622.244 462.323 616.092 462.323 605.577 435.721 595.062 409.119 584.548 382.518 584.38 382.518 584.212 382.518 584.044 382.518 584.52 393.365 584.995 404.211 585.471 415.058 585.471 430.813 585.471 446.568 585.471 462.323 578.871 462.323 572.272 462.323 565.672 462.323 565.672 429.105 565.672 395.886 565.672 362.668ZM452.567 362.668C459.698 362.668 466.829 362.668 473.96 362.668 473.96 382.328 473.96 401.988 473.96 421.647 473.96 430.108 475.722 436.345 479.245 440.358 482.769 444.371 488.362 446.378 496.024 446.378 503.574 446.378 509.125 444.317 512.677 440.195 516.228 436.074 518.004 429.81 518.004 421.403 518.004 401.825 518.004 382.247 518.004 362.668 525.079 362.668 532.154 362.668 539.229 362.668 539.229 381.948 539.229 401.228 539.229 420.508 539.229 429.403 537.621 437.063 534.405 443.49 531.189 449.917 526.365 454.865 519.933 458.336 513.502 461.807 505.532 463.543 496.024 463.543 486.46 463.543 478.448 461.821 471.989 458.377 465.529 454.933 460.677 450.012 457.433 443.612 454.189 437.212 452.567 429.565 452.567 420.671 452.567 401.337 452.567 382.003 452.567 362.668ZM305.805 362.668C316.096 362.668 326.387 362.668 336.678 362.668 346.27 388.023 355.861 413.377 365.453 438.731 365.621 438.731 365.789 438.731 365.956 438.731 375.213 413.377 384.469 388.023 393.725 362.668 404.128 362.668 414.53 362.668 424.933 362.668 424.933 395.886 424.933 429.105 424.933 462.323 418.334 462.323 411.734 462.323 405.134 462.323 405.134 446.568 405.134 430.813 405.134 415.058 405.498 404.266 405.861 393.473 406.225 382.681 406.057 382.681 405.889 382.681 405.722 382.681 395.375 409.228 385.028 435.775 374.681 462.323 368.529 462.323 362.377 462.323 356.225 462.323 345.71 435.721 335.196 409.119 324.681 382.518 324.513 382.518 324.345 382.518 324.178 382.518 324.653 393.365 325.128 404.211 325.604 415.058 325.604 430.813 325.604 446.568 325.604 462.323 319.004 462.323 312.405 462.323 305.805 462.323 305.805 429.105 305.805 395.886 305.805 362.668ZM192.701 362.668C199.832 362.668 206.962 362.668 214.093 362.668 214.093 382.328 214.093 401.988 214.093 421.647 214.093 430.108 215.855 436.345 219.379 440.358 222.902 444.371 228.495 446.378 236.157 446.378 243.708 446.378 249.258 444.317 252.81 440.195 256.361 436.074 258.137 429.81 258.137 421.403 258.137 401.825 258.137 382.247 258.137 362.668 265.212 362.668 272.287 362.668 279.362 362.668 279.362 381.948 279.362 401.228 279.362 420.508 279.362 429.403 277.754 437.063 274.538 443.49 271.322 449.917 266.499 454.865 260.067 458.336 253.635 461.807 245.665 463.543 236.157 463.543 226.593 463.543 218.582 461.821 212.122 458.377 205.662 454.933 200.81 450.012 197.566 443.612 194.323 437.212 192.701 429.565 192.701 420.671 192.701 401.337 192.701 382.003 192.701 362.668ZM145.402 362.668C152.505 362.668 159.608 362.668 166.711 362.668 166.711 395.886 166.711 429.105 166.711 462.323 159.608 462.323 152.505 462.323 145.402 462.323 145.402 429.105 145.402 395.886 145.402 362.668ZM35.2 362.668C45.9942 362.668 56.7885 362.668 67.5827 362.668 79.2718 362.668 89.4228 364.621 98.0358 368.526 106.649 372.43 113.262 378.111 117.877 385.568 122.491 393.026 124.798 401.988 124.798 412.455 124.798 423.03 122.533 432.047 118.002 439.504 113.472 446.961 106.873 452.628 98.2036 456.506 89.5347 460.384 79.0481 462.323 66.7438 462.323 56.2292 462.323 45.7146 462.323 35.2 462.323 35.2 429.105 35.2 395.886 35.2 362.668Z" fill="#FFFFFF" fill-rule="evenodd"/><text fill="#000000" fill-opacity="0" font-family="Arial,Arial_MSFontService,sans-serif" font-size="100.875" x="35.2" y="450.934">DIUMUM</text></g></svg>