<svg width="720" height="720" xmlns="http://www.w3.org/2000/svg" xmlns:xlink="http://www.w3.org/1999/xlink" overflow="hidden"><defs><clipPath id="clip0"><rect x="0" y="0" width="720" height="720"/></clipPath></defs><g clip-path="url(#clip0)"><rect x="0" y="0" width="720" height="720" fill="#000000" fill-opacity="0"/><path d="M327.269 371.848C327.269 386.58 327.269 401.312 327.269 416.044 337.738 416.044 348.207 416.044 358.675 416.044 367.649 416.044 374.421 414.225 378.993 410.587 383.566 406.948 385.852 401.579 385.852 394.479 385.852 386.758 383.566 381.055 378.993 377.372 374.421 373.689 367.478 371.848 358.163 371.848 347.865 371.848 337.567 371.848 327.269 371.848ZM31.9193 371.848C31.9193 386.58 31.9193 401.312 31.9193 416.044 42.3881 416.044 52.857 416.044 63.3259 416.044 72.2991 416.044 79.0718 414.225 83.644 410.587 88.216 406.948 90.5021 401.579 90.5021 394.479 90.5021 386.758 88.216 381.055 83.644 377.372 79.0718 373.689 72.1282 371.848 62.8131 371.848 52.5152 371.848 42.2172 371.848 31.9193 371.848ZM509.769 308.082C501.778 331.512 493.788 354.941 485.797 378.371 502.12 378.371 518.443 378.371 534.766 378.371 526.903 354.941 519.041 331.512 511.179 308.082 510.709 308.082 510.239 308.082 509.769 308.082ZM327.269 304.887C327.269 318.688 327.269 332.488 327.269 346.289 336.199 346.289 345.13 346.289 354.061 346.289 363.29 346.289 370.084 344.447 374.443 340.764 378.801 337.081 380.98 331.867 380.98 325.122 380.98 318.289 378.801 313.208 374.443 309.88 370.084 306.552 363.461 304.887 354.573 304.887 345.472 304.887 336.37 304.887 327.269 304.887ZM31.9193 304.887C31.9193 318.688 31.9193 332.488 31.9193 346.289 40.8499 346.289 49.7804 346.289 58.711 346.289 67.9407 346.289 74.7347 344.447 79.0931 340.764 83.4517 337.081 85.6309 331.867 85.6309 325.122 85.6309 318.289 83.4517 313.208 79.0931 309.88 74.7347 306.552 68.1116 304.887 59.2236 304.887 50.1223 304.887 41.0208 304.887 31.9193 304.887ZM295.35 278.929C316.287 278.929 337.225 278.929 358.163 278.929 369.358 278.929 379.058 280.681 387.262 284.187 395.466 287.693 401.79 292.729 406.234 299.296 410.678 305.864 412.9 313.585 412.9 322.46 412.9 330.802 410.485 338.146 405.657 344.491 400.828 350.837 393.97 355.163 385.082 357.47 385.082 357.604 385.082 357.737 385.082 357.87 395.509 359.645 403.734 363.95 409.759 370.783 415.784 377.617 418.796 386.225 418.796 396.609 418.796 411.341 413.797 422.59 403.798 430.355 393.799 438.12 379.314 442.004 360.342 442.004 338.678 442.004 317.014 442.004 295.35 442.004 295.35 387.645 295.35 333.286 295.35 278.929ZM153.144 278.929C187.585 278.929 222.025 278.929 256.465 278.929 256.465 288.025 256.465 297.122 256.465 306.219 232.836 306.219 209.206 306.219 185.576 306.219 185.576 319.841 185.576 333.464 185.576 347.087 204.377 347.087 223.179 347.087 241.98 347.087 241.98 355.873 241.98 364.66 241.98 373.446 223.179 373.446 204.377 373.446 185.576 373.446 185.576 387.201 185.576 400.957 185.576 414.714 209.462 414.714 233.348 414.714 257.234 414.714 257.234 423.81 257.234 432.907 257.234 442.004 222.538 442.004 187.841 442.004 153.144 442.004 153.144 387.645 153.144 333.286 153.144 278.929ZM0 278.929C20.9376 278.929 41.8754 278.929 62.8131 278.929 74.0083 278.929 83.7079 280.681 91.9121 284.187 100.116 287.693 106.44 292.729 110.884 299.296 115.328 305.864 117.55 313.585 117.55 322.46 117.55 330.802 115.136 338.146 110.307 344.491 105.479 350.837 98.6208 355.163 89.733 357.47 89.733 357.604 89.733 357.737 89.733 357.87 100.159 359.645 108.385 363.95 114.41 370.783 120.434 377.617 123.447 386.225 123.447 396.609 123.447 411.341 118.448 422.59 108.449 430.355 98.4498 438.12 83.9644 442.004 64.9922 442.004 43.3282 442.004 21.664 442.004 0 442.004 0 387.645 0 333.286 0 278.929ZM659.11 276.399C670.903 276.399 682.056 278.729 692.567 283.388 703.079 288.047 711.668 294.237 718.333 301.958 711.625 308.837 704.916 315.715 698.208 322.592 693.593 317.001 687.888 312.698 681.094 309.679 674.3 306.662 667.228 305.154 659.879 305.154 652.7 305.154 647.167 306.862 643.278 310.279 639.39 313.695 637.446 317.934 637.446 322.992 637.446 327.518 638.856 331.157 641.676 333.908 644.496 336.66 649.538 339.189 656.802 341.496 662.998 343.493 669.194 345.49 675.39 347.487 685.901 350.859 694.405 354.742 700.9 359.135 707.395 363.528 712.202 368.786 715.321 374.91 718.44 381.033 720 388.355 720 396.875 720 405.661 717.906 413.604 713.719 420.704 709.531 427.804 703.186 433.462 694.682 437.677 686.179 441.893 675.732 444 663.34 444 650.692 444 638.877 441.937 627.896 437.811 616.914 433.683 607.15 427.759 598.604 420.038 604.501 411.474 610.398 402.91 616.294 394.345 623.217 401.446 630.63 406.704 638.535 410.12 646.44 413.538 654.495 415.246 662.699 415.246 679.535 415.246 687.953 409.3 687.953 397.408 687.953 392.437 686.35 388.377 683.145 385.227 679.941 382.076 674.193 379.081 665.904 376.241 658.597 373.801 651.29 371.36 643.983 368.919 631.164 364.66 621.593 358.868 615.269 351.547 608.945 344.225 605.783 334.796 605.783 323.258 605.783 315.005 607.898 307.306 612.128 300.161 616.358 293.017 622.512 287.27 630.588 282.923 638.664 278.574 648.171 276.399 659.11 276.399ZM492.078 276C504.085 276 516.093 276 528.1 276 548.824 331.334 569.548 386.669 590.272 442.004 578.906 442.004 567.539 442.004 556.173 442.004 551.986 429.579 547.798 417.154 543.611 404.73 521.348 404.73 499.086 404.73 476.824 404.73 472.593 417.154 468.363 429.579 464.133 442.004 452.639 442.004 441.144 442.004 429.65 442.004 450.459 386.669 471.269 331.334 492.078 276Z" fill="#FFFFFF" fill-rule="evenodd"/></g></svg>