<svg width="720" height="720" xmlns="http://www.w3.org/2000/svg" xmlns:xlink="http://www.w3.org/1999/xlink" overflow="hidden"><defs><clipPath id="clip0"><rect x="0" y="0" width="720" height="720"/></clipPath></defs><g clip-path="url(#clip0)"><rect x="0" y="0" width="720" height="720" fill="#000000" fill-opacity="0"/><path d="M305.927 430.098C305.893 419.364 314.268 410.573 324.826 410.332 335.508 410.082 344.568 419.227 344.5 430.132 344.42 440.73 335.656 449.498 325.145 449.52 314.576 449.544 305.973 440.833 305.927 430.098M325.454 344.84C331.041 338.679 336.056 333.625 340.478 328.093 343.963 323.759 346.956 324.389 350.921 327.235 365.854 338.037 372.32 352.567 370.687 370.802 370.527 372.23 369.955 374.141 368.904 374.895 365.945 377.077 350.852 374.917 348.099 372.174L324.894 348.978C318.496 355.494 311.96 360.844 307.081 367.418 299.804 377.192 290.446 375.843 280.745 374.917 276.804 355.14 284.424 337.009 300.443 326.697 303.962 324.423 306.293 324.4 309.161 327.682 313.846 333.031 318.964 338.037 325.454 344.84M640.613 67.7679 508.238 300.393 508.238 67.7679 640.613 67.7679ZM142.269 67.6769 142.269 300.77 9.66525 67.6769 142.269 67.6769ZM287.293 67.6527 151.89 300.508 151.89 67.6527 287.293 67.6527ZM498.983 299.021C498.572 299.147 498.173 299.284 497.76 299.41L363.272 68.064 498.983 68.064 498.983 299.021ZM145.171 363.691 145.171 375.214 122.457 375.214 122.457 394.58 145.331 394.58 145.331 420.69 164.194 420.69 164.194 394.808 172.056 394.808 309.572 394.671C315.137 394.648 318.77 396.191 321.043 401.873 311.572 404.411 303.208 409.063 299.918 418.575 297.998 424.188 297.186 430.887 298.249 436.671 300.58 449.441 313.422 458.598 326.024 457.97 339.678 457.272 351.081 446.96 352.955 433.619 354.931 419.341 346.327 407.692 329.11 401.748 331.154 397.677 333.337 394.694 338.718 394.705L481.068 394.819C482.199 394.819 483.342 394.992 485.627 395.151 485.627 401.52 485.958 407.897 485.535 414.207 485.169 419.684 487.032 421.742 492.528 421.17 496.355 420.782 500.24 421.09 504.833 421.09L504.833 394.901 528.244 394.901 528.244 375.672 505.611 375.672 505.611 363.92C518.006 363.212 526.336 356.718 527.97 344.143 529.729 330.493 522.839 320.867 510.328 314.421 511.562 312.019 512.602 309.812 513.802 307.72L644.634 78.2849C650.735 67.6989 651.319 57.8553 647.971 46.8244 639.265 18.1427 615.443 0.330658 582.948 0.0560058L421.267 0.0560058C387.767 0.376807 363.135 19.2732 354.965 49.0875 352.257 59.0108 352.841 67.6769 358.438 77.1755 403.421 153.666 447.819 230.487 492.391 307.206 493.659 309.39 494.836 311.608 496.321 314.259 482.862 318.216 474.921 327.133 471.654 342.142 474.693 338.941 476.498 336.437 478.851 334.62 482.975 331.442 487.112 327.921 491.831 325.908 499.154 322.753 506.981 325.966 510.1 332.31 513.185 338.576 511.106 348.442 505.062 352.054 502.285 353.677 498.173 353.814 494.813 353.402 492.06 353.071 489.523 350.945 485.935 349.092L485.935 374.939 379.085 374.939C381.266 354.603 375.805 337.273 360.324 323.885 349.96 314.923 337.679 310.682 324.128 310.945 294.285 311.494 266.555 337.547 271.16 374.792L164.445 374.792 164.445 349.219C162.173 350.362 160.813 350.945 159.555 351.699 154.186 354.981 148.907 356.032 143.834 351.104 138.762 346.201 137.288 337.032 140.67 331.362 143.846 326.07 150.964 322.594 156.745 325.463 164.332 329.201 171.05 334.666 177.756 339.124 175.425 326.927 167.223 318.558 153.877 314.122L189.708 252.471C223.801 193.827 257.666 135.089 292.148 76.6961 297.323 67.8929 297.998 59.7662 295.644 50.5284 287.806 19.6276 262.739 0.262555 228.452 0.0112012L68.1408 0C33.5221 0.205205 8.61427 19.6509 1.13113 51.3627-0.869174 59.811-0.446006 67.4937 4.27288 75.7014 48.5582 152.831 92.3971 230.246 136.339 307.573 137.47 309.573 138.59 311.596 139.95 314.031 126.844 321.553 118.836 332.047 123.188 347.812 126.034 358.192 133.643 363.623 145.171 363.691" fill="#FFFFFF" fill-rule="evenodd" transform="matrix(1 0 0 -1 35 589)"/></g></svg>