<svg width="720" height="720" xmlns="http://www.w3.org/2000/svg" xmlns:xlink="http://www.w3.org/1999/xlink" overflow="hidden"><defs><clipPath id="clip0"><rect x="0" y="0" width="720" height="720"/></clipPath></defs><g clip-path="url(#clip0)"><rect x="0" y="0" width="720" height="720" fill="#000000" fill-opacity="0"/><path d="M604.049 316.2C596.895 335.903 589.741 355.605 582.586 375.307 597.04 375.307 611.492 375.307 625.945 375.307 618.647 355.605 611.348 335.903 604.049 316.2ZM412.979 305.987C412.979 341.154 412.979 376.321 412.979 411.489 420.964 411.489 428.949 411.489 436.934 411.489 445.894 411.489 452.362 410.981 456.337 409.968 461.54 408.663 465.857 406.454 469.29 403.339 472.722 400.225 475.524 395.1 477.691 387.965 479.859 380.83 480.943 371.106 480.943 358.792 480.943 346.478 479.859 337.025 477.691 330.434 475.524 323.842 472.488 318.699 468.586 315.005 464.683 311.311 459.734 308.812 453.736 307.508 449.255 306.494 440.475 305.987 427.395 305.987 422.59 305.987 417.785 305.987 412.979 305.987ZM587.464 279.041C598.774 279.041 610.083 279.041 621.392 279.041 642.602 332.136 663.812 385.231 685.021 438.326 673.386 438.326 661.752 438.326 650.118 438.326 645.493 426.265 640.867 414.204 636.242 402.145 615.069 402.145 593.896 402.145 572.722 402.145 568.351 414.204 563.979 426.265 559.607 438.326 548.262 438.326 536.916 438.326 525.571 438.326 546.202 385.231 566.834 332.136 587.464 279.041ZM380.894 279.041C400.441 279.041 419.989 279.041 439.536 279.041 452.759 279.041 462.84 280.055 469.778 282.084 479.1 284.836 487.085 289.725 493.733 296.752 500.381 303.778 505.44 312.379 508.909 322.557 512.378 332.734 514.112 345.283 514.112 360.204 514.112 373.315 512.486 384.615 509.234 394.104 505.259 405.694 499.587 415.074 492.216 422.245 486.651 427.677 479.137 431.915 469.67 434.958 462.588 437.202 453.122 438.326 441.27 438.326 421.144 438.326 401.019 438.326 380.894 438.326 380.894 385.231 380.894 332.136 380.894 279.041ZM220.065 279.041C230.76 279.041 241.455 279.041 252.15 279.041 252.15 307.798 252.15 336.555 252.15 365.311 252.15 379.001 252.548 387.875 253.343 391.931 254.716 398.45 257.985 403.684 263.153 407.631 268.32 411.579 275.383 413.553 284.345 413.553 293.45 413.553 300.315 411.688 304.94 407.958 309.565 404.227 312.346 399.645 313.286 394.213 314.226 388.78 314.695 379.762 314.695 367.158 314.695 337.786 314.695 308.414 314.695 279.041 325.39 279.041 336.085 279.041 346.78 279.041 346.78 306.929 346.78 334.816 346.78 362.704 346.78 381.826 345.912 395.335 344.178 403.231 342.445 411.126 339.247 417.79 334.586 423.223 329.925 428.656 323.692 432.984 315.887 436.207 308.083 439.43 297.894 441.041 285.32 441.041 270.144 441.041 258.636 439.285 250.796 435.772 242.955 432.259 236.759 427.695 232.206 422.082 227.654 416.468 224.655 410.583 223.209 404.425 221.113 395.299 220.065 381.826 220.065 364.007 220.065 335.685 220.065 307.363 220.065 279.041ZM35.0211 279.041C51.0277 279.041 67.0339 279.041 83.0405 279.041 92.6514 315.259 102.263 351.476 111.874 387.693 121.376 351.476 130.879 315.259 140.382 279.041 156.424 279.041 172.467 279.041 188.509 279.041 188.509 332.136 188.509 385.231 188.509 438.326 178.573 438.326 168.637 438.326 158.701 438.326 158.701 396.531 158.701 354.736 158.701 312.941 148.186 354.736 137.672 396.531 127.157 438.326 116.86 438.326 106.562 438.326 96.2646 438.326 85.7864 396.531 75.3082 354.736 64.8299 312.941 64.8299 354.736 64.8299 396.531 64.8299 438.326 54.8937 438.326 44.9574 438.326 35.0211 438.326 35.0211 385.231 35.0211 332.136 35.0211 279.041Z" fill="#FFFFFF" fill-rule="evenodd"/></g></svg>