<svg width="720" height="720" xmlns="http://www.w3.org/2000/svg" xmlns:xlink="http://www.w3.org/1999/xlink" overflow="hidden"><defs><clipPath id="clip0"><rect x="0" y="0" width="720" height="720"/></clipPath></defs><g clip-path="url(#clip0)"><rect x="0" y="0" width="720" height="720" fill="#000000" fill-opacity="0"/><path d="M322.597 312.159C330.951 313.107 341.691 325.197 349.534 364.041 360.918 420.427 353.106 450.358 366.121 451.174 385.563 452.391 375.93 328.083 400.756 323.939 423.875 320.079 413.965 387.347 408.32 438.869 405.917 460.81 404.281 500.198 435.754 504.036 453.722 506.227 485.822 408.367 523.98 447.892 518.998 460.683 509.145 466.631 499.189 482.162 475.128 519.697 476.525 527.308 468.201 543.501 459.876 559.694 439.248 584.637 426.276 607.938 425.448 613.999 425.201 619.992 425.317 625.942L426.425 642.057 418.445 644.108C399.567 647.971 380.02 650 360 650L331.957 648.584 324.401 632C317.573 619.954 308.246 607.24 299.77 594.814 282.817 569.962 286.645 539.643 267.323 507.317 249.095 476.45 201.517 433.377 212.638 414.716 221.509 399.83 247.697 435.314 259.303 450.809 269.755 464.763 288.772 483.651 293.207 481.433 300.18 477.635 287.451 466.06 280.63 446.07 273.81 426.079 250.558 367.552 252.284 361.489 257.052 344.746 273.673 337.823 293.207 393.936 312.742 450.05 331.457 477.18 326.383 431.851 320.55 396.853 316.51 349.094 309.978 327.129 308.276 321.405 314.244 311.211 322.597 312.159ZM360 70C520.162 70 650 199.838 650 360 650 480.122 576.967 583.186 472.881 627.211L450.492 635.405 448.943 612.872C448.764 603.742 449.143 594.546 450.413 585.245 470.32 549.487 501.975 511.212 514.749 486.364 527.523 461.516 525.379 449.837 562.301 392.238 577.579 368.405 592.698 359.278 600.343 339.651 541.788 278.998 492.531 429.167 464.959 425.805 416.663 419.915 419.172 359.473 422.861 325.805 431.523 246.743 446.729 143.518 411.253 149.441 373.158 155.8 387.94 346.554 358.106 344.686 338.133 343.435 350.121 297.504 332.651 210.979 308.582 91.7639 266.729 136.771 271.952 154.336 281.975 188.042 288.176 261.329 297.127 315.035 304.912 384.593 276.194 342.961 246.217 256.854 216.241 170.746 190.737 181.371 183.42 207.063 180.771 216.366 216.451 306.178 226.917 336.854 237.383 367.53 256.917 385.292 246.217 391.119 239.411 394.522 210.229 365.539 194.19 344.126 176.381 320.35 136.194 265.898 122.581 288.742 105.517 317.377 178.525 383.474 206.498 430.84 236.148 480.443 230.274 526.97 256.288 565.105 272.547 588.94 290.845 613.466 301.144 635.817L304.57 644.569 301.555 644.109C169.407 617.067 70 500.143 70 360 70 199.838 199.838 70 360 70Z" fill="#FFFFFF" fill-rule="evenodd"/></g></svg>