<svg width="720" height="720" xmlns="http://www.w3.org/2000/svg" xmlns:xlink="http://www.w3.org/1999/xlink" overflow="hidden"><defs><clipPath id="clip0"><rect x="0" y="0" width="720" height="720"/></clipPath></defs><g clip-path="url(#clip0)"><rect x="0" y="0" width="720" height="720" fill="#000000" fill-opacity="0"/><path d="M2.02147 1.41864C69.9108 153.943 137.8 306.468 205.69 458.992 205.911 458.985 206.133 458.977 206.354 458.966 274.244 306.443 342.133 153.918 410.021 1.39358 409.891 1.25941 409.756 1.12523 409.621 0.991474 408.996 1.37108 408.348 1.72606 407.741 2.13411 393.202 11.8718 378.679 21.6311 364.131 31.3539 344.454 44.5055 324.747 57.6134 305.073 70.77 282.684 85.7441 260.312 100.745 237.941 115.746 227.81 122.539 217.662 129.307 207.618 136.226 205.898 137.411 204.966 136.501 203.809 135.724 189.159 125.895 174.53 116.033 159.87 106.216 139.3 92.4411 118.706 78.7006 98.127 64.9367 71.03 46.8133 43.9381 28.6835 16.8449 10.5538 12.097 7.3764 7.35676 4.18755 2.61268 1.00421 2.41533 1.14221 2.2184 1.28064 2.02147 1.41864" fill="#FFFFFF" fill-rule="evenodd" transform="matrix(1 0 0 -1 156 589)"/></g></svg>