<svg width="720" height="720" xmlns="http://www.w3.org/2000/svg" xmlns:xlink="http://www.w3.org/1999/xlink" overflow="hidden"><defs><clipPath id="clip0"><rect x="0" y="0" width="720" height="720"/></clipPath></defs><g clip-path="url(#clip0)"><rect x="0" y="0" width="720" height="720" fill="#000000" fill-opacity="0"/><path d="M542.141 324.274 542.141 0.27427 650.471 0.27427 650.472 324.274ZM0.471507 0.27427 108.801 0.27427 108.801 324.274 0.471507 324.274Z" fill="#FFFFFF" fill-rule="evenodd" transform="matrix(1 0 0 -1 35 522)"/><path d="M85.4976 101.158C85.4976 156.934 130.602 202.157 186.249 202.157 83.5249 202.157 0.24176 156.934 0.24176 101.158 0.24176 45.3813 83.5249 0.157954 186.249 0.157954 130.602 0.157954 85.4976 45.3813 85.4976 101.158M186.25 202.158 186.25 202.158C241.889 202.158 286.994 156.935 286.994 101.158 286.994 45.382 241.889 0.158715 186.25 0.158715 288.974 0.158715 372.242 45.382 372.242 101.158 372.242 156.935 288.974 202.158 186.25 202.158" fill="#FFFFFF" fill-rule="evenodd" transform="matrix(1 0 0 -1 174 461)"/></g></svg>