<svg width="720" height="720" xmlns="http://www.w3.org/2000/svg" xmlns:xlink="http://www.w3.org/1999/xlink" overflow="hidden"><defs><clipPath id="clip0"><rect x="0" y="0" width="720" height="720"/></clipPath></defs><g clip-path="url(#clip0)"><rect x="0" y="0" width="720" height="720" fill="#000000" fill-opacity="0"/><path d="M34.9692 280.986 34.9692 350.986 56.3553 350.986 56.3553 332.113 67.6665 332.113C86.2777 332.113 96.9692 322.527 96.9692 305.852 96.9692 289.973 86.2749 280.986 67.6665 280.986ZM56.3553 300.551 66.3517 300.551C70.6199 300.551 74.0843 303.949 74.0843 308.142 74.0843 312.335 70.6227 315.732 66.3517 315.732 66.3517 315.732 66.3517 315.732 66.3517 315.732L56.3553 315.732Z" fill="#FFFFFF" fill-rule="evenodd"/><path d="M110.969 280.986 110.969 350.986 168.969 350.986 168.969 332.874 132.918 332.874 132.918 323.965 166.546 323.965 166.546 308.01 132.918 308.01 132.918 299.095 168.969 299.095 168.969 280.986Z" fill="#FFFFFF" fill-rule="evenodd"/><path d="M184.968 280.986 184.968 350.986 207.898 350.986 207.898 332.113 212.889 332.113 223.619 350.986 251.967 350.986 237.264 328.119C245.134 323.825 249.482 316.237 249.482 305.852 249.482 289.973 238.297 280.986 218.829 280.986ZM207.898 300.551 218.528 300.551C223.068 300.551 226.752 303.949 226.752 308.142 226.752 308.142 226.752 308.142 226.752 308.142 226.752 312.335 223.071 315.732 218.53 315.732 218.528 315.732 218.528 315.732 218.528 315.732L207.898 315.732Z" fill="#FFFFFF" fill-rule="evenodd"/><path d="M286.967 350.986 286.967 280.986 264.967 280.986 264.967 350.986Z" fill="#FFFFFF" fill-rule="evenodd"/><path d="M345.792 350.986 374.966 350.986 350.435 311.204 374.703 280.986 347.834 280.986 326.101 307.947 326.101 280.986 303.966 280.986 303.966 350.986 326.101 350.986 326.101 335.733 332.054 328.706Z" fill="#FFFFFF" fill-rule="evenodd"/><path d="M523.964 300.674 523.964 280.986 457.964 280.986 457.964 300.674 479.715 300.674 479.715 350.986 502.107 350.986 502.107 300.674Z" fill="#FFFFFF" fill-rule="evenodd"/><path d="M662.173 280.914 662.173 313.375 636.345 280.914 614.756 280.914 614.756 350.914 637.265 350.914 637.265 318.368 663.16 350.913 684.756 350.913 684.689 280.914Z" fill="#FFFFFF" fill-rule="evenodd"/><path d="M260.604 367.9C241.943 367.9 228.387 376.977 228.387 390.528 228.387 396.365 230.414 400.445 233.549 403.4 245.233 413.757 269.674 412.372 265.782 419.225 262.962 424.185 237.633 413.185 237.633 413.185L225.824 428.391C233.931 433.309 247.202 438.9 258.607 438.9 277.267 438.9 290.824 429.825 290.824 416.272 290.824 410.435 288.797 406.354 285.661 403.4 273.977 393.042 249.537 394.429 253.437 387.576 256.257 382.616 278.369 392.51 278.369 392.51L290.618 376.73C282.518 371.811 272.009 367.9 260.604 367.9Z" fill="#FFFFFF" fill-rule="evenodd"/><path d="M381.304 367.9C359.705 367.9 343.804 382.774 343.804 403.202 343.804 423.728 359.705 438.9 381.304 438.9 402.903 438.9 418.804 423.629 418.804 403.202 418.804 382.874 402.903 367.9 381.304 367.9ZM381.304 387.768C389.416 387.768 395.991 394.767 395.991 403.401 395.991 412.034 389.416 419.033 381.304 419.033 373.193 419.033 366.617 412.034 366.617 403.401 366.617 394.767 373.193 387.768 381.304 387.768Z" fill="#FFFFFF" fill-rule="evenodd"/><path d="M630.751 418.303 630.751 367.985 607.963 367.985 607.963 436.985 662.963 436.985 662.963 418.305Z" fill="#FFFFFF" fill-rule="evenodd"/><path d="M405.741 280.914 376.796 350.914 402.253 350.914 405.911 342.101 430.681 342.101 434.346 350.914 459.796 350.914 430.851 280.914 418.296 280.914 418.296 311.327 423.779 325.412 412.813 325.412 418.296 311.327 418.296 280.914Z" fill="#FFFFFF" fill-rule="evenodd"/><path d="M550.558 280.986 521.964 350.986 547.109 350.986 550.729 342.174 575.198 342.174 578.819 350.986 603.964 350.986 575.369 280.986 562.964 280.986 562.964 311.398 568.383 325.482 557.55 325.482 562.964 311.398 562.964 280.986Z" fill="#FFFFFF" fill-rule="evenodd"/><path d="M105.755 367.985 105.755 400.027 80.275 368.068 58.9692 368.068 58.9692 436.985 81.1858 436.985 81.1858 404.944 106.666 436.903 127.969 436.903 127.969 367.985Z" fill="#FFFFFF" fill-rule="evenodd"/><path d="M167.563 367.985 138.968 436.985 164.113 436.985 167.734 428.299 192.203 428.299 195.823 436.985 220.968 436.985 192.374 367.985 179.968 367.985 179.968 397.962 185.388 411.846 174.555 411.846 179.968 397.962 179.968 367.985Z" fill="#FFFFFF" fill-rule="evenodd"/><path d="M327.967 436.985 327.967 367.985 305.967 367.985 305.967 436.985Z" fill="#FFFFFF" fill-rule="evenodd"/><path d="M480.706 367.985 480.706 399.982 455.25 367.985 433.965 367.985 433.965 436.985 456.16 436.985 456.16 404.906 481.68 436.985 502.965 436.985 502.898 367.985Z" fill="#FFFFFF" fill-rule="evenodd"/><path d="M542.906 367.985 513.963 436.985 539.415 436.985 543.08 428.299 567.845 428.299 571.512 436.985 596.964 436.985 568.02 367.985 555.463 367.985 555.463 397.962 560.949 411.846 549.984 411.846 555.463 397.962 555.463 367.985Z" fill="#FFFFFF" fill-rule="evenodd"/></g></svg>