<svg width="720" height="720" xmlns="http://www.w3.org/2000/svg" xmlns:xlink="http://www.w3.org/1999/xlink" overflow="hidden"><defs><clipPath id="clip0"><rect x="0" y="0" width="720" height="720"/></clipPath></defs><g clip-path="url(#clip0)"><rect x="0" y="0" width="720" height="720" fill="#000000" fill-opacity="0"/><path d="M415.89 462.889C412.877 462.476 410.102 465.078 404.562 470.283 400.454 474.142 394.632 479.314 391.623 481.776 388.614 484.238 386.5 486.818 386.926 487.508 387.352 488.199 390.283 489.056 393.439 489.412 396.595 489.769 399.746 490.63 400.439 491.326 402.929 493.821 406.863 516.587 408.891 540.237 410.205 555.561 411.286 563.257 412.012 562.464 412.214 562.248 413.353 559.259 414.543 555.83 416.095 551.352 416.97 543.206 417.642 526.948 418.727 500.727 419.3 499.219 429.457 495.831 437.15 493.264 438.361 492.33 439.114 488.382 439.609 485.785 437.82 483.255 428.647 473.575 422.156 466.726 418.904 463.3 415.89 462.889ZM378.151 279.204C382.667 278.996 386.815 279.341 387.839 280.367 388.917 281.448 386.803 284.603 379.258 293.17 371.486 301.994 368.74 306.139 366.987 311.685 364.331 320.097 362.334 320.816 352.051 317.062 342.432 313.552 333.167 308.175 329.776 304.136 326.009 299.651 326.021 299.431 330.219 295.401 332.549 293.164 338.286 290.667 347.874 287.717 355.686 285.314 363.955 282.454 366.25 281.362 368.75 280.174 373.635 279.412 378.151 279.204ZM534.349 247.535C538.725 246.434 544.974 250.077 551.465 257.513 558.453 265.519 560.17 271.839 559.987 288.893 559.819 304.587 558.469 310.741 553.624 317.877 550.315 322.75 530.944 340.933 507.819 360.873 488.288 377.715 485.401 379.645 478.912 380.209 473.465 380.683 472.576 380.331 467.076 375.531 463.805 372.677 458.624 367.26 455.562 363.493 450.724 357.542 449.995 355.876 449.995 350.767 449.995 342.923 451.919 339.899 473.023 314.576 476.088 310.898 484.262 301.486 494.321 290.053 525.699 254.387 531.467 248.26 534.349 247.535ZM471.047 183.491C474.357 183.491 479.247 185.386 487.462 189.853 509.123 201.629 522.785 213.252 525.828 222.493 527.106 226.372 526.959 227.747 524.749 232.61 523.341 235.706 522.189 238.714 522.189 239.294 522.189 241.399 509.097 261.74 499.898 273.925 487.695 290.089 448.828 329.824 442.023 333.093 433.938 336.976 425.836 337.236 415.765 333.935 403.562 329.935 399.202 327.508 392.478 320.977 384.956 313.671 384.171 310.179 388.302 302.404 390.057 299.101 391.492 295.919 391.492 295.333 391.492 294.747 392.531 292.778 393.8 290.957 395.069 289.136 396.5 286.024 396.979 284.041 397.812 280.597 409.151 263.704 421.352 247.73 426.539 240.939 430.287 235.736 447.31 211.704 450.282 207.507 455.779 199.442 459.524 193.782 466.06 183.905 466.523 183.491 471.047 183.491ZM251.595 158.819C253.561 158.469 256.081 158.547 260.476 158.82 268.55 159.319 272.169 160.349 282.578 165.104 289.424 168.232 295.865 171.15 296.892 171.59 297.919 172.03 304.921 175.733 312.451 179.818 319.982 183.905 338.745 193.487 354.147 201.115 383.079 215.44 387.326 217.989 389.892 222.576 391.613 225.65 391.869 243.274 390.331 252.673 389.56 257.377 388.394 259.624 385.476 262.029 378.238 267.991 344.681 278.29 332.492 278.29 322.954 278.29 318.903 276.178 305.906 264.418 296.578 255.98 294.41 254.591 290.56 254.591 284.779 254.591 283.334 256.291 276.409 271.244 266.822 291.945 268.089 294.339 295.025 306.397 297.079 307.317 302.561 309.769 307.208 311.847 321.72 318.336 330.193 327.824 359.117 369.972 366.178 380.263 374.951 393.003 378.612 398.283 382.273 403.565 385.268 408.448 385.268 409.136 385.268 409.824 386.033 410.836 386.967 411.385 387.902 411.934 389.615 414.243 390.774 416.516 391.934 418.789 393.55 420.429 394.366 420.161 397.119 419.252 396.603 414.756 392.944 407.787 387.438 397.299 378.86 382.756 376.524 379.951 375.382 378.579 371.476 372.124 367.844 365.606 364.213 359.089 359.926 351.97 358.318 349.786 356.711 347.601 355.395 345.467 355.395 345.042 355.395 344.617 353.994 342.203 352.284 339.679 350.572 337.155 349.171 333.752 349.171 332.116 349.171 329.227 349.393 329.162 356.951 329.821 366.877 330.689 395.089 337.079 411.92 342.273 421.523 345.236 429.212 350.924 453.394 372.949 461.083 379.952 469.67 386.989 472.478 388.587L477.582 391.492 484.46 388.84C490.056 386.682 494.885 382.793 510.387 367.96 530.844 348.384 536.781 343.868 540.283 345.214 542.304 345.992 542.416 347.821 541.72 368.618 540.569 402.954 537.879 419.427 529.636 442.614 523.613 459.555 517.567 470.139 503.084 489.095 499.677 493.555 495.291 500.72 493.338 505.017 485.95 521.268 485.858 522.171 485.008 586.034 484.344 636.013 483.943 645.21 482.358 646.772 480.758 648.344 465.699 648.735 377.073 649.497 279.603 650.338 273.607 650.26 272.826 648.224 271.222 644.034 272.024 626.353 274.367 614.232 275.671 607.496 277.126 598.335 277.601 593.875 278.075 589.414 279.247 581.952 280.204 577.293 281.161 572.628 282.802 561.402 283.849 552.342 284.897 543.284 286.038 534.951 286.385 533.827 286.731 532.703 287.497 522.88 288.087 511.998 289.362 488.499 290.278 490.96 272.236 469.448 251.648 444.901 242.8 432.451 203.312 372.467 169.009 320.357 160.049 305.637 160 301.302 159.942 296.148 174.934 268.055 194.426 236.792 202.216 224.297 220.241 196.454 236.879 171.217 239.293 167.555 243.418 163.132 246.045 161.39 248.22 159.948 249.63 159.169 251.595 158.819ZM407.581 117.618C414.938 118.061 417.148 118.91 429.457 126.015 449.647 137.67 453.284 140.648 457.644 149.101 464.948 163.261 462.242 174.894 446.045 198.953 433.235 217.982 416.27 239.228 408.975 245.38 405.408 248.387 405.297 248.401 404.011 245.992 403.287 244.637 402.695 239.263 402.695 234.051 402.695 216.87 397.792 210.33 377.306 200.187 360.939 192.084 360.374 191.643 360.374 186.998 360.374 182.708 361.119 181.191 369.75 167.899 373.314 162.411 379.901 150.577 384.387 141.603 388.873 132.629 394.086 123.449 395.971 121.205 399.306 117.233 399.616 117.137 407.581 117.618ZM331.81 70C335.166 69.9672 361.537 85.299 369.662 92.0065 379.884 100.444 383.276 105.989 383.154 114.055 383.076 119.244 381.474 123.406 373.512 139.099 353.56 178.422 346.525 184.251 327.388 177.309 323.965 176.068 314.163 171.321 305.605 166.759 297.048 162.198 288.195 157.502 285.932 156.322 283.67 155.143 280.746 153.037 279.435 151.643 277.201 149.266 277.177 148.878 279.051 145.406 280.151 143.37 281.902 140.02 282.943 137.962 283.985 135.904 290.74 125.52 297.954 114.886 305.169 104.252 314.66 90.219 319.045 83.7019 327.333 71.3835 328.593 70.0321 331.81 70Z" fill="#FFFFFF" fill-rule="evenodd"/></g></svg>