<svg width="720" height="720" xmlns="http://www.w3.org/2000/svg" xmlns:xlink="http://www.w3.org/1999/xlink" overflow="hidden"><defs><clipPath id="clip0"><rect x="0" y="0" width="720" height="720"/></clipPath></defs><g clip-path="url(#clip0)"><rect x="0" y="0" width="720" height="720" fill="#000000" fill-opacity="0"/><path d="M396.379 31.6918C439.617 25.4563 414.923-5.45604 347.86 0.851472 383.598-0.183532 418.01 13.3466 396.379 31.6918ZM315.932 145.784 312.219 143.594C277.541 119.494 252.751 84.007 240.694 53.2873L236.618 40.6237 230.542 39.6849C178.212 31.0418 126.487 18.8357 90.218 9.01299 69.9372 23.6748 63.5227 56.2004 65.7413 78.8308 140.593 110.755 226.997 140.271 306.214 145.471ZM339.613 145.929 352.731 145.471C382.971 143.304 411.451 136.515 436.964 123.755 441.908 88.148 439.328 57.8134 427.921 25.5286 410.8 51.9631 350.537 54.3707 282.485 46.9074L260.589 44.1628 264.809 58.6561C276.408 86.2704 305.707 117.231 335.152 142.294ZM83.8516 209.415 77.7505 198.966C63.9327 174.843 52.5023 151.008 72.1076 150.768L73.7716 150.864 74.061 151.514C79.945 162.155 91.9538 171.52 102.974 170.943L104.301 170.629 100.418 180.019C97.2352 187.242 93.184 195.283 88.1439 203.372ZM474.005 319.438 473.643 302.802C470.652 247.79 459.053 199.881 437.856 143.136 384.032 169.113 315.715 169.57 247.784 157.58L228.661 153.801 233.339 159.434C261.288 188.638 336.984 219.43 384.924 242.229 424.231 260.959 454.207 285.034 472.075 315.731ZM469.832 412.922C470.556 406.012 471.183 399.247 471.714 392.627L472.799 377.435 472.703 372.018C469.471 322.303 440.34 284.649 357.579 247.525 303.224 223.162 228.058 193.381 206.33 153.849L203.798 148.071 197.119 146.482C147.009 133.457 99.2121 115.305 60.002 97.5371 44.6891 107.432 48.6198 125.754 56.4571 134.517L57.1324 135.119 53.9733 136.154C44.038 140.03 33.524 147.421 34.4162 161.409 35.1155 172.098 54.5279 196.318 67.357 221.886L69.5274 226.893 62.4617 234.236C46.6665 248.055 26.2268 258.119 0.00447516 258.528 11.3914 263.753 22.6168 265.654 33.3792 265.076 45.0508 264.45 56.1919 260.863 66.4165 255.35L77.1236 248.296 77.9676 252.413C78.6669 257.348 78.7152 262.139 77.8711 266.689 75.6526 278.751 58.6757 303.477 45.4366 315.802 53.9733 312.023 110.281 278.438 100.37 241.579 99.9598 240.014 99.3093 238.256 98.4892 236.331L96.1261 231.371 105.072 220.658C110.064 213.796 114.26 206.694 117.467 199.712L120.554 191.864 121.904 193.357C234.449 311.301 395.632 272.829 469.832 412.922ZM427.487 466.007C445.79 454.259 453.073 445.159 465.202 429.221 458.378 414.848 449.552 401.558 436.747 389.593 442.27 413.957 438.531 440.536 427.487 466.007Z" fill="#FFFFFF" fill-rule="evenodd" transform="matrix(1 0 0 -1 123 593)"/></g></svg>