<svg width="720" height="720" xmlns="http://www.w3.org/2000/svg" xmlns:xlink="http://www.w3.org/1999/xlink" overflow="hidden"><defs><clipPath id="clip0"><rect x="0" y="0" width="720" height="720"/></clipPath></defs><g clip-path="url(#clip0)"><rect x="0" y="0" width="720" height="720" fill="#000000" fill-opacity="0"/><path d="M347.079 610.939C343.562 611.561 340.284 613.521 338.079 616.673L331.518 626.041 332.49 626.19C341.49 627.102 350.622 627.569 359.861 627.569L363.161 627.403 363.248 622.221C362.625 618.712 360.661 615.441 357.505 613.238 354.347 611.035 350.594 610.318 347.079 610.939ZM316.387 599.665C312.872 600.287 309.595 602.247 307.387 605.398L297.223 619.91 305.909 622.141 327.41 625.415 330.254 621.353C334.669 615.049 333.128 606.369 326.813 601.963 323.655 599.76 319.903 599.043 316.387 599.665ZM285.696 588.39C282.181 589.011 278.904 590.971 276.696 594.123L265.47 610.155 280.254 615.556 293.371 618.923 299.564 610.078C303.978 603.775 302.437 595.093 296.122 590.688 292.965 588.485 289.212 587.769 285.696 588.39ZM220.85 559.862C222.54 559.792 224.372 559.89 226.268 560.173 233.851 561.305 239.585 565.004 239.074 568.435 238.563 571.865 232.002 573.728 224.419 572.594 216.835 571.463 211.102 567.763 211.613 564.333 211.996 561.761 215.782 560.07 220.85 559.862ZM498.922 559.468C504 559.674 507.793 561.361 508.178 563.929 508.688 567.354 502.945 571.047 495.348 572.177 487.752 573.308 481.179 571.449 480.668 568.023 480.156 564.6 485.899 560.907 493.496 559.777 495.395 559.494 497.23 559.398 498.922 559.468ZM202.794 545.111C204.407 545.113 206.149 545.279 207.946 545.625 215.129 547.011 220.446 550.769 219.822 554.018 219.196 557.268 212.866 558.779 205.684 557.393 198.499 556.008 193.182 552.249 193.808 549.001 194.276 546.562 197.954 545.103 202.794 545.111ZM517.012 544.741C521.861 544.734 525.545 546.191 526.015 548.624 526.641 551.868 521.314 555.619 514.117 557.002 506.92 558.386 500.58 556.878 499.955 553.635 499.328 550.39 504.655 546.639 511.851 545.256 513.65 544.91 515.396 544.744 517.012 544.741ZM252.65 535.323C255.79 535.997 258.866 539.035 260.319 543.302 262.257 548.995 260.574 554.719 256.561 556.089 252.548 557.46 247.725 553.958 245.788 548.266 243.85 542.576 245.533 536.851 249.545 535.48 250.549 535.138 251.602 535.099 252.65 535.323ZM467.068 534.972C468.117 534.748 469.173 534.786 470.179 535.128 474.198 536.496 475.884 542.211 473.942 547.891 472.002 553.573 467.17 557.069 463.149 555.7 459.13 554.332 457.444 548.618 459.386 542.936 460.84 538.676 463.922 535.644 467.068 534.972ZM185.595 529.141C187.141 529.21 188.802 529.441 190.508 529.846 197.331 531.469 202.268 535.287 201.536 538.374 200.804 541.46 194.681 542.647 187.857 541.024 181.034 539.4 176.097 535.582 176.829 532.496 177.377 530.181 180.96 528.935 185.595 529.141ZM534.241 528.801C538.885 528.595 542.472 529.839 543.023 532.149 543.755 535.23 538.809 539.042 531.975 540.662 525.14 542.282 519.004 541.097 518.272 538.017 517.538 534.936 522.484 531.125 529.319 529.504 531.029 529.099 532.693 528.87 534.241 528.801ZM232.322 521.51C236.228 520.703 240.322 524.538 241.464 530.079 242.606 535.619 240.365 540.767 236.459 541.575 232.552 542.383 228.459 538.546 227.317 533.005 226.174 527.465 228.415 522.319 232.322 521.51ZM487.431 521.183C491.345 521.99 493.59 527.127 492.446 532.657 491.301 538.189 487.202 542.02 483.289 541.212 479.374 540.406 477.13 535.268 478.273 529.737 479.418 524.205 483.519 520.377 487.431 521.183ZM166.992 512.558C169.356 512.341 172.363 512.762 175.455 513.872 181.638 516.089 185.816 520.22 184.788 523.096 183.759 525.974 177.913 526.508 171.729 524.289 165.547 522.071 161.368 517.942 162.397 515.064 162.911 513.626 164.629 512.773 166.992 512.558ZM552.877 512.246C555.243 512.461 556.965 513.312 557.481 514.748 558.511 517.62 554.325 521.743 548.131 523.956 541.937 526.172 536.081 525.639 535.05 522.765 534.019 519.894 538.205 515.771 544.399 513.558 547.496 512.45 550.509 512.029 552.877 512.246ZM214.712 507.52C218.571 506.722 222.615 510.512 223.743 515.985 224.872 521.458 222.658 526.541 218.797 527.341 214.938 528.139 210.896 524.349 209.766 518.875 208.638 513.402 210.852 508.318 214.712 507.52ZM505.073 507.217C508.939 508.013 511.158 513.089 510.027 518.552 508.897 524.016 504.846 527.799 500.979 527.003 497.113 526.206 494.895 521.13 496.025 515.666 497.156 510.203 501.207 506.421 505.073 507.217ZM154.106 495.388C156.317 495.209 159.085 495.671 161.884 496.814 167.482 499.101 171.087 503.247 169.936 506.078 168.783 508.907 163.312 509.348 157.713 507.061 152.115 504.775 148.51 500.627 149.662 497.797 150.238 496.383 151.893 495.566 154.106 495.388ZM565.786 495.106C568.002 495.284 569.66 496.1 570.237 497.512 571.39 500.336 567.78 504.477 562.172 506.759 556.563 509.042 551.082 508.602 549.929 505.778 548.776 502.952 552.386 498.813 557.994 496.53 560.799 495.389 563.57 494.928 565.786 495.106ZM199.119 492.508C202.488 492.046 205.812 496.007 206.547 501.36 207.281 506.711 205.145 511.425 201.779 511.888 198.41 512.352 195.086 508.39 194.351 503.038 193.617 497.686 195.752 492.973 199.119 492.508ZM520.692 492.232C524.066 492.696 526.205 497.401 525.47 502.743 524.734 508.086 521.403 512.041 518.029 511.579 514.656 511.115 512.518 506.41 513.252 501.068 513.988 495.725 517.318 491.77 520.692 492.232ZM141.388 477.255C143.604 477.13 146.359 477.658 149.13 478.868 154.673 481.287 158.176 485.519 156.957 488.321 155.739 491.122 150.258 491.431 144.716 489.011 139.174 486.593 135.67 482.36 136.888 479.559 137.498 478.158 139.173 477.38 141.388 477.255ZM578.526 477.005C580.745 477.13 582.423 477.907 583.033 479.306 584.255 482.101 580.744 486.326 575.193 488.742 569.641 491.157 564.149 490.848 562.929 488.052 561.708 485.255 565.219 481.031 570.77 478.616 573.546 477.408 576.307 476.881 578.526 477.005ZM184.747 476.352C187.778 476.013 190.718 480.038 191.312 485.342 191.906 490.646 189.93 495.222 186.897 495.563 183.866 495.904 180.927 491.879 180.334 486.575 179.74 481.27 181.715 476.693 184.747 476.352ZM535.091 476.105C538.127 476.445 540.107 481.014 539.512 486.309 538.918 491.603 535.973 495.621 532.936 495.282 529.899 494.941 527.919 490.373 528.515 485.078 529.109 479.783 532.053 475.766 535.091 476.105ZM171.625 459.804C174.657 459.463 177.596 463.489 178.191 468.793 178.784 474.098 176.807 478.675 173.776 479.014 170.744 479.355 167.805 475.33 167.212 470.026 166.617 464.721 168.593 460.145 171.625 459.804ZM548.235 459.586C551.273 459.926 553.251 464.494 552.657 469.79 552.062 475.085 549.118 479.102 546.081 478.761 543.044 478.422 541.065 473.854 541.659 468.558 542.255 463.263 545.198 459.246 548.235 459.586ZM144.967 447.254C147.761 447.628 151.158 450.348 153.551 454.437 156.741 459.89 156.935 465.715 153.986 467.446 151.035 469.178 146.057 466.161 142.867 460.707 139.678 455.256 139.483 449.431 142.434 447.7 143.171 447.266 144.035 447.13 144.967 447.254ZM574.941 447.059C575.874 446.934 576.74 447.07 577.479 447.503 580.433 449.231 580.24 455.045 577.044 460.488 573.848 465.931 568.862 468.943 565.906 467.214 562.951 465.485 563.145 459.671 566.341 454.228 568.737 450.146 572.141 447.431 574.941 447.059ZM175.746 421.418 183.041 429.183C206.193 450.485 234.77 467.59 266.946 478.971L288.298 485.506 297.422 480.041C316.656 469.923 337.802 464.329 360 464.329 382.198 464.329 403.344 469.923 422.578 480.041L431.703 485.506 453.054 478.971C485.23 467.59 513.807 450.485 536.958 429.183L544.254 421.418 543.969 421.538C517.711 431.533 488.756 439.448 457.846 444.865L442.699 447.174 437.643 448.935C382.621 465.34 332.921 463.713 286.62 451.403L268.388 445.816 262.154 444.865C231.244 439.448 202.289 431.533 176.031 421.538ZM488.711 391.51C426.895 428.191 349.576 468.847 251.584 425.441L261.604 441.056 281.736 447.227C335.234 461.449 392.986 462.301 457.601 439.815L467.006 436.306ZM626.334 335.967 623.625 342.051C585.528 417.896 520.276 475.473 441.982 499.522L436.643 500.949 431.343 501.745C389.6 505.627 373.759 473.781 339.886 486.312L336.453 488.369 272.781 535.762C294.76 572.115 331.17 535.081 343.134 524.819 347.379 521.178 350.037 520.537 358.21 524.209L453.797 569.504 455.745 568.429C498.462 543.262 544.625 496.259 559.63 471.924 560.494 470.521 562.477 469.623 563.821 469.828 565.167 470.033 565.877 471.343 564.198 474.356 553.222 494.052 511.024 541.478 466.998 568.327L459.883 572.388 496.594 589.784 509.54 581.934C580.749 533.914 627.569 452.593 627.569 360.357ZM93.6622 335.967 92.4309 360.399C92.4309 466.514 154.072 558.207 243.445 601.511L258.624 608.128 270.89 590.549C272.548 588.175 274.607 586.249 276.913 584.8L281.732 582.941 273.026 579.512C222.469 557.119 168.332 497.367 155.69 474.601 154.014 471.582 154.723 470.27 156.066 470.064 157.409 469.859 159.388 470.759 160.25 472.163 177.533 500.294 236.227 558.654 283.265 578.76L291.927 582.035 292.437 582.044C295.098 582.612 297.692 583.713 300.062 585.372 302.434 587.032 304.356 589.095 305.804 591.403L307.599 596.075 315.043 593.204C320.323 592.267 325.959 593.348 330.701 596.667 333.071 598.327 334.994 600.389 336.44 602.697L338.236 607.37 345.682 604.498C350.959 603.562 356.596 604.643 361.337 607.962 366.079 611.282 369.028 616.213 369.963 621.501L369.861 627.569 386.991 626.703C392.044 626.189 397.055 625.533 402.022 624.742L409.643 623.304 391.771 614.793C388.997 613.472 387.818 610.149 389.137 607.37 390.455 604.591 393.773 603.409 396.547 604.729L426.853 619.162 445.379 614.021 448.597 612.794 411.228 594.998C408.454 593.677 407.275 590.354 408.593 587.575 409.912 584.796 413.23 583.614 416.004 584.935L462.994 607.313 463.688 607.049 486.575 596.004 359.994 536.319C352.929 533.036 349.754 531.29 343.009 537.577 293.309 583.9 267.003 550.205 262.341 533.923L335.416 478.634 331.104 478.726C304.51 481.859 294.252 500.756 274.609 498.608L273.794 498.452 258.432 493.097C188.867 465.98 131.228 411.709 96.3681 342.062ZM428.313 268.141 424.481 281.279C399.09 349.971 323.169 397.053 271.811 405.883L260.137 407.149 274.806 415.558C354.338 454.726 451.175 415.831 500.46 340.528ZM360.711 200.313C360.407 318.784 280.637 379.341 241.971 393.871L244.065 395.444 257.249 395.001C338.488 387.14 397.611 320.501 415.867 267.483L418.499 258.294ZM503.112 176.814 495.541 186.387 500.419 190.103C538.437 221.675 565.732 265.852 575.986 316.277L577.028 323.149 589.116 323.149 587.69 313.747C576.855 260.461 548.011 213.777 507.835 180.413ZM216.889 176.814 212.165 180.413C171.99 213.777 143.145 260.461 132.31 313.747L130.884 323.149 144.012 323.149 145.054 316.277C155.308 265.852 182.603 221.675 220.621 190.103L224.85 186.88ZM360 162.928C264.544 162.928 184.901 230.725 166.482 320.854L166.133 323.149 179.868 323.149 184.327 305.782C207.685 230.586 277.735 175.989 360.52 175.989 443.305 175.989 513.354 230.586 536.712 305.782L541.172 323.149 553.867 323.149 553.517 320.854C535.099 230.725 455.456 162.928 360 162.928ZM454.025 138.106 439.591 166.779 444.189 169.094 453.42 150.759C453.896 149.812 454.295 149.002 454.618 148.329 454.94 147.656 455.179 147.132 455.333 146.759L455.433 146.809C455.452 147.137 455.475 147.466 455.5 147.795 455.527 148.127 455.564 148.572 455.617 149.132L458.706 176.401 463.923 179.028 478.359 150.356 473.76 148.041 464.651 166.136C464.16 167.11 463.756 167.929 463.438 168.596 463.118 169.263 462.878 169.788 462.718 170.176L462.637 170.135C462.626 169.694 462.604 169.279 462.576 168.888 462.547 168.498 462.513 168.042 462.474 167.521L459.563 140.894ZM426.71 134.544 426.839 134.583C426.811 134.98 426.797 135.315 426.8 135.589 426.802 135.863 426.813 136.174 426.831 136.523L427.303 149.987 417.691 147.049 425.617 136.128C425.827 135.85 426.007 135.592 426.157 135.357 426.307 135.123 426.492 134.851 426.71 134.544ZM279.945 132.389 275.141 134.533 279.213 157.67C279.312 158.182 279.39 158.576 279.447 158.852 279.506 159.129 279.59 159.536 279.699 160.076L279.618 160.112C279.309 159.677 279.066 159.341 278.885 159.103 278.705 158.865 278.467 158.558 278.17 158.185L263.284 139.823 258.398 142.004 261.77 165.38C261.858 165.945 261.927 166.372 261.974 166.662 262.021 166.95 262.1 167.365 262.21 167.904L262.108 167.949C261.793 167.502 261.542 167.152 261.357 166.9 261.17 166.648 260.919 166.331 260.602 165.949L245.929 147.568 240.715 149.893 261.912 175.588 267.533 173.079 264.239 150.698C264.177 150.267 264.113 149.875 264.046 149.522 263.977 149.169 263.884 148.748 263.765 148.262L263.846 148.225C264.11 148.631 264.348 148.974 264.563 149.254 264.777 149.534 265.034 149.861 265.332 150.234L279.696 167.652 285.135 165.225ZM304.384 131.558C304.559 131.915 304.717 132.212 304.856 132.447 304.996 132.683 305.162 132.946 305.352 133.239L312.52 144.646 302.732 146.93 304.104 133.507C304.146 133.161 304.172 132.848 304.184 132.57 304.196 132.291 304.218 131.964 304.254 131.588ZM425.584 128.581 404.769 155.786 410.228 157.454 414.999 150.955 427.374 154.736 427.804 162.826 433.285 164.501 431.321 130.335ZM306.128 125.633 300.286 126.997 295.943 160.975 301.501 159.677 302.364 151.66 314.965 148.719 319.399 155.5 324.979 154.197ZM339.361 124.789C341.252 124.647 342.71 124.99 343.738 125.818 344.765 126.646 345.338 127.841 345.456 129.404 345.583 131.116 345.144 132.54 344.137 133.678 343.131 134.818 341.741 135.453 339.971 135.586L335.775 135.901 334.964 125.119ZM394.477 121.512C391.496 121.074 388.869 121.521 386.599 122.854 384.329 124.186 382.98 126.307 382.553 129.216 382.194 131.653 382.654 133.7 383.934 135.359 385.213 137.018 387.464 138.484 390.687 139.757 392.666 140.547 394.091 141.427 394.959 142.4 395.825 143.372 396.158 144.552 395.953 145.94 395.742 147.373 395.081 148.414 393.967 149.064 392.853 149.715 391.38 149.906 389.549 149.636 388.014 149.411 386.727 148.858 385.686 147.982 384.646 147.105 383.9 145.902 383.446 144.372L378.523 146.001C379.146 148.219 380.367 150.043 382.186 151.472 384.005 152.901 386.25 153.812 388.923 154.205 392.392 154.715 395.198 154.201 397.341 152.66 399.484 151.12 400.761 148.94 401.177 146.12 401.564 143.477 401.096 141.258 399.768 139.464 398.441 137.67 396.149 136.149 392.893 134.901 390.783 134.077 389.358 133.249 388.621 132.416 387.884 131.584 387.606 130.547 387.788 129.308 387.97 128.067 388.575 127.142 389.599 126.53 390.625 125.919 391.964 125.736 393.617 125.979 394.946 126.175 396.036 126.614 396.885 127.297 397.735 127.98 398.407 129 398.903 130.354L403.673 128.838C402.924 126.752 401.765 125.093 400.197 123.858 398.629 122.624 396.722 121.843 394.477 121.512ZM339.617 120.415 329.325 121.189 331.732 153.199 337.044 152.799 336.101 140.254 339.004 140.037C339.926 139.967 340.727 140.123 341.407 140.507 342.087 140.889 342.947 141.834 343.988 143.343L349.813 151.84 355.907 151.381 349.194 141.806C348.439 140.726 347.762 139.89 347.165 139.299 346.566 138.708 345.904 138.253 345.176 137.934L345.171 137.866C347.13 137.046 348.63 135.791 349.67 134.105 350.709 132.418 351.154 130.547 350.999 128.493 350.787 125.681 349.674 123.569 347.66 122.156 345.646 120.743 342.965 120.163 339.617 120.415ZM364.274 119.565 363.077 151.643 368.401 151.842 369.598 119.763ZM360 92.4308C230.83 92.4308 123.061 184.415 98.1362 306.695L95.6354 323.149 108.758 323.149 110.875 309.22C134.637 192.644 237.378 104.952 360.519 104.952 483.662 104.952 586.403 192.644 610.165 309.22L612.282 323.149 624.365 323.149 621.864 306.695C596.939 184.415 489.17 92.4308 360 92.4308ZM360 70C520.162 70 650 199.838 650 360 650 520.162 520.162 650 360 650 199.838 650 70 520.162 70 360 70 199.838 199.838 70 360 70Z" fill="#FFFFFF" fill-rule="evenodd"/></g></svg>