<svg width="720" height="720" xmlns="http://www.w3.org/2000/svg" xmlns:xlink="http://www.w3.org/1999/xlink" overflow="hidden"><g><rect x="0" y="0" width="720" height="720" fill="#FFFFFF" fill-opacity="0"/><path d="M72 167.002C72 113.982 114.982 71 168.002 71L551.998 71C605.018 71 648 113.982 648 167.002L648 551.998C648 605.018 605.018 648 551.998 648L168.002 648C114.982 648 72 605.018 72 551.998Z" fill="#C00000" fill-rule="evenodd"/><path d="M252.944 136.012C252.944 136.012 264.23 206.499 215.86 234.012 167.702 207.048 178.013 136.352 178.013 136.352 198.55 146.203 215.437 136.379 215.437 136.379 215.437 136.379 233.047 146.458 252.946 136.013Z" fill="#F2F2F2" fill-rule="evenodd"/><path d="M172.703 128.017C168.768 128.093 160.24 129.679 157.995 141.644 157.995 141.644 150.564 147.094 143.968 158.378 143.968 158.378 143.198 156.839 145.441 154.147 145.441 154.147 152.487 146.645 147.554 131.001 147.554 131.001 135.863 144.081 142.302 155.429 142.302 155.429 143.454 156.711 143.516 158.891 143.516 158.891 136.726 169.919 134.998 181.46 134.998 181.46 133.525 178.127 134.037 176.011 134.037 176.011 137.24 167.676 136.088 161.905 136.088 161.905 134.422 154.725 131.154 150.814 131.154 150.814 120.519 164.021 130.128 174.152 130.128 174.152 130.898 174.729 132.179 178.127L133.461 181.525 134.357 184.411C134.357 184.411 132.244 198.004 133.654 205.89 133.654 205.89 130.322 201.594 130.257 198.324 130.257 198.324 132.564 183.835 121.674 174.281 121.674 174.281 115.587 187.169 122.121 194.67 122.121 194.67 125.004 198.004 127.056 199.991 127.056 199.991 132.755 206.018 134.101 209.673 134.101 209.673 135.895 222.047 137.688 225.061 137.688 225.061 132.629 222.817 131.668 215.059 131.668 215.059 130.737 205.794 119.623 199.671 119.623 199.671 115.683 214.481 129.169 221.662 129.169 221.662 137.432 225.83 139.098 229.228 139.098 229.228 145.247 242.436 148.386 245.77 148.386 245.77 145.441 245.322 142.687 242.245 142.687 242.245 136.15 226.087 123.147 224.805 123.147 224.805 122.889 241.09 140.891 245.386 140.891 245.386 146.722 245.898 149.541 247.372 149.541 247.372 156.522 256.284 162.545 261.157 162.545 261.157 155.817 261.093 154.218 257.758 154.218 257.758 149.154 246.987 132.755 247.372 132.755 247.372 135.38 261.928 154.344 261.992 154.344 261.992 162.8 261.541 164.914 263.016 164.914 263.016 175.421 271.032 181.891 273.468 181.891 273.468 177.855 273.981 174.972 272.763 174.972 272.763 159.659 262.056 148.257 269.621 148.257 269.621 153.962 281.227 174.972 275.97 174.972 275.97 183.749 274.494 185.413 275.136 185.413 275.136 197.907 279.943 201.813 280.521 201.813 280.521 197.778 283.023 191.244 280.201 191.244 280.201 182.596 275.265 172.665 283.215 172.665 283.215 180.801 293.537 196.943 284.945 196.943 284.945 203.351 280.905 206.363 281.418L210.91 282.188C210.91 282.188 202.39 290.907 194.509 295.459 194.509 295.459 192.781 296.165 194.254 296.806 194.254 296.806 200.668 299.756 206.112 300.012 206.112 300.012 213.858 292.206 215.587 283.15 217.865 293.01 225.518 299.948 225.518 299.948 230.964 299.692 237.24 296.679 237.24 296.679 238.715 296.037 236.984 295.332 236.984 295.332 229.104 290.779 220.266 282.188 220.266 282.188L224.813 281.418C227.823 280.905 234.23 284.945 234.23 284.945 250.373 293.537 258.509 283.214 258.509 283.214 248.58 275.264 239.93 280.2 239.93 280.2 233.396 283.021 229.36 280.521 229.36 280.521 233.267 279.943 245.761 275.135 245.761 275.135 247.425 274.493 256.202 275.97 256.202 275.97 277.214 281.227 282.916 269.62 282.916 269.62 271.512 262.055 256.202 272.763 256.202 272.763 253.321 273.982 249.283 273.468 249.283 273.468 255.752 271.032 266.26 263.016 266.26 263.016 268.373 261.541 276.829 261.992 276.829 261.992 295.793 261.928 298.418 247.373 298.418 247.373 282.017 246.987 276.958 257.758 276.958 257.758 275.357 261.093 268.631 261.157 268.631 261.157 274.651 256.284 281.635 247.373 281.635 247.373 284.454 245.898 290.282 245.386 290.282 245.386 308.283 241.09 308.029 224.804 308.029 224.804 295.023 226.086 288.489 242.245 288.489 242.245 285.733 245.322 282.787 245.771 282.787 245.771 285.926 242.437 292.075 229.229 292.075 229.229 293.742 225.83 302.007 221.662 302.007 221.662 315.491 214.481 311.551 199.671 311.551 199.671 300.436 205.795 299.506 215.059 299.506 215.059 298.545 222.817 293.484 225.061 293.484 225.061 295.277 222.048 297.072 209.673 297.072 209.673 298.418 206.019 304.12 199.991 304.12 199.991 306.169 198.004 309.053 194.671 309.053 194.671 315.587 187.169 309.502 174.282 309.502 174.282 298.609 183.834 300.917 198.322 300.917 198.322 300.852 201.592 297.522 205.889 297.522 205.889 298.932 198.002 296.816 184.409 296.816 184.409L297.713 181.524 298.994 178.126C300.276 174.728 301.046 174.151 301.046 174.151 310.654 164.02 300.02 150.813 300.02 150.813 296.752 154.724 295.088 161.905 295.088 161.905 293.933 167.675 297.139 176.009 297.139 176.009 297.651 178.125 296.178 181.459 296.178 181.459 294.447 169.918 287.657 158.89 287.657 158.89 287.722 156.71 288.872 155.428 288.872 155.428 295.31 144.08 283.619 131 283.619 131 278.687 146.644 285.733 154.146 285.733 154.146 287.975 156.839 287.208 158.377 287.208 158.377 280.609 147.093 273.179 141.643 273.179 141.643 270.231 125.934 256.457 128.115 256.457 128.115 257.514 142.285 272.217 143.824 272.217 143.824 280.416 151.005 284.774 159.211 284.774 159.211 282.852 158.442 281.826 157.287 281.826 157.287 273.85 144.336 260.493 146.516 260.493 146.516 265.906 161.166 282.017 161.071 282.017 161.071 286.471 161.295 287.657 164.341 287.657 164.341 291.373 170.496 293.933 182.101 293.933 182.101 292.91 181.075 291.564 179.44 291.564 179.44 285.348 162.482 272.217 163.122 272.217 163.122 276.253 179.984 289.386 181.01 289.386 181.01 291.822 181.523 294.447 185.114 294.447 185.114 295.92 195.18 295.279 203.387 295.279 203.387 295.215 202.746 294.191 200.886 294.191 200.886 293.23 199.091 292.716 195.179 292.716 195.179 290.412 183.318 279.457 181.267 279.457 181.267 277.31 196.591 293.23 202.329 293.23 202.329 297.715 206.305 291.37 223.775 291.37 223.775 291.243 223.134 290.988 220.762 290.988 220.762 292.365 202.392 278.367 199.797 278.367 199.797 278.271 208.58 279.713 211.593 279.713 211.593 281.09 215.568 288.104 220.699 288.104 220.699 289.835 222.366 290.412 225.251 290.412 225.251 289.321 232.624 279.007 246.664 279.007 246.664 278.881 243.523 280.033 241.408 280.033 241.408 287.399 228.071 278.175 219.352 278.175 219.352 269.205 231.214 277.021 240.318 277.021 240.318 278.237 242.562 277.726 248.331 277.726 248.331 274.78 252.756 264.467 261.346 264.467 261.346L264.531 260.963C265.81 257.052 267.029 255.641 267.029 255.641 275.613 245.575 267.221 233.586 267.221 233.586 259.276 242.53 262.671 253.397 262.671 253.397 264.849 258.558 262.48 262.181 262.48 262.181 258.54 266.861 246.27 272.118 246.27 272.118 248.386 269.618 250.949 267.247 250.949 267.247 260.175 259.906 255.499 246.73 255.499 246.73 243.485 253.494 246.464 267.503 246.464 267.503 246.079 272.568 242.493 273.85 242.493 273.85 237.24 276.157 229.681 277.761 229.681 277.761 230.448 276.35 231.794 275.901 231.794 275.901 244.862 268.528 241.018 257.116 241.018 257.116 228.655 261.861 228.975 275.708 228.975 275.708 228.846 278.53 226.477 278.659 226.477 278.659L222.312 279.236C227.469 276.03 227.055 272.632 227.055 272.632 226.477 264.2 215.587 266.926 215.587 266.926 215.587 266.926 204.697 264.2 204.118 272.632 204.118 272.632 203.702 276.03 208.859 279.236L204.694 278.659C204.694 278.659 202.325 278.529 202.196 275.708 202.196 275.708 202.516 261.861 190.153 257.116 190.153 257.116 186.309 268.528 199.38 275.901 199.38 275.901 200.723 276.35 201.493 277.761 201.493 277.761 193.933 276.157 188.678 273.85 188.678 273.85 185.092 272.568 184.71 267.503 184.71 267.503 187.686 253.494 175.675 246.73 175.675 246.73 170.998 259.906 180.225 267.247 180.225 267.247 182.785 269.617 184.901 272.118 184.901 272.118 172.634 266.86 168.694 262.181 168.694 262.181 166.322 258.558 168.5 253.397 168.5 253.397 171.895 242.53 163.953 233.586 163.953 233.586 155.559 245.575 164.144 255.641 164.144 255.641 165.361 257.051 166.642 260.963L166.707 261.346C166.707 261.346 156.393 252.756 153.445 248.331 153.445 248.331 152.934 242.562 154.151 240.318 154.151 240.318 161.966 231.214 152.998 219.352 152.998 219.352 143.772 228.071 151.138 241.407 151.138 241.407 152.293 243.522 152.164 246.664 152.164 246.664 141.85 232.623 140.762 225.251 140.762 225.251 141.338 222.365 143.067 220.698 143.067 220.698 150.084 215.568 151.461 211.593 151.461 211.593 152.902 208.58 152.807 199.796 152.807 199.796 138.809 202.392 140.186 220.761 140.186 220.761 139.93 223.134 139.801 223.775 139.801 223.775 133.458 206.305 137.943 202.329 137.943 202.329 153.861 196.591 151.717 181.267 151.717 181.267 140.762 183.318 138.455 195.179 138.455 195.179 137.943 199.091 136.982 200.886 136.982 200.886 135.957 202.746 135.892 203.387 135.892 203.387 135.254 195.18 136.726 185.114 136.726 185.114 139.352 181.523 141.788 181.01 141.788 181.01 154.92 179.984 158.956 163.122 158.956 163.122 145.823 162.482 139.61 179.44 139.61 179.44 138.264 181.075 137.238 182.101 137.238 182.101 139.801 170.496 143.516 164.341 143.516 164.341 144.7 161.295 149.154 161.071 149.154 161.071 165.265 161.166 170.681 146.516 170.681 146.516 157.321 144.336 149.345 157.287 149.345 157.287 148.322 158.442 146.4 159.211 146.4 159.211 150.756 151.005 158.956 143.824 158.956 143.824 173.659 142.285 174.714 128.115 174.714 128.115 174.231 128.038 173.425 128.017 173.208 128.012 172.966 128.011 172.703 128.016ZM215.589 269.428C217.344 269.428 218.767 270.003 218.767 270.712 218.767 271.421 217.344 271.994 215.589 271.994 213.834 271.994 212.409 271.421 212.409 270.712 212.409 270.003 213.834 269.428 215.589 269.428ZM207.771 271.093 207.771 271.093C207.778 271.092 208.539 270.969 208.541 272.504 208.541 272.504 208.379 274.46 209.179 275.902 209.179 275.902 210.396 277.632 210.461 278.337 210.461 278.337 208.797 278.402 207.451 274.49 207.451 274.49 206.619 270.903 207.771 271.093ZM223.405 271.093C224.56 270.9 223.725 274.489 223.725 274.489 222.379 278.401 220.713 278.336 220.713 278.336 220.777 277.631 221.994 275.902 221.994 275.902 222.795 274.459 222.635 272.504 222.635 272.504 222.635 270.964 223.405 271.093 223.405 271.093ZM215.591 275.363C217.052 275.363 218.233 275.937 218.233 276.646 218.233 277.355 217.052 277.929 215.591 277.929 214.131 277.929 212.947 277.355 212.947 276.646 212.947 275.937 214.131 275.363 215.591 275.363ZM215.591 279.811C216.904 279.811 217.966 280.529 217.966 281.416 217.966 282.302 216.904 283.02 215.591 283.02 214.277 283.02 213.213 282.302 213.213 281.416 213.213 280.529 214.277 279.811 215.591 279.811Z" fill="#FFC000" fill-rule="evenodd"/><path d="M252.238 190.898C252.691 193.196 252.935 195.57 252.935 198.002 252.935 218.176 236.534 234.529 216.303 234.529 196.072 234.529 179.673 218.176 179.673 198.002 179.673 195.263 179.57 192.578 180.143 190.012 174.819 197.187 172.087 206.049 172.087 215.621 172.087 239.584 191.822 258.931 216.087 259.012 240.896 259.094 260.087 239.586 260.087 215.621 260.087 206.431 257.18 197.915 252.238 190.898Z" fill="#385723" fill-rule="evenodd"/><path d="M180.545 183.413 180.545 137.467C179.706 137.124 178.862 136.762 178.012 136.353 178.012 136.353 174.723 158.917 180.545 183.412M185.157 188.528 185.157 139.073C184 138.741 182.826 138.355 181.636 137.903L181.636 187.623C181.861 188.431 182.099 189.239 182.346 190.047M189.767 186.002 189.767 140.125C188.617 139.928 187.443 139.678 186.248 139.368L186.248 187.931M194.38 183.475 194.38 140.662C193.237 140.594 192.063 140.48 190.858 140.306L190.858 185.404M190.858 209.156 190.858 209.493C191.949 211.309 193.118 213.093 194.38 214.833L194.38 207.029M199.025 180.928 199.025 140.682C197.885 140.74 196.696 140.752 195.47 140.711L195.47 182.877M195.47 206.37 195.47 216.292C196.59 217.756 197.773 219.187 199.025 220.578L199.025 220.578 199.025 204.222M203.6 178.423 203.6 140.198C202.497 140.375 201.337 140.519 200.116 140.612L200.116 180.333M200.116 203.563 200.116 221.756C201.226 222.928 202.385 224.07 203.6 225.177L203.6 201.457M208.393 175.797 208.393 139.14C207.264 139.458 206.04 139.759 204.69 140.011L204.69 177.825M204.69 200.797 204.69 226.139C205.874 227.171 207.107 228.171 208.393 229.135L208.393 198.559M212.603 173.488 212.603 137.714C211.743 138.064 210.686 138.445 209.483 138.819L209.483 175.198M209.483 197.899 209.483 229.949C210.489 230.672 211.536 231.367 212.603 232.046L212.603 196.012M250.03 173.39 250.03 186.932C251.425 181.707 252.378 176.525 253.01 171.581M254.086 150.554C253.894 141.734 252.977 136.012 252.977 136.012 251.988 136.531 251.007 136.987 250.03 137.409L250.03 152.977M245.42 176.176 245.42 200.266C246.786 197.115 247.953 193.92 248.939 190.722L248.939 174.051M248.939 153.576 248.939 137.868C247.751 138.341 246.577 138.747 245.42 139.091L245.42 155.505M240.808 178.966 240.808 209.333C242.096 207.157 243.267 204.936 244.327 202.685L244.327 176.837M244.327 156.102 244.327 139.394C243.134 139.712 241.96 139.968 240.808 140.166L240.808 158.03M236.369 181.647 236.369 215.964C237.557 214.383 238.674 212.767 239.715 211.119L239.715 179.622M239.715 158.627 239.715 140.336C238.574 140.499 237.457 140.61 236.369 140.673L236.369 160.463M231.809 184.402 231.809 221.417C233.028 220.105 234.182 218.756 235.276 217.376L235.276 182.305M235.276 161.06 235.276 140.726C234.083 140.763 232.925 140.744 231.809 140.684L231.809 140.684 231.809 162.961M227.106 187.245 227.106 225.998C228.365 224.885 229.57 223.739 230.718 222.559L230.718 185.059M230.718 163.556 230.718 140.614C229.451 140.513 228.246 140.357 227.106 140.165L227.106 165.536M222.615 189.958 222.615 229.628C223.789 228.762 224.922 227.87 226.013 226.949L226.013 187.904M226.013 166.136 226.013 139.969C224.791 139.731 223.655 139.457 222.615 139.166L222.615 167.997M218.492 192.45 218.492 232.439C219.533 231.784 220.54 231.106 221.524 230.411L221.524 190.617M221.524 168.596 221.524 138.837C220.374 138.48 219.338 138.115 218.492 137.777L218.492 170.257M213.694 195.349 213.694 232.736C214.409 233.171 215.134 233.597 215.876 234.012 216.394 233.717 216.897 233.411 217.401 233.107L217.401 193.11M217.401 170.856 217.401 137.318C216.156 136.771 215.453 136.376 215.453 136.376 215.453 136.376 214.83 136.734 213.694 137.244L213.694 172.886" fill="#FFC000" fill-rule="evenodd"/><path d="M240.955 166.873C240.795 167.804 240.731 168.35 240.731 168.35 240.284 168.253 239.549 168.028 239.549 168.028L239.676 166.615C240.38 166.744 240.955 166.873 240.955 166.873ZM234.207 162.954 234.176 164.239 235.455 164.368 235.486 162.987ZM213.868 180.329 214.061 178.947 215.436 179.012 215.596 177.053 213.708 176.957 213.612 178.434 212.013 178.402 212.078 180.2ZM225.223 183.379 226.564 184.214 226.948 182.834 228.035 183.379 228.419 181.902 227.075 181.292 226.757 182.544 225.733 182.223ZM202.325 191.301C197.976 200.261 205.633 198.944 205.633 198.944 210.607 197.884 210.35 194.48 210.35 194.48 205.153 198.606 203.22 196.535 203.22 196.535 200.133 193.564 205.714 188.956 205.714 188.956L204.69 187.35C204.179 188.924 201.716 189.631 201.716 189.631 199.095 190.224 198.551 191.044 198.551 191.044 197.03 192.922 199.732 193.902 199.732 193.902 198.582 191.622 202.325 191.3 202.325 191.3ZM217.002 188.132C213.133 190.541 211.278 189.417 211.278 189.417 211.352 191.739 208.239 192.371 208.239 192.371 207.232 192.586 206.865 190.959 206.865 190.959 212.927 189.966 208.337 186.591 208.337 186.591L208.977 185.274C208.977 185.274 209.125 185.46 211.023 187.426 213.228 189.711 218.098 185.141 218.098 185.141 219.69 183.496 218.379 183.251 218.379 183.251 216.522 186.591 214.827 185.178 214.827 185.178 212.846 183.54 214.827 181.484 214.827 181.484 217.078 179.358 219.656 182.448 219.656 182.448 221.771 185.189 217.004 188.132 217.004 188.132ZM217.014 182.442C217.014 182.442 216.283 181.898 215.758 182.585 215.758 182.585 215.059 183.528 215.918 183.64 215.918 183.64 216.809 183.64 217.014 182.442ZM228.715 173.324C228.715 173.324 229.276 171.898 227.657 171.612 227.657 171.612 225.807 171.232 224.939 173.586 224.939 173.586 223.425 177.149 225.893 177.029 225.893 177.029 229.328 176.552 227.283 178.25 227.283 178.25 221.384 182.573 220.492 177.466 220.492 177.466 219.267 184.773 226.153 181.082 226.153 181.082 229.758 179.557 228.498 176.506 228.498 176.506 228.108 175.329 227.111 175.46 227.111 175.46 224.972 175.99 225.764 174.021 225.764 174.021 226.242 172.54 227.457 173.629 227.457 173.629 228.29 174.427 228.715 173.324ZM243.982 167.922 243.32 169.549C243.32 169.549 244.688 170.66 243.96 171.219 243.96 171.219 242.895 171.925 240.38 171.026 240.38 171.026 238.033 170.062 235.262 169.292 235.262 169.292 233.921 168.949 234.837 168.264L239.762 164.175C239.762 164.175 239.89 162.44 239.953 162.012 239.953 162.012 233.343 166.744 233.45 167.857L233.493 168.35 233.706 169.527C233.706 169.527 233.942 170.426 235.517 170.919L237.095 171.411C237.095 171.411 238.332 171.711 237.713 172.118 237.713 172.118 233.295 173.408 233.023 178.755 233.023 178.755 232.911 179.445 232.278 179.462 232.278 179.462 231.145 179.688 231.168 177.556 231.168 177.556 231.19 177.128 231.063 177.171 231.063 177.171 229.922 178.926 231.147 180.468 231.147 180.468 232.816 182.448 234.271 179.975 234.271 179.975 234.67 179.252 234.718 177.583 234.718 177.583 234.687 175.126 237.515 173.408 237.515 173.408 238.332 172.958 238.759 172.225 238.759 172.225 238.928 172.032 239.783 172.247 239.783 172.247 243.23 173.29 244.514 172.204 244.514 172.204 246.106 171.075 243.982 167.922ZM234.207 162.954 234.176 164.239 235.453 164.368 235.486 162.987ZM213.868 180.329 214.059 178.947 215.436 179.012 215.596 177.053 213.708 176.957 213.612 178.434 212.013 178.402 212.078 180.2ZM225.22 183.379 226.564 184.214 226.948 182.834 228.035 183.379 228.419 181.902 227.075 181.292 226.755 182.544 225.733 182.223ZM202.322 191.301C197.976 200.261 205.633 198.944 205.633 198.944 210.607 197.885 210.35 194.48 210.35 194.48 205.153 198.607 203.22 196.536 203.22 196.536 200.133 193.565 205.714 188.956 205.714 188.956L204.69 187.35C204.179 188.924 201.716 189.631 201.716 189.631 199.093 190.225 198.551 191.044 198.551 191.044 197.03 192.922 199.732 193.902 199.732 193.902 198.582 191.622 202.322 191.301 202.322 191.301ZM217.002 188.132C213.133 190.541 211.278 189.417 211.278 189.417 211.352 191.739 208.239 192.371 208.239 192.371 207.232 192.586 206.865 190.959 206.865 190.959 212.927 189.966 208.335 186.591 208.335 186.591L208.975 185.274C208.975 185.274 209.125 185.461 211.023 187.426 213.228 189.711 218.098 185.141 218.098 185.141 219.687 183.496 218.377 183.251 218.377 183.251 216.522 186.591 214.827 185.178 214.827 185.178 212.844 183.54 214.827 181.485 214.827 181.485 217.078 179.358 219.656 182.448 219.656 182.448 221.771 185.189 217.002 188.132 217.002 188.132ZM217.014 182.442C217.014 182.442 216.283 181.898 215.758 182.585 215.758 182.585 215.059 183.528 215.916 183.64 215.916 183.64 216.809 183.64 217.014 182.442ZM228.715 173.324C228.715 173.324 229.273 171.898 227.657 171.612 227.657 171.612 225.807 171.232 224.939 173.586 224.939 173.586 223.425 177.149 225.893 177.029 225.893 177.029 229.328 176.552 227.283 178.25 227.283 178.25 221.384 182.574 220.492 177.466 220.492 177.466 219.267 184.773 226.153 181.083 226.153 181.083 229.758 179.557 228.498 176.507 228.498 176.507 228.108 175.329 227.111 175.46 227.111 175.46 224.97 175.99 225.764 174.022 225.764 174.022 226.242 172.54 227.457 173.63 227.457 173.63 228.29 174.427 228.715 173.324ZM243.982 167.922 243.32 169.549C243.32 169.549 244.688 170.66 243.96 171.219 243.96 171.219 242.895 171.926 240.38 171.026 240.38 171.026 238.033 170.063 235.262 169.292 235.262 169.292 233.921 168.95 234.837 168.264L239.759 164.175C239.759 164.175 239.888 162.441 239.953 162.012 239.953 162.012 233.343 166.744 233.45 167.857L233.493 168.35 233.706 169.527C233.706 169.527 233.94 170.426 235.517 170.919L237.095 171.411C237.095 171.411 238.332 171.711 237.713 172.118 237.713 172.118 233.295 173.408 233.023 178.755 233.023 178.755 232.911 179.445 232.278 179.462 232.278 179.462 231.145 179.688 231.168 177.556 231.168 177.556 231.19 177.128 231.061 177.171 231.061 177.171 229.92 178.927 231.147 180.468 231.147 180.468 232.816 182.449 234.271 179.976 234.271 179.976 234.67 179.253 234.718 177.583 234.718 177.583 234.687 175.126 237.515 173.408 237.515 173.408 238.332 172.958 238.757 172.225 238.757 172.225 238.928 172.032 239.781 172.247 239.781 172.247 243.23 173.29 244.514 172.204 244.514 172.204 246.106 171.075 243.982 167.923Z" fill="#FFEC00" fill-rule="evenodd"/></g></svg>