<svg width="720" height="720" xmlns="http://www.w3.org/2000/svg" xmlns:xlink="http://www.w3.org/1999/xlink" overflow="hidden"><g><rect x="0" y="0" width="720" height="720" fill="#FFFFFF" fill-opacity="0"/><path d="M72 167.002C72 113.982 114.982 71 168.002 71L551.998 71C605.018 71 648 113.982 648 167.002L648 551.998C648 605.018 605.018 648 551.998 648L168.002 648C114.982 648 72 605.018 72 551.998Z" fill="#C00000" fill-rule="evenodd"/><path d="M47.4228 192.025 45.1052 189.929C29.7708 174.655 20.2875 153.554 20.2875 130.243 20.2875 83.6201 58.2206 45.83 105.022 45.83 151.822 45.83 189.756 83.6201 189.756 130.243 189.756 153.554 180.272 174.655 164.938 189.929L162.62 192.025 163.73 191.359C191.655 172.559 210.022 140.725 210.022 104.623 210.022 46.8519 163.008 0.0249109 105.022 0.0249109 47.0352 0.0249109 0.0215399 46.8519 0.0215399 104.623 0.0215399 140.725 18.3878 172.559 46.3133 191.359Z" fill="#F2F2F2" fill-rule="evenodd" transform="matrix(1 0 0 -1 255 495)"/><path d="M0.0216849 45.7289 28.6707 45.7289 37.5217 73.9929 46.3727 45.7289 75.0217 45.7289 51.8424 28.2567 60.7011-0.00725969 37.5217 17.465 14.3424-0.00725969 23.201 28.2567Z" fill="#F2F2F2" fill-rule="evenodd" transform="matrix(1 0 0 -1 322 348)"/><path d="M0.0185938 0.00488864 9.01871 0.00488864 9.01871 158.005 0.0185938 158.005Z" fill="#F2F2F2" fill-rule="evenodd" transform="matrix(1 0 0 -1 307 423)"/><path d="M0.0235054 0.00488864 9.02362 0.00488864 9.02362 158.005 0.0235054 158.005Z" fill="#F2F2F2" fill-rule="evenodd" transform="matrix(1 0 0 -1 403 423)"/><path d="M0.0188323-0.0232442 0.0188323 19.2184 12.5188 28.9769 25.0188 19.2184 25.0188-0.0232442 12.5188 9.73524Z" fill="#F2F2F2" fill-rule="evenodd" transform="matrix(1 0 0 -1 299 283)"/><path d="M0.0238069-0.0232442 0.0238069 19.2184 12.5239 28.9769 25.0238 19.2184 25.0238-0.0232442 12.5239 9.73524Z" fill="#F2F2F2" fill-rule="evenodd" transform="matrix(1 0 0 -1 395 283)"/><path d="M0.0193206 19.9683 10.0194 39.9683 20.0193 19.9683 10.0194-0.0317124Z" fill="#F2F2F2" fill-rule="evenodd" transform="matrix(1 0 0 -1 302 265)"/><path d="M0.023203 19.9683 9.52326 39.9683 19.0232 19.9683 9.52326-0.0317124Z" fill="#F2F2F2" fill-rule="evenodd" transform="matrix(1 0 0 -1 398 265)"/><path d="M19.8567 120C29.4576 120.152 39.8099 113.98 49.8359 106.156L55.3308 101.653 67.9069 112.638C69.235 101.35 67.3224 92.2371 73.8799 85.6641 103.373 56.0893 143.652 15.605 149.017 0.00262661 130.992 3.4294 80.0047 55.9074 58.1996 67.9693 46.9594 74.1936 31.727 69.0534 15.1815 66.6046L42.0565 90.0688 39.7644 93.3364C30.7251 103.101 15.174 101.418 8.15346 93.071 7.78163 97.3014 4.03233 105.156 0.0174503 106.968 5.89186 116.194 12.6617 119.879 19.8567 120Z" fill="#F2F2F2" fill-rule="evenodd" transform="matrix(1 0 0 -1 207 398)"/><path d="M129.186 120C119.585 120.152 109.233 113.976 99.2072 106.161L93.7123 101.654 81.1362 112.641C79.8081 101.343 81.7207 92.2388 75.1632 85.6684 45.6698 56.0864 5.39154 15.6092 0.0255778 0.0026286 18.0511 3.432 69.0384 55.9043 90.8434 67.9678 102.084 74.1967 117.316 69.0527 133.862 66.602L106.987 90.0689 109.279 93.3389C118.318 103.103 133.869 101.419 140.89 93.0734 141.262 97.2994 145.011 105.152 149.026 106.973 143.151 116.199 136.381 119.878 129.186 120Z" fill="#F2F2F2" fill-rule="evenodd" transform="matrix(1 0 0 -1 364 398)"/></g></svg>