<svg width="720" height="720" xmlns="http://www.w3.org/2000/svg" xmlns:xlink="http://www.w3.org/1999/xlink" overflow="hidden"><g><rect x="0" y="0" width="720" height="720" fill="#FFFFFF" fill-opacity="0"/><path d="M72 167.002C72 113.982 114.982 71 168.002 71L551.998 71C605.018 71 648 113.982 648 167.002L648 551.998C648 605.018 605.018 648 551.998 648L168.002 648C114.982 648 72 605.018 72 551.998Z" fill="#FFC000" fill-rule="evenodd"/><path d="M168.002 71 360 71 360 360 72 360 72 167.178C72 114.06 114.982 71 168.002 71Z" fill="#F2F2F2" fill-rule="evenodd"/><path d="M178.001 102 330 102 330 330 102 330 102 177.878C102 135.972 136.027 102 178.001 102Z" fill="#262626" fill-rule="evenodd"/><path d="M263 215.5C263 246.152 237.928 271 207 271 176.072 271 151 246.152 151 215.5 151 184.848 176.072 160 207 160 237.928 160 263 184.848 263 215.5Z" fill="#F2F2F2" fill-rule="evenodd"/><path d="M283 215.5C283 246.152 258.152 271 227.5 271 196.848 271 172 246.152 172 215.5 172 184.848 196.848 160 227.5 160 258.152 160 283 184.848 283 215.5Z" fill="#262626" fill-rule="evenodd"/><path d="M280 216 253.643 207.5 253.643 180 237.356 202.247 211.005 193.749 227.289 215.996 211 238.246 237.356 229.749 253.643 252 253.643 224.498Z" fill="#F2F2F2" fill-rule="evenodd"/></g></svg>