<svg width="720" height="720" xmlns="http://www.w3.org/2000/svg" xmlns:xlink="http://www.w3.org/1999/xlink" overflow="hidden"><g><rect x="0" y="0" width="720" height="720" fill="#FFFFFF" fill-opacity="0"/><path d="M72 167.002C72 113.982 114.982 71 168.002 71L551.998 71C605.018 71 648 113.982 648 167.002L648 551.998C648 605.018 605.018 648 551.998 648L168.002 648C114.982 648 72 605.018 72 551.998Z" fill="#F2F2F2" fill-rule="evenodd"/><path d="M73.0807 565.769 646.919 565.769 646.05 571.476C643.492 583.991 638.505 595.621 631.604 605.849L630.656 607 89.3444 607 88.3957 605.849C81.4947 595.621 76.5081 583.991 73.9504 571.476ZM72 483.308 648 483.308 648 524.538 72 524.538ZM72 400.846 648 400.846 648 442.077 72 442.077ZM72 318.385 648 318.385 648 359.615 72 359.615ZM72 235.923 648 235.923 648 277.154 72 277.154ZM73.0807 153.461 646.919 153.461 647.504 157.3C647.832 160.531 648 163.81 648 167.128L648 194.692 72 194.692 72 167.128C72 163.81 72.1679 160.531 72.4957 157.3ZM168.002 71 551.998 71C578.508 71 602.509 81.7596 619.882 99.1554L630.656 112.231 89.3444 112.231 100.118 99.1554C117.491 81.7596 141.492 71 168.002 71Z" fill="#C00000" fill-rule="evenodd"/><path d="M72 359.779 360 359.779 360 401 72 401ZM168.002 71 360 71 360 359.779 72 359.779 72 167.105C72 114.028 114.982 71 168.002 71Z" fill="#002060" fill-rule="evenodd"/><path d="M261.305 171.833 267.038 210.973 289.223 178.196 277.327 215.946 311.568 196.001 284.454 224.875 324 221.721 287.026 235.997 324 250.274 284.454 247.119 311.568 275.993 277.327 256.048 289.223 293.798 267.038 261.021 261.305 300.161 255.571 261.021 233.386 293.798 245.282 256.048 211.041 275.993 238.155 247.119 198.609 250.274 235.583 235.997 198.609 221.721 238.155 224.875 211.041 196.001 245.282 215.946 233.386 178.196 255.571 210.973ZM229.153 173.437C194.527 158.106 154.003 173.688 138.639 208.239 123.276 242.79 138.891 283.227 173.516 298.557 191.229 306.4 211.44 306.4 229.153 298.557 194.527 323.347 146.318 315.435 121.474 280.883 96.6303 246.332 104.56 198.227 139.186 173.437 166.073 154.188 202.266 154.188 229.153 173.437Z" fill="#FFC000" fill-rule="evenodd"/></g></svg>