<svg width="720" height="720" xmlns="http://www.w3.org/2000/svg" xmlns:xlink="http://www.w3.org/1999/xlink" overflow="hidden"><g><rect x="0" y="0" width="720" height="720" fill="#FFFFFF" fill-opacity="0"/><path d="M72 167.002C72 113.982 114.982 71 168.002 71L551.998 71C605.018 71 648 113.982 648 167.002L648 551.998C648 605.018 605.018 648 551.998 648L168.002 648C114.982 648 72 605.018 72 551.998Z" fill="#FFC000" fill-rule="evenodd"/><path d="M167.93 71 360 71 360 360 100 99.1952 100.021 99.17C117.4 81.7651 141.41 71 167.93 71Z" fill="#C00000" fill-rule="evenodd"/><path d="M360 71 360 71 360 360 72 360 72 167.178C72 147.259 78.0443 128.754 88.3957 113.404L100.098 99.1952 360 360Z" fill="#262626" fill-rule="evenodd"/></g></svg>