<svg width="720" height="720" xmlns="http://www.w3.org/2000/svg" xmlns:xlink="http://www.w3.org/1999/xlink" overflow="hidden"><g><rect x="0" y="0" width="720" height="720" fill="#FFFFFF" fill-opacity="0"/><path d="M168.002 71 360 71 360 648 168.002 648C114.982 648 72 604.979 72 551.91L72 167.09C72 114.021 114.982 71 168.002 71Z" fill="#00B0F0" fill-rule="evenodd"/><path d="M360 71 551.998 71C605.018 71 648 114.021 648 167.09L648 551.91C648 604.979 605.018 648 551.998 648L360 648Z" fill="#FFC000" fill-rule="evenodd"/><rect x="264" y="71" width="192" height="577" fill="#F2F2F2"/><path d="M439.985 467.97C439.985 467.97 440.319 465.893 437.828 466.007L437.349 463.573C437.349 463.573 437.224 462.33 436.428 463.123 436.428 463.123 434.763 464.816 433.233 464.524L432.899 461.173C432.899 461.173 432.739 460.411 431.367 460.728 431.367 460.728 428.93 461.359 428.319 461.364 428.319 461.364 427.534 459.083 427.978 457.403 427.978 457.403 428.87 454.802 425.676 456.203L422.332 458.063 421.075 454.111C421.075 454.111 420.913 453.196 419.849 453.664L416.806 455.061 416.761 449.724C416.761 449.724 416.842 448.425 415.381 449.127 415.381 449.127 411.95 450.676 411.408 449.011 411.408 449.011 410.741 444.798 409.077 444.61L404.822 446.935 403.718 443.286 399.761 444.692 397.118 439.378C397.118 439.378 396.648 438.163 395.435 439.24L390.586 443.705C390.586 443.705 388.531 442.371 387.805 439.765 387.805 439.765 387.429 438.286 385.815 439.478L381.565 442.412C381.565 442.412 380.654 442.876 380.186 441.966L379.718 441.057 378.786 439.233C378.786 439.233 378.267 438.284 377.256 438.942 377.256 438.942 373.161 441.877 371.945 442.954 371.945 442.954 370.969 443.85 369.957 442.666 369.957 442.666 366.555 437.737 365.952 438.585L363.083 442.27C363.083 442.27 361.726 444.417 361.702 441.673L359.915 356.186C359.915 356.186 361.127 350.686 367.99 358.058 367.99 358.058 365.565 360.367 365.292 364.029 365.292 364.029 365.015 367.234 364.412 368.154 364.412 368.154 363.512 369.992 364.742 370.895 364.742 370.895 365.208 371.807 364.757 372.573 364.757 372.573 363.869 375.783 366.166 376.372 366.166 376.372 368.46 376.961 369.241 378.784 369.241 378.784 370.328 381.062 372.468 381.044 372.468 381.044 374.76 381.177 375.68 381.778 375.68 381.778 379.048 382.359 379.181 380.221 379.181 380.221 379.742 376.521 381.56 372.882 381.56 372.882 386.657 358.272 370.265 356.513 370.265 356.513 369.027 354.39 365.328 350.764L361.782 347.136C361.782 347.136 363.101 323.642 362.926 321.051 362.926 321.051 361.7 320.451 361.087 320.305L361.666 316.64C361.666 316.64 361.956 314.96 360.119 314.519 360.119 314.519 359.206 304.086 371.281 305.199 371.281 305.199 378.06 305.64 378.034 319.546 378.034 319.546 380.331 320.442 381.057 316.164 381.057 316.164 382.101 313.259 383.037 315.537 383.037 315.537 384.147 320.102 382.484 321.947 382.484 321.947 380.515 323.946 383.263 323.465 383.263 323.465 383.73 324.832 384.338 324.369L384.944 323.907 387.982 321.898C387.982 321.898 390.938 327.819 383.407 340.083 383.407 340.083 381.896 342.131 384.026 340.993L390.102 336.973C390.102 336.973 391.627 336.656 392.103 338.634 392.103 338.634 392.43 341.223 393.501 341.366 393.501 341.366 393.789 341.388 393.641 340.145 393.641 340.145 393.125 333.746 395.887 335.094 395.887 335.094 395.965 338.299 398.663 337.966 398.663 337.966 399.41 335.825 396.903 328.986 396.903 328.986 396.278 327.314 397.802 326.996 397.802 326.996 400.092 326.519 400.239 325.906 400.239 325.906 400.421 325.585 399.008 325.155 399.008 325.155 394.257 323.367 396.226 321.52 396.226 321.52 398.27 320.844 400.039 320.724 400.039 320.724 403.935 319.892 404.445 317.941 404.445 317.941 404.896 317.022 403.371 317.341 403.371 317.341 401.301 317.46 398.474 316.622 398.474 316.622 396.64 316.332 395.111 316.194 395.111 316.194 395.698 313.444 397.832 312.967 397.832 312.967 401.49 312.174 401.323 310.497L394.448 310.404C394.448 310.404 394.135 309.492 396.413 307.949 396.413 307.949 400.973 305.62 398.672 304.421 398.672 304.421 395.935 305.969 390.584 305.407 390.584 305.407 390.084 300.379 390.981 298.389 390.981 298.389 391.541 297.058 390.518 297.785 390.518 297.785 388.241 299.482 386.556 298.886 386.556 298.886 386.383 296.448 387.898 295.215 387.898 295.215 388.333 294.173 387.28 294.306 387.28 294.306 384.244 296.466 382.864 295.868 382.864 295.868 382.098 295.724 383.006 294.648 383.006 294.648 384.366 292.959 383.147 293.274 383.147 293.274 380.099 294.216 378.59 296.211 378.59 296.211 377.834 297.133 377.217 296.223 377.217 296.223 376.594 295.009 376.148 296.233 376.148 296.233 375.433 301.882 363.968 300.609 363.968 300.609 373.808 290.764 388.025 292.164 388.025 292.164 393.533 293.337 396.355 301.393 396.355 301.393 398.318 298.935 398 297.566 398 297.566 397.358 294.065 399.204 295.725 399.204 295.725 401.817 297.226 405.062 301.619 405.062 301.619 406.285 301.762 405.815 300.393 405.815 300.393 404.703 295.372 403.153 292.945 403.153 292.945 402.987 291.423 405.879 290.33 405.879 290.33 407.71 290.008 406.174 289.107 406.174 289.107 402.363 289.751 402.198 288.532 402.198 288.532 402.033 287.161 403.398 286.082 403.398 286.082 405.523 284.691 405.05 283.017 405.05 283.017 403.836 283.792 401.546 283.964L399.257 284.137 396.66 284.159C396.66 284.159 398.321 281.857 398 280.336L392.215 282.521C392.215 282.521 390.238 283.455 390.825 280.856L391.541 275.361C391.541 275.361 387.007 280.737 384.56 280.302 384.56 280.302 383.481 279.397 385.738 275.412 385.738 275.412 385.318 274.959 384.671 275.574 384.671 275.574 380.278 279.729 378.745 279.285 378.745 279.285 378.732 277.76 379.776 275.008 379.776 275.008 380.927 272.944 379.786 273.553 379.56 273.672 379.306 273.79 379.306 273.79 379.306 273.79 373.9 276.125 369.931 284.243 369.931 284.243 366.939 291.13 361.785 295.597 361.785 295.597 361.274 289.656 366.863 282.592L374.271 274.14C374.271 274.14 381.273 267.743 387.564 274.633 387.564 274.633 387.434 269.924 389.971 270.495 389.971 270.495 394.415 272.133 396.398 271.81 396.398 271.81 395.19 266.502 392.833 265.895L390.842 265.303C390.842 265.303 389.002 264.404 390.367 263.478 390.367 263.478 393.85 260.091 392.019 260.414 392.019 260.414 389.44 262.113 388.364 261.665 388.364 261.665 386.833 261.069 385.619 262.149 385.619 262.149 384.1 263.075 383.333 262.625 383.333 262.625 382.948 260.14 383.906 258.503 383.906 258.503 384.483 257.085 383.137 257.594 383.137 257.594 380.7 258.532 378.276 260.686 378.276 260.686 376.611 262.227 376.747 260.548 376.747 260.548 377.324 256.731 376.418 257.805L372.037 263.335C372.037 263.335 370.676 265.176 370.509 263.196L370.787 260.143C370.787 260.143 365.321 263.852 363.544 270.119 363.544 270.119 363.436 274.999 362.366 275.008 362.366 275.008 361.443 274.255 362.159 268.758 362.159 268.758 365.383 253.177 359.073 248.048 359.073 248.048 357.282 247.489 356.953 250.202 356.953 250.202 355.732 258.752 355.613 262.717 355.613 262.717 354.818 267.908 356.132 278.265 356.132 278.265 357.471 291.367 355.692 297.481 355.692 297.481 352.156 294.92 352.384 286.227 352.384 286.227 353.183 272.802 350.547 268.404 350.547 268.404 349.622 267.495 349.639 269.479 349.639 269.479 349.828 273.593 348.76 273.603 348.76 273.603 347.831 272.239 347.964 269.95L348.096 267.661C348.096 267.661 348.501 264.592 347.172 266.603 347.172 266.603 345.658 268.294 345.482 265.702L345.292 261.434C345.292 261.434 344.974 260.066 344.223 261.443 344.223 261.443 342.735 265.88 341.654 264.669 341.654 264.669 339.93 259.653 336.542 256.481 336.542 256.481 335.626 256.641 335.942 257.859 335.942 257.859 337.827 263.636 335.219 262.438 335.219 262.438 330.619 260.345 329.22 257.612 329.22 257.612 327.834 256.252 328 257.928 328 257.928 329.563 260.704 328.332 260.823 328.332 260.823 326.208 261.212 324.959 259.48 324.959 259.48 323.267 258.123 323.588 259.95 323.588 259.95 325.003 264.359 324.086 264.367 324.086 264.367 322.102 264.537 320.569 263.789 320.569 263.789 317.09 262.38 317.36 263.664 317.519 264.424 317.98 264.725 318.907 265.937 318.907 265.937 320.603 267.6 318.926 268.073 318.926 268.073 314.814 269.482 311.221 277.746 311.221 277.746 310.717 279.593 313.056 277.882 313.056 277.882 326.228 264.653 339.497 279.785L337.833 281.628 331.363 275.434C331.363 275.434 330 276.818 332.013 279.849 332.013 279.849 333.621 281.958 332.355 283.964 332.355 283.964 322.08 273.217 321.731 274.298 321.731 274.298 320.519 275.377 323.148 279.166 323.148 279.166 323.808 282.058 322.563 282.067 322.563 282.067 317.898 281.704 314.172 281.252 314.172 281.252 312.576 281.125 311.632 280.741 311.632 280.741 310.842 282.081 313.121 283.127 313.121 283.127 319.963 286.665 315.428 287.239 315.428 287.239 311.827 287.805 307.529 284.909 307.529 284.909 306.487 287.851 310.792 291.412 310.792 291.412 312.001 292.202 310.94 293.145 310.94 293.145 307.89 295.436 307.125 299.575 307.125 299.575 306.753 302.777 305.832 304.385 305.832 304.385 307.839 304.9 309.954 302.35L311.676 300.734C311.676 300.734 312.739 300.325 313.02 301.921 313.02 301.921 313.074 307.92 314.409 307.908 314.409 307.908 314.976 308.044 315.464 306.3 315.464 306.3 319.313 290.831 330.962 292.434 330.962 292.434 339.513 293.158 347.456 300.552 347.456 300.552 347.062 301.221 344.392 301.245 344.392 301.245 340.881 296.745 331.916 294.557 331.916 294.557 329.774 294.043 331.257 295.497 331.257 295.497 334.886 298.264 333.557 299.075 333.557 299.075 327.403 297.663 323.537 298.364 323.537 298.364 323.143 299.033 324.215 299.558 324.215 299.558 328.238 301.388 326.107 302.074 326.107 302.074 320.496 301.724 317.182 304.418 317.182 304.418 318.261 305.741 320.803 306.251 320.803 306.251 315.485 308.831 313.508 311.649 313.508 311.649 313.113 312.451 314.449 312.439 314.449 312.439 321.119 311.846 319.529 313.194 319.529 313.194 313.681 316.178 310.682 324.468 310.682 324.468 310.562 325.802 311.89 324.99 311.89 324.99 316.137 322.154 316.152 323.887 316.152 323.887 315.715 334.686 316.924 335.609 316.924 335.609 317.74 337.335 320.758 331.31 320.758 331.31 322.438 327.022 324.753 330.075L327.856 333.781C327.856 333.781 329.21 335.9 329.591 333.764 329.591 333.764 330.495 330.291 330.195 326.428 330.195 326.428 330.495 325.299 331.127 326.154 331.127 326.154 331.216 329.214 332.744 327.872L332.73 326.274C332.73 326.274 336.326 325.176 336.347 327.707L336.37 330.239C336.37 330.239 335.704 332.691 336.807 334.368L336.826 336.499C336.826 336.499 336.708 338.235 337.631 336.894L338.553 335.553 339.871 333.541C339.871 333.541 340.661 332.334 341.337 333.261 341.337 333.261 344.454 338.432 349.664 338.785L350.126 330.651C350.126 330.651 351.861 330.502 350.76 326.78 350.76 326.78 350.211 325.185 351.142 324.645 351.142 324.645 351.742 324.086 351.13 323.313 351.13 323.313 350.309 321.053 351.904 320.24 351.904 320.24 352.295 319.508 351.619 318.377 351.619 318.377 350.216 310.656 352.609 309.304 352.609 309.304 353.938 308.759 353.949 309.958L353.96 311.157C353.96 311.157 352.321 348.134 352.965 369.017L353.931 443.874C353.931 443.874 352.899 447.85 349.196 443.765 349.196 443.765 347.494 441.186 345.983 443.029 345.983 443.029 345.234 444.868 344.463 443.958L341.846 441.694 340.788 442.923C340.788 442.923 340.203 443.93 339.102 442.175 339.102 442.175 338.301 440.928 337.265 441.888L334.84 444.043C334.84 444.043 330.674 439.201 328.837 438.76L324.766 444.743C324.766 444.743 323.716 446.886 322.786 445.369 322.786 445.369 321.64 443.672 320.798 445.081 320.475 445.622 320.347 445.849 320.347 445.849 320.347 445.849 320.009 446.645 319.129 446.315 319.129 446.315 317.835 444.91 317.073 446.541 316.488 447.789 316.393 448.019 316.393 448.019L315.049 451.384C315.049 451.384 314.148 453.222 312.913 451.707 312.913 451.707 310.601 449.29 310.319 451.883L310.03 453.869C310.03 453.869 309.74 455.549 308.357 454.647 308.357 454.647 306.894 453.266 306.217 454.512L304.714 457.269C304.714 457.269 303.656 458.499 302.884 457.743L302.114 456.987C302.114 456.987 300.821 455.303 300.283 457.003 299.894 458.234 299.688 458.839 299.688 458.839 299.688 458.839 299.361 460.711 297.71 459.771L295.715 458.722 294.821 461.168C294.821 461.168 294.415 462.718 292.991 461.49 292.991 461.49 291.45 459.978 290.855 461.813L290.261 463.648C290.261 463.648 289.669 465.941 288.592 464.884 288.592 464.884 286.66 462.386 285.996 465.059L285.404 467.2 282.347 466.921C282.347 466.921 279.901 466.638 281.601 468.909L283.3 471.182C283.3 471.182 283.849 472.702 282.252 473.478 292.674 477.068 299.239 476.377 304.601 474.185 309.962 471.992 314.121 468.296 323.17 466.564 333.088 464.98 345.563 465.331 345.563 465.331 353.281 462.701 360.455 463.125 368.42 463.746 368.42 463.746 375.07 466.227 380.389 465.379 380.389 465.379 384.505 464.858 389.413 465.024 418.382 465.475 436.233 476.636 439.985 467.969Z" fill="#385723" fill-rule="evenodd"/><path d="M361.857 346 361.817 346.725 365.304 350.362C368.941 353.998 370.158 356.126 370.158 356.126 386.275 357.889 381.263 372.537 381.263 372.537 379.476 376.185 378.925 379.895 378.925 379.895 378.794 382.038 375.482 381.455 375.482 381.455 374.577 380.853 372.324 380.72 372.324 380.72 370.22 380.738 369.151 378.454 369.151 378.454 368.383 376.627 366.128 376.036 366.128 376.036 363.869 375.446 364.742 372.227 364.742 372.227 365.185 371.459 364.727 370.545 364.727 370.545 363.518 369.64 364.403 367.797 364.403 367.797 364.996 366.874 365.268 363.661 365.268 363.661 365.537 359.99 367.921 357.675 367.921 357.675 361.173 350.284 359.981 355.798 359.981 355.798L361.739 441.505 361.947 442.682 361.113 446.138C360.304 448.334 358.991 449.142 356.043 445.433L354.082 442.477 353.147 368.662C352.989 363.428 352.971 357.185 353.033 350.766L353.076 348.542 353.101 348.559C356.583 350.09 359.155 348.921 361.206 346.874Z" fill="#843C0C" fill-rule="evenodd"/></g></svg>