<svg width="720" height="720" xmlns="http://www.w3.org/2000/svg" xmlns:xlink="http://www.w3.org/1999/xlink" overflow="hidden"><g><rect x="0" y="0" width="720" height="720" fill="#FFFFFF" fill-opacity="0"/><path d="M689.148 215.302 691.635 219.872C709.9 262.942 720 310.294 720 360 720 558.823 558.399 720 359.055 720 184.628 720 39.0992 596.599 5.44234 432.553L1 403.519 79.2035 481.518 105.769 530.333C160.661 611.371 253.619 664.651 359.055 664.651 527.751 664.651 664.506 528.254 664.506 360 664.506 338.968 662.369 318.434 658.3 298.602L645.824 258.514ZM590.955 86.2463 551.715 125.384 529.835 107.379C481.085 74.5299 422.315 55.3489 359.054 55.3489 232.532 55.3489 123.977 132.072 77.6067 241.416L74.8711 250.205 32.5633 208.008 50.3644 173.327C113.67 69.4134 228.235 0 359.055 0 433.809 0 503.255 22.6654 560.863 61.4823Z" fill="#FFC000" fill-rule="evenodd"/><path d="M628.906 124 657.902 159.064 662 166.597 288.564 539.192 288.564 539.192 250.671 577 0 326.894 0.175366 323.432C1.40607 311.338 3.2378 299.42 5.63918 287.71L12.9532 264.201 250.671 501.383Z" fill="#FFC000" fill-rule="evenodd"/></g></svg>
