<svg width="720" height="720" xmlns="http://www.w3.org/2000/svg" xmlns:xlink="http://www.w3.org/1999/xlink" overflow="hidden"><g><rect x="0" y="0" width="720" height="720" fill="#FFFFFF" fill-opacity="0"/><path d="M72 167.002C72 113.982 114.982 71 168.002 71L551.998 71C605.018 71 648 113.982 648 167.002L648 551.998C648 605.018 605.018 648 551.998 648L168.002 648C114.982 648 72 605.018 72 551.998Z" fill="#C00000" fill-rule="evenodd"/><path d="M648 167.335 648 360 360 360 360 70.9999 552.155 70.9999C605.089 70.9999 648 114.131 648 167.335Z" fill="#FFC000" fill-rule="evenodd"/><path d="M72 551.998 72 360 360 360 360 648 167.845 648C114.911 648 72 605.018 72 551.998Z" fill="#FFC000" fill-rule="evenodd"/><path d="M209.021 133C214.752 133 220.348 133.577 225.752 134.676L231 136.017 225.04 136.921C188.259 144.4 160.592 176.739 160.592 215.5 160.592 254.261 188.259 286.6 225.04 294.079L231 294.983 225.752 296.324C220.348 297.423 214.752 298 209.021 298 163.17 298 126 261.064 126 215.5 126 169.936 163.17 133 209.021 133Z" fill="#F2F2F2" fill-rule="evenodd"/><path d="M272.385 170 251.612 198.123 218 187.385 238.774 215.506 218.006 243.623 251.612 232.882 272.385 261 272.385 226.244 306 215.5 272.385 204.76Z" fill="#F2F2F2" fill-rule="evenodd"/></g></svg>