<svg width="720" height="720" xmlns="http://www.w3.org/2000/svg" xmlns:xlink="http://www.w3.org/1999/xlink" overflow="hidden"><g><rect x="0" y="0" width="720" height="720" fill="#FFFFFF" fill-opacity="0"/><path d="M72 167.002C72 113.982 114.982 71 168.002 71L551.998 71C605.018 71 648 113.982 648 167.002L648 551.998C648 605.018 605.018 648 551.998 648L168.002 648C114.982 648 72 605.018 72 551.998Z" fill="#F2F2F2" fill-rule="evenodd"/><path d="M133 207.668C133 165.878 166.878 132 208.668 132L511.332 132C553.122 132 587 165.878 587 207.668L587 511.332C587 553.122 553.122 587 511.332 587L208.668 587C166.878 587 133 553.122 133 511.332Z" fill="#262626" fill-rule="evenodd"/><path d="M454 360C454 421.856 404.08 472 342.5 472 280.92 472 231 421.856 231 360 231 298.144 280.92 248 342.5 248 404.08 248 454 298.144 454 360Z" fill="#F2F2F2" fill-rule="evenodd"/><path d="M495 360C495 421.856 445.08 472 383.5 472 321.92 472 272 421.856 272 360 272 298.144 321.92 248 383.5 248 445.08 248 495 298.144 495 360Z" fill="#262626" fill-rule="evenodd"/><path d="M488 360.001 435.668 343 435.668 288 403.329 332.494 351.009 315.497 383.342 359.992 351 404.492 403.329 387.498 435.668 432 435.668 376.996Z" fill="#F2F2F2" fill-rule="evenodd"/></g></svg>